<?xml version="1.0" encoding="UTF-8"?>
<svg version="1.1" xmlns="http://www.w3.org/2000/svg" width="2000" height="1500">
<path d="M0 0 C660 0 1320 0 2000 0 C2000 495 2000 990 2000 1500 C1340 1500 680 1500 0 1500 C0 1005 0 510 0 0 Z " fill="#C5C5C5" transform="translate(0,0)"/>
<path d="M0 0 C1.85783615 -0.00151062 1.85783615 -0.00151062 3.75320435 -0.00305176 C23.34820831 0.00769953 42.56860048 0.64153208 62 3.25 C63.06879395 3.38921875 64.13758789 3.5284375 65.23876953 3.671875 C91.82185506 7.24329249 118.48558224 12.9801834 144 21.25 C145.21478027 21.64171387 146.42956055 22.03342773 147.68115234 22.43701172 C166.92559543 28.68189722 185.56914203 35.87005108 204 44.25 C205.01384766 44.70874512 206.02769531 45.16749023 207.07226562 45.64013672 C245.35156786 63.08951661 280.75836377 86.29387791 313 113.25 C313.52142578 113.68505859 314.04285156 114.12011719 314.58007812 114.56835938 C332.40101237 129.48576478 349.99755014 145.46228518 365 163.25 C365.96954855 164.35835292 366.94111547 165.46494167 367.9140625 166.5703125 C375.24114913 174.91101043 382.29042941 183.40466344 389 192.25 C389.5480127 192.97203613 390.09602539 193.69407227 390.66064453 194.43798828 C398.94438742 205.4036016 406.75933307 216.56932597 414 228.25 C414.46583496 228.99765625 414.93166992 229.7453125 415.41162109 230.515625 C444.84657773 277.97787499 465.8646055 328.71845712 478 383.25 C478.19190918 384.11157715 478.38381836 384.9731543 478.58154297 385.86083984 C486.01965819 419.82037945 489.60625863 454.45295381 489.4375 489.1875 C489.43448755 490.52174827 489.43175463 491.85599719 489.42929077 493.19024658 C489.37492552 514.37551323 488.39081043 535.23211354 485.30072021 556.20080566 C484.99738357 558.26782912 484.705737 560.33623315 484.41650391 562.40527344 C480.77034682 588.26227163 475.12397225 613.43481486 467 638.25 C466.63922363 639.36213867 466.27844727 640.47427734 465.90673828 641.62011719 C459.91766903 659.95006823 452.91137156 677.66824509 445 695.25 C444.60458008 696.13864746 444.20916016 697.02729492 443.80175781 697.94287109 C437.72766191 711.53051105 430.48851819 724.39850605 423 737.25 C422.4956543 738.12333984 421.99130859 738.99667969 421.47167969 739.89648438 C404.2542718 769.64907438 383.14845822 796.88940242 360 822.25 C359.18273438 823.16007812 358.36546875 824.07015625 357.5234375 825.0078125 C348.17362247 835.35052824 338.53118447 845.66373302 327.86328125 854.6640625 C325.64528815 856.55191407 323.51757845 858.52702792 321.375 860.5 C315.77256758 865.54815828 309.88465799 870.17244425 303.91259766 874.77001953 C301.98739724 876.2597521 300.0770228 877.7669948 298.16796875 879.27734375 C256.47544428 912.01895964 208.94751779 936.82451922 159 954.25 C157.94377441 954.61996094 156.88754883 954.98992188 155.79931641 955.37109375 C126.51013496 965.56178867 95.71333273 973.45251346 64.83740234 976.92626953 C62.83855051 977.15432645 60.8415644 977.39904164 58.84619141 977.65576172 C5.15747264 984.46936214 -50.14518375 981.4482446 -103 970.25 C-105.07905142 969.83146288 -107.15845976 969.41469346 -109.23828125 969 C-142.73423672 962.19233356 -175.03070387 950.58022327 -206 936.25 C-207.6652298 935.49319295 -209.33058778 934.73666784 -210.99609375 933.98046875 C-238.19020041 921.50215145 -263.89991709 905.95497491 -288 888.25 C-289.06089844 887.47269531 -290.12179687 886.69539063 -291.21484375 885.89453125 C-294.16373271 883.70514588 -297.0873044 881.48728792 -300 879.25 C-300.56315918 878.8183252 -301.12631836 878.38665039 -301.70654297 877.94189453 C-308.62711733 872.62258812 -315.35353102 867.19558008 -321.78515625 861.28515625 C-323.76565997 859.46532831 -325.77626277 857.69433669 -327.8125 855.9375 C-340.95538298 844.45062028 -354.14302543 832.47260692 -365.4140625 819.11328125 C-367.30191407 816.89528815 -369.27702792 814.76757845 -371.25 812.625 C-376.29815828 807.02256758 -380.92244425 801.13465799 -385.52001953 795.16259766 C-387.0097521 793.23739724 -388.5169948 791.3270228 -390.02734375 789.41796875 C-422.76895964 747.72544428 -447.57451922 700.19751779 -465 650.25 C-465.36996094 649.19377441 -465.73992188 648.13754883 -466.12109375 647.04931641 C-476.03552985 618.5541333 -483.13986101 589.14335 -487.3125 559.25 C-487.45953369 558.20473145 -487.60656738 557.15946289 -487.75805664 556.08251953 C-490.36550559 536.06109095 -491.33291585 516.04593308 -491.26074219 495.86645508 C-491.25001571 492.31769704 -491.26072237 488.76944612 -491.2734375 485.22070312 C-491.28335085 469.47960099 -490.47381492 453.91988528 -489 438.25 C-488.89365234 437.09067459 -488.89365234 437.09067459 -488.78515625 435.90792847 C-483.96507551 384.14101445 -469.17407579 333.33592491 -447.38574219 286.24755859 C-446.14016355 283.55319382 -444.91472299 280.85080456 -443.6953125 278.14453125 C-426.94362567 241.38821819 -403.86281178 207.17567869 -378 176.25 C-377.55962402 175.72325684 -377.11924805 175.19651367 -376.66552734 174.65380859 C-366.19191725 162.16926536 -355.11834847 150.29987313 -343.625 138.75 C-342.98336914 138.10369629 -342.34173828 137.45739258 -341.68066406 136.79150391 C-337.28371608 132.40931079 -332.70329961 128.29918279 -328 124.25 C-326.80884187 123.20432438 -325.61870738 122.15748134 -324.4296875 121.109375 C-316.16688974 113.86504186 -307.75524543 106.89123257 -299 100.25 C-298.27796387 99.7019873 -297.55592773 99.15397461 -296.81201172 98.58935547 C-285.8463984 90.30561258 -274.68067403 82.49066693 -263 75.25 C-261.87851562 74.55124756 -261.87851562 74.55124756 -260.734375 73.83837891 C-213.51531617 44.55424364 -162.38196829 22.92391028 -108 11.25 C-106.82276367 10.99621582 -105.64552734 10.74243164 -104.43261719 10.48095703 C-89.56346767 7.3264812 -74.71112514 4.76660987 -59.625 2.9375 C-58.96097168 2.85618835 -58.29694336 2.77487671 -57.61279297 2.69110107 C-38.40935434 0.37437241 -19.31935755 0.0109286 0 0 Z " fill="#777777" transform="translate(1001,259.75)"/>
<path d="M0 0 C1.30775894 -0.00392761 1.30775894 -0.00392761 2.64193726 -0.00793457 C26.18846079 -0.01544465 49.36030134 2.6615699 72.25 8.3125 C73.44882813 8.59609375 74.64765625 8.8796875 75.8828125 9.171875 C130.52340832 22.86204626 178.35098484 51.43437521 218.125 90.9375 C218.85523376 91.65956131 218.85523376 91.65956131 219.60021973 92.39620972 C226.27888955 99.01911572 232.42676385 105.92288704 238.25 113.3125 C238.81912109 114.02229004 239.38824219 114.73208008 239.97460938 115.46337891 C275.83568154 160.37859413 298.29736704 215.15630134 304.25 272.3125 C304.3442627 273.16730957 304.43852539 274.02211914 304.53564453 274.90283203 C307.69475317 307.1325218 305.27028462 339.46843805 298.375 371 C298.21032227 371.75472595 298.04564453 372.5094519 297.87597656 373.28704834 C283.65037855 437.6702035 244.99523235 501.1256563 192.25 541.3125 C190.9897896 542.31111869 189.73076919 543.31124011 188.47265625 544.3125 C125.09284363 594.3083126 42.78807878 616.09706165 -37.140625 606.72753906 C-48.16729363 605.27235889 -58.96018334 602.9801229 -69.75 600.3125 C-70.56194824 600.11930176 -71.37389648 599.92610352 -72.21044922 599.72705078 C-114.77501688 589.58597484 -155.41786174 569.57551727 -189.14794922 541.63818359 C-190.20664998 540.76211759 -191.27072351 539.8924998 -192.34033203 539.02978516 C-200.72436909 532.26681534 -208.42894829 524.83955384 -216.0625 517.25 C-216.98160156 516.34016357 -217.90070313 515.43032715 -218.84765625 514.49291992 C-224.90625571 508.40641326 -230.4309769 502.05138552 -235.75 495.3125 C-236.31968506 494.602146 -236.88937012 493.89179199 -237.47631836 493.15991211 C-272.45773316 449.336862 -293.08043914 397.63158463 -300.75 342.3125 C-300.88277344 341.36020508 -301.01554688 340.40791016 -301.15234375 339.42675781 C-305.66701913 305.17356065 -303.51361934 269.26235491 -295.35107422 235.78417969 C-294.80785476 233.5504048 -294.29138021 231.31269716 -293.78515625 229.0703125 C-281.07335445 174.84056579 -251.0667977 126.64633881 -212.125 87.4375 C-211.64362579 86.95067749 -211.16225159 86.46385498 -210.66629028 85.96228027 C-204.04338428 79.28361045 -197.13961296 73.13573615 -189.75 67.3125 C-189.04020996 66.74337891 -188.33041992 66.17425781 -187.59912109 65.58789062 C-142.69344453 29.73443429 -87.90024203 7.24657833 -30.75 1.3125 C-29.87923828 1.2189624 -29.00847656 1.1254248 -28.11132812 1.02905273 C-18.75395258 0.12974095 -9.39328367 0.02713954 0 0 Z " fill="#0A0A0A" transform="translate(998.75,445.6875)"/>
<path d="M0 0 C0.88558594 -0.01160156 1.77117187 -0.02320313 2.68359375 -0.03515625 C14.62392287 0.01744432 26.1120594 4.90607233 34.8125 13.125 C38.82961744 17.45428608 41.83553253 22.11701242 44.5 27.375 C44.91507813 28.18324219 45.33015625 28.99148438 45.7578125 29.82421875 C50.18396877 39.93009303 50.09025475 52.40515786 46.875 62.875 C41.25778811 77.06482097 32.71889304 86.57588863 18.8984375 93.06640625 C14.60849527 94.71828056 11.07800845 95.29606882 6.5 95.375 C6.5 100.655 6.5 105.935 6.5 111.375 C11.30190992 111.25664879 11.30190992 111.25664879 16.1027832 111.10473633 C18.9023626 111.06986812 21.02383236 111.10169668 23.48046875 112.51171875 C25.05838895 115.39550395 25.01034933 117.12696277 24.5 120.375 C22.87941647 122.71063304 21.35408955 124.63061108 19.4375 126.6875 C18.48611923 127.74415112 17.53694151 128.80278948 16.58984375 129.86328125 C15.89495094 130.63615227 15.89495094 130.63615227 15.1860199 131.42463684 C13.31285617 133.59148524 11.55789542 135.82792872 9.80688477 138.09448242 C9.18507828 138.89810715 8.56327179 139.70173187 7.92262268 140.52970886 C7.4531572 141.13865494 6.98369171 141.74760101 6.5 142.375 C7.6804892 142.37642502 8.86097839 142.37785004 10.07723999 142.37931824 C21.22915039 142.39602352 32.38069753 142.43890517 43.53241539 142.50709057 C49.26498979 142.541309 54.99729913 142.5664626 60.72998047 142.57055664 C66.26749999 142.57485053 71.80442209 142.60340439 77.34175491 142.64843178 C79.44909809 142.66137182 81.55651289 142.66572692 83.66389084 142.66115379 C96.62018587 142.6395961 106.23236014 142.75276946 116.375 151.625 C123.93599186 160.01418473 124.13526536 169.08177479 124.02148438 179.88549805 C124.00007306 182.30424621 124.02133532 184.72001505 124.046875 187.13867188 C124.06748619 198.29909002 122.94596983 207.46037036 115.01953125 215.96875 C112.47049507 218.3277552 110.06167537 220.375 106.5 220.375 C108.89379161 224.91900442 112.01689728 228.06483498 115.6875 231.5625 C117.67945045 233.46254962 119.59925499 235.37995446 121.5 237.375 C121.5 238.035 121.5 238.695 121.5 239.375 C122.48419922 238.89160156 122.48419922 238.89160156 123.48828125 238.3984375 C131.7041596 235.60653072 143.396608 236.13660847 151.2265625 239.91796875 C158.54603145 244.60896861 164.66680695 250.51695425 168.5 258.375 C168.86351562 259.10976563 169.22703125 259.84453125 169.6015625 260.6015625 C172.36076104 269.11908842 171.47702101 280.7267947 167.953125 288.87890625 C163.38865963 296.71947983 157.04229464 303.0883095 148.5 306.375 C146.10333843 306.95761386 143.97358255 307.21711175 141.5 307.375 C141.53480469 308.13425781 141.56960938 308.89351562 141.60546875 309.67578125 C141.63253906 310.66964844 141.65960937 311.66351562 141.6875 312.6875 C141.72230469 313.67363281 141.75710938 314.65976562 141.79296875 315.67578125 C141.5 318.375 141.5 318.375 140.2109375 320.20703125 C137.35937621 322.15364501 134.82534929 321.73776538 131.5 321.375 C129.21937172 317.95405758 129.28074993 316.69312778 129.375 312.6875 C129.39304687 311.69363281 129.41109375 310.69976563 129.4296875 309.67578125 C129.45289063 308.91652344 129.47609375 308.15726563 129.5 307.375 C128.530625 307.313125 127.56125 307.25125 126.5625 307.1875 C117.84207319 305.88646858 110.92272922 300.02737303 105.5 293.375 C99.67599003 284.163732 97.80456046 274.10092508 100.15234375 263.40234375 C102.34320209 256.71693484 105.88046702 251.63036757 110.5 246.375 C109.16000502 243.368182 107.70154709 241.37737391 105.3125 239.125 C102.04101366 235.95596104 99.03905802 232.6309089 96.078125 229.171875 C95.55734375 228.57890625 95.0365625 227.9859375 94.5 227.375 C93.96061043 226.59028572 93.96061043 226.59028572 93.4103241 225.78971863 C90.36318587 223.53311556 87.00659487 223.93594614 83.35668945 223.94262695 C82.11245209 223.92733948 82.11245209 223.92733948 80.84307861 223.91174316 C78.09974482 223.88153502 75.35675974 223.87233538 72.61328125 223.86328125 C70.71183606 223.84644035 68.81040205 223.82829091 66.90898132 223.80888367 C61.90310151 223.76131358 56.89726699 223.73154959 51.89123535 223.70544434 C46.78351901 223.67567413 41.67595885 223.62913169 36.56835938 223.58398438 C26.54565449 223.49787155 16.52291753 223.43056179 6.5 223.375 C6.5 227.995 6.5 232.615 6.5 237.375 C8.02625 237.7875 9.5525 238.2 11.125 238.625 C15.51185124 239.94291158 18.83630881 241.56333001 22.5 244.375 C23.325 244.931875 24.15 245.48875 25 246.0625 C31.62432495 252.19000058 35.25210717 259.54869076 35.90625 268.57421875 C36.31293305 280.3994111 34.44152438 289.28707148 26.1875 298.3125 C20.41274497 303.52635167 14.30199118 306.87700056 6.5 307.375 C6.53480469 308.13425781 6.56960938 308.89351562 6.60546875 309.67578125 C6.63253906 310.66964844 6.65960937 311.66351562 6.6875 312.6875 C6.72230469 313.67363281 6.75710938 314.65976562 6.79296875 315.67578125 C6.5 318.375 6.5 318.375 5.17578125 320.20703125 C2.57386354 322.02048905 0.57797388 321.75974673 -2.5 321.375 C-4.17578125 320.20703125 -4.17578125 320.20703125 -5.5 318.375 C-5.79296875 315.67578125 -5.79296875 315.67578125 -5.6875 312.6875 C-5.66042969 311.69363281 -5.63335938 310.69976563 -5.60546875 309.67578125 C-5.57066406 308.91652344 -5.53585937 308.15726563 -5.5 307.375 C-7.4490625 307.065625 -7.4490625 307.065625 -9.4375 306.75 C-18.28134906 304.75076254 -25.54937068 298.88079284 -30.5 291.375 C-35.11759346 282.45544606 -37.4035374 273.60631525 -34.80078125 263.71875 C-30.74219387 252.62185286 -24.49926442 245.35497389 -14.3125 239.5625 C-11.5 238.375 -11.5 238.375 -6.5 237.375 C-6.17 232.755 -5.84 228.135 -5.5 223.375 C-16.42744667 223.29701113 -27.35385181 223.26775763 -38.28156185 223.29984188 C-43.35650829 223.31322959 -48.43030794 223.31015406 -53.50512695 223.26879883 C-58.40755882 223.22946499 -63.30818704 223.23423348 -68.21063423 223.26892281 C-70.07603455 223.27449968 -71.94155204 223.26447966 -73.80677605 223.23823357 C-84.13458215 222.8452945 -84.13458215 222.8452945 -93.56863403 226.29812622 C-95.84405477 228.54122523 -97.661983 230.76884139 -99.5 233.375 C-100.77903585 234.84442375 -102.06886273 236.30461274 -103.375 237.75 C-103.90867187 238.37648438 -104.44234375 239.00296875 -104.9921875 239.6484375 C-106.43272895 241.29796942 -107.93326925 242.84579574 -109.5 244.375 C-107.94629667 247.69215661 -106.03210335 250.64365028 -104 253.6875 C-98.70639585 262.04060924 -97.4206732 269.54862889 -98.5 279.375 C-101.40500669 290.08721217 -107.80238193 298.84143353 -117.41015625 304.5 C-121.35010061 306.62094201 -123.94906417 307.59622605 -128.5 307.375 C-128.47679687 308.13425781 -128.45359375 308.89351562 -128.4296875 309.67578125 C-128.41164063 310.66964844 -128.39359375 311.66351562 -128.375 312.6875 C-128.35179687 313.67363281 -128.32859375 314.65976562 -128.3046875 315.67578125 C-128.5 318.375 -128.5 318.375 -130.5 321.375 C-136.5354952 322.03341766 -136.5354952 322.03341766 -139.2109375 320.20703125 C-141.01695121 317.64030268 -140.79698601 315.78960363 -140.6875 312.6875 C-140.66042969 311.69363281 -140.63335938 310.69976563 -140.60546875 309.67578125 C-140.55326172 308.53689453 -140.55326172 308.53689453 -140.5 307.375 C-141.44875 307.33375 -142.3975 307.2925 -143.375 307.25 C-151.73227681 306.00062933 -158.60086501 300.18406559 -163.8046875 293.83203125 C-170.02335598 284.81926058 -171.1315619 274.03814628 -169.5 263.375 C-166.33990217 252.86916532 -159.06048461 244.48521545 -149.4375 239.3125 C-140.24520971 235.55260693 -129.79085411 236.3783385 -120.5 239.375 C-120.2834375 238.8284375 -120.066875 238.281875 -119.84375 237.71875 C-117.72526187 234.02371257 -114.55233308 231.34710915 -111.48828125 228.44140625 C-108.89696755 225.93345921 -106.8388599 223.75402738 -105.5 220.375 C-106.551875 220.0346875 -106.551875 220.0346875 -107.625 219.6875 C-115.37274801 216.1504846 -118.26324798 210.98330157 -121.5 203.375 C-123.39469361 197.69091918 -122.8067638 191.27905732 -122.85009766 185.31713867 C-122.86657604 183.65976846 -122.89375782 182.0024669 -122.93212891 180.34545898 C-123.20497972 168.48356651 -122.522048 159.75696063 -114.3125 150.5 C-107.51641782 144.40135524 -99.53168289 142.77664992 -90.64404297 142.82910156 C-89.7159935 142.81876389 -88.78794403 142.80842621 -87.83177185 142.79777527 C-84.80172866 142.76856682 -81.77235981 142.76685276 -78.7421875 142.765625 C-76.62654361 142.75062852 -74.51091136 142.73389831 -72.39529419 142.71551514 C-66.85517816 142.6719944 -61.31522004 142.6518764 -55.77496338 142.63677979 C-50.11029788 142.61715353 -44.44580153 142.57518978 -38.78125 142.53515625 C-27.68755237 142.46001964 -16.59389291 142.40962806 -5.5 142.375 C-5.9031543 141.88620361 -6.30630859 141.39740723 -6.72167969 140.89379883 C-8.56482919 138.65867569 -10.40741901 136.42309182 -12.25 134.1875 C-13.20132813 133.03411133 -13.20132813 133.03411133 -14.171875 131.85742188 C-15.4031935 130.36316557 -16.63235046 128.86712494 -17.85913086 127.36914062 C-19.19959895 125.74007599 -20.55990397 124.12735137 -21.92578125 122.51953125 C-24.04169826 119.63705373 -24.03137636 117.86690176 -23.5 114.375 C-22.453125 112.70703125 -22.453125 112.70703125 -20.5 111.375 C-17.83106037 111.15623446 -15.46499713 111.09164705 -12.8125 111.1875 C-10.399375 111.249375 -7.98625 111.31125 -5.5 111.375 C-5.5 106.095 -5.5 100.815 -5.5 95.375 C-6.881875 95.354375 -8.26375 95.33375 -9.6875 95.3125 C-20.23786705 94.2082183 -29.16163806 87.82524486 -36.2734375 80.26171875 C-46.03071632 67.61149235 -48.85981118 54.00602954 -47.5 38.375 C-46.67316053 34.3629494 -45.39070975 30.99837256 -43.5 27.375 C-43.05269531 26.50488281 -42.60539063 25.63476562 -42.14453125 24.73828125 C-35.68941011 13.16059749 -25.66459395 4.96936257 -12.96240234 0.95507812 C-8.64697487 -0.06152466 -4.41393177 -0.05782443 0 0 Z " fill="#C3C3C3" transform="translate(999.5,573.625)"/>
<path d="M0 0 C0.81489149 -0.00367669 1.62978299 -0.00735338 2.46936816 -0.01114148 C5.21539946 -0.02220436 7.96139296 -0.02602654 10.70744324 -0.02983093 C12.67004518 -0.03609357 14.63264592 -0.04274019 16.59524536 -0.04974365 C21.93826332 -0.06717085 27.28127233 -0.07770988 32.62431169 -0.08594918 C35.96015152 -0.0910952 39.29598854 -0.09717108 42.6318264 -0.10346031 C53.06226683 -0.12251632 63.49270016 -0.13674715 73.92315465 -0.14507228 C85.9758455 -0.15485025 98.02835296 -0.18118272 110.08097917 -0.22157317 C119.38887784 -0.25169862 128.69672383 -0.26653772 138.00467032 -0.26985329 C143.56774915 -0.27220767 149.13063216 -0.28121856 154.69365883 -0.30631447 C159.92624264 -0.329538 165.1585009 -0.33385147 170.39112282 -0.32355309 C172.31281617 -0.32305624 174.23452523 -0.3294204 176.15616989 -0.34310913 C178.77776493 -0.36074068 181.39818056 -0.35376542 184.01977539 -0.34057617 C184.7820366 -0.35154542 185.54429782 -0.36251466 186.32965785 -0.37381631 C191.23910693 -0.31409502 193.7633774 0.63550953 197.20036316 4.14717102 C200.274149 9.66014717 199.53567205 15.9293175 199.51603699 22.0670929 C199.51287228 24.14119306 199.53638154 26.21387135 199.56169128 28.28779602 C199.56233582 29.60263977 199.56298035 30.91748352 199.56364441 32.27217102 C199.56662537 33.47099915 199.56960632 34.66982727 199.57267761 35.90498352 C199.02660765 40.66026818 196.86203565 44.09577728 193.20036316 47.14717102 C189.55537235 48.36216796 186.20338585 48.30185304 182.40782166 48.30780029 C181.60573753 48.31288811 180.8036534 48.31797593 179.97726369 48.32321793 C177.28047306 48.33895656 174.58370926 48.34747117 171.8868866 48.35591125 C169.95693796 48.36544849 168.02699104 48.3753396 166.0970459 48.38555908 C159.75129733 48.41695624 153.40553558 48.43721077 147.05973816 48.45576477 C145.98046838 48.45906209 144.9011986 48.46235941 143.78922367 48.46575665 C133.61276874 48.49653544 123.43631088 48.52324564 113.25982285 48.54017544 C100.23856264 48.56209122 87.21771431 48.60408268 74.1966188 48.67361301 C65.04323605 48.72083302 55.88996452 48.74510626 46.73646379 48.75237232 C41.26823519 48.75733116 35.80047073 48.7724347 30.33237457 48.81211662 C25.18748262 48.84896123 20.04332033 48.85739965 14.89832115 48.84411049 C13.01131205 48.84416447 11.12427079 48.85447477 9.23738289 48.87586212 C6.65765497 48.9035367 4.08058959 48.89404033 1.50083923 48.87542725 C0.75675867 48.89222218 0.0126781 48.9090171 -0.75395036 48.92632097 C-6.05019031 48.83103948 -8.71217884 47.15983817 -12.4625442 43.72703701 C-16.44105539 39.02615515 -15.10219568 31.42776925 -15.1497345 25.5785675 C-15.16627822 24.08784862 -15.19354821 22.59720856 -15.23176575 21.10688782 C-15.28680481 18.94672429 -15.30844543 16.78841189 -15.32307434 14.62763977 C-15.35280334 12.69247498 -15.35280334 12.69247498 -15.38313293 10.71821594 C-14.6181591 6.03651205 -13.11864042 4.46961301 -9.79963684 1.14717102 C-6.69491874 -0.40518803 -3.40804662 -0.00081711 0 0 Z " fill="#0A0A0A" transform="translate(907.7996368408203,732.8528289794922)"/>
<path d="M0 0 C7.26379997 3.33280234 12.85018579 9.09757813 16.08203125 16.38671875 C18.00486287 22.1097028 16.66888673 26.76930148 14.09962463 31.97918701 C9.93904165 39.2505846 3.09940801 45.17482645 -2.75390625 51.0859375 C-3.54628189 51.88638489 -4.33865753 52.68683228 -5.15504456 53.51153564 C-6.82007245 55.19030294 -8.48659337 56.86759064 -10.15454102 58.54345703 C-11.85108606 60.25157647 -13.54314067 61.96416745 -15.23071289 63.68115234 C-17.68700062 66.18014775 -20.15630814 68.66559124 -22.62890625 71.1484375 C-23.37498642 71.91202576 -24.12106659 72.67561401 -24.88975525 73.46234131 C-30.71616127 79.26499278 -36.58180763 83.90566946 -45.1953125 83.9765625 C-52.58187467 83.70643601 -56.88531451 80.59351218 -62.07421875 75.60546875 C-66.39702657 70.92850318 -68.05387529 66.8803839 -68.5703125 60.4765625 C-67.93000697 45.0510203 -51.33736483 33.2214477 -41.10498047 22.95849609 C-39.12134577 20.96503899 -37.14865319 18.96113342 -35.17578125 16.95703125 C-14.2869854 -4.10318266 -14.2869854 -4.10318266 0 0 Z " fill="#0C0C0C" transform="translate(1307.2578125,425.6484375)"/>
<path d="M0 0 C8.33706536 4.89422865 13.69313297 13.09632845 19.40429688 20.66845703 C21.64968766 23.62021713 23.9515808 26.52697975 26.25 29.4375 C27.16955839 30.60784704 28.08882971 31.77841969 29.0078125 32.94921875 C30.37757495 34.6938379 31.74933686 36.43666414 33.12792969 38.17431641 C47.76554048 56.63111771 47.76554048 56.63111771 47.2265625 66.80078125 C45.81478477 74.61184653 39.95693585 79.94282232 33.75 84.4375 C29.07840541 87.31389667 24.18046671 88.34431498 18.75 87.4375 C7.50717393 83.95288139 0.80980873 73.14561821 -5.92041016 64.19042969 C-8.1571698 61.24148841 -10.45594641 58.34192777 -12.75 55.4375 C-13.66950166 54.26580611 -14.58877299 53.09393142 -15.5078125 51.921875 C-17.32305862 49.60921269 -19.15287177 47.30917403 -20.9921875 45.015625 C-34.32414126 28.26409583 -34.32414126 28.26409583 -33.66015625 18.59375 C-31.93216305 9.50944288 -25.73697402 4.52852655 -18.4375 -0.5 C-12.35703804 -2.52682065 -5.91234003 -2.66860484 0 0 Z " fill="#0B0B0B" transform="translate(749.25,394.5625)"/>
<path d="M0 0 C3.25682722 3.25682722 4.90781453 6.58384001 5.55200195 11.1550293 C5.54796928 22.24408087 3.80941319 32.89327587 1.87182617 43.7878418 C1.31086263 46.94672031 0.77020993 50.10858627 0.23242188 53.27148438 C-0.12121594 55.31270477 -0.47599408 57.353728 -0.83203125 59.39453125 C-0.99153763 60.32393021 -1.15104401 61.25332916 -1.31538391 62.21089172 C-3.06224706 71.95120881 -4.76650787 81.4094688 -12.3125 88.375 C-18.29412327 92.46001102 -23.80363958 92.8653572 -30.875 92.125 C-38.64669915 90.34281064 -43.31257149 86.57099992 -47.875 80.125 C-53.16309102 69.54881796 -47.68735875 51.03212124 -45.62182617 40.09033203 C-45.05843242 37.10343526 -44.51862069 34.11298073 -43.98242188 31.12109375 C-43.62895079 29.18464954 -43.27417953 27.24844211 -42.91796875 25.3125 C-42.75846237 24.43625977 -42.59895599 23.56001953 -42.43461609 22.65722656 C-40.39406646 11.91374529 -38.32741052 3.56768133 -29.875 -3.875 C-20.16223701 -9.39361533 -8.63445462 -5.63116606 0 0 Z " fill="#0B0B0B" transform="translate(1095.875,315.875)"/>
<path d="M0 0 C10.39134666 3.85489628 19.93523422 8.87046844 25 19 C25.75 21.4375 25.75 21.4375 26 23 C26.99 22.34 27.98 21.68 29 21 C37.79077335 19.51003842 44.34797488 23.80136774 51.83007812 27.84472656 C55.44923259 29.77157613 59.13409337 31.56466263 62.8125 33.375 C66.32671246 35.10842668 69.73164775 36.8210985 73 39 C70.69 42.96 68.38 46.92 66 51 C60.87632929 50.14605488 58.49315852 49.45111209 54.15625 47.05859375 C53.07472656 46.47529297 51.99320313 45.89199219 50.87890625 45.29101562 C48.62465294 44.05443389 46.3720472 42.81484397 44.12109375 41.57226562 C43.03957031 40.99025391 41.95804688 40.40824219 40.84375 39.80859375 C39.86599609 39.27032959 38.88824219 38.73206543 37.88085938 38.17749023 C34.66024995 36.86113437 32.44719182 36.65048293 29 37 C25.79148569 39.47513961 23.95388566 42.48300581 22 46 C22.70125 46.26498291 23.4025 46.52996582 24.125 46.80297852 C27.19975747 48.08317008 30.06955052 49.56967209 33 51.15234375 C34.134375 51.76400391 35.26875 52.37566406 36.4375 53.00585938 C37.02273438 53.32321045 37.60796875 53.64056152 38.2109375 53.9675293 C39.9931965 54.93381137 41.77764324 55.89594824 43.5625 56.85742188 C48.43109173 59.48812116 53.27322123 62.12016225 58 65 C56.35821735 69.77609498 53.73453298 73.79382904 51 78 C46.69725263 76.68601607 42.94551425 75.02216512 39.01953125 72.83203125 C37.86912354 72.19362305 36.71871582 71.55521484 35.53344727 70.89746094 C34.29309237 70.20254381 33.05277764 69.50755499 31.8125 68.8125 C30.5184163 68.09229075 29.22405964 67.37257177 27.92944336 66.65332031 C24.59801373 64.8011308 21.26972499 62.9433727 17.94213867 61.08428955 C12.65335458 58.13157901 7.35708502 55.1922897 2.0625 52.25 C0.96486328 51.63930664 -0.13277344 51.02861328 -1.26367188 50.39941406 C-11.80854394 44.53731832 -22.39634856 38.75496627 -33 33 C-31.41451359 27.37790164 -28.7571653 22.59841451 -25.875 17.5625 C-25.42640625 16.74201172 -24.9778125 15.92152344 -24.515625 15.07617188 C-18.89590717 5.24166568 -11.89997138 -2.04871302 0 0 Z " fill="#0B0B0B" transform="translate(634,521)"/>
<path d="M0 0 C3.2017485 3.11327185 6.10799072 6.25951721 8.8125 9.8125 C9.41707031 10.60269531 10.02164062 11.39289063 10.64453125 12.20703125 C11.09183594 12.79871094 11.53914063 13.39039063 12 14 C10.32198863 17.86223846 7.79665363 20.98683446 5.1875 24.25 C4.70756592 24.85553711 4.22763184 25.46107422 3.7331543 26.08496094 C-1.11556651 32.18493945 -6.03683947 38.22646854 -10.9609375 44.265625 C-14.67181716 48.818937 -18.34271053 53.40352744 -22 58 C-20.19526416 58 -18.89058255 56.53724186 -17.484375 55.5 C-16.36385742 54.67471802 -16.36385742 54.67471802 -15.22070312 53.83276367 C-13.99770508 52.92554565 -13.99770508 52.92554565 -12.75 52 C-11.91404297 51.38294189 -11.07808594 50.76588379 -10.21679688 50.13012695 C-5.50473586 46.64011507 -0.82452258 43.11181397 3.828125 39.54296875 C4.77526367 38.81658203 5.72240234 38.09019531 6.69824219 37.34179688 C8.54569299 35.92127527 10.39017085 34.49687764 12.23144531 33.06835938 C13.07288086 32.42060547 13.91431641 31.77285156 14.78125 31.10546875 C15.52439453 30.52949951 16.26753906 29.95353027 17.03320312 29.36010742 C19 28 19 28 22 27 C24.31 30.3 26.62 33.6 29 37 C24.94507385 41.26959871 20.53770828 44.85064584 15.875 48.4375 C15.08585205 49.04803223 14.2967041 49.65856445 13.48364258 50.28759766 C7.16899177 55.1509702 0.76728013 59.88979503 -5.66479492 64.59619141 C-13.58869201 70.40332571 -21.39118703 76.36547082 -29.1953125 82.33203125 C-34.76867354 86.59265849 -40.37518127 90.80758853 -46 95 C-49.29856718 93.59864793 -51.13025638 92.01954321 -53.3125 89.1875 C-54.11107422 88.18783203 -54.11107422 88.18783203 -54.92578125 87.16796875 C-56 85 -56 85 -55.94140625 82.578125 C-54.72794861 79.25496299 -52.96133756 77.21943908 -50.625 74.5625 C-49.70517142 73.49769753 -48.78727259 72.43122565 -47.87109375 71.36328125 C-47.39526855 70.8110791 -46.91944336 70.25887695 -46.42919922 69.68994141 C-44.10239623 66.93863797 -41.89710236 64.09564497 -39.6875 61.25 C-34.55885439 54.67257406 -29.30884773 48.19894224 -24.0390625 41.734375 C-20.32818284 37.181063 -16.65728947 32.59647256 -13 28 C-13.47671143 28.35916504 -13.95342285 28.71833008 -14.44458008 29.08837891 C-18.74053971 32.31855698 -23.05805864 35.51699218 -27.39355469 38.69384766 C-36.31643062 45.23311156 -45.14529755 51.88237282 -53.8815918 58.66943359 C-58.43532208 62.17612051 -62.92450741 65.29764313 -68 68 C-70.31 65.03 -72.62 62.06 -75 59 C-73.06113957 55.12227913 -72.18246733 54.07469887 -68.87890625 51.6015625 C-68.03553711 50.96452393 -67.19216797 50.32748535 -66.32324219 49.67114258 C-65.41219727 48.99591553 -64.50115234 48.32068848 -63.5625 47.625 C-62.62180664 46.91819092 -61.68111328 46.21138184 -60.71191406 45.4831543 C-53.80570305 40.30581278 -46.85464194 35.18821968 -39.89355469 30.08496094 C-33.95165011 25.72358807 -28.08342763 21.27325388 -22.23950195 16.78173828 C-14.87455557 11.12337838 -7.44078505 5.55805613 0 0 Z " fill="#0B0B0B" transform="translate(1343,463)"/>
<path d="M0 0 C6.51804305 4.34956451 11.2432323 11.39375939 13.70703125 18.78515625 C14.64156711 29.65652915 14.39117057 38.6289902 7.70703125 47.78515625 C1.44240899 55.15458592 -5.9352677 59.04892066 -15.53125 60.16015625 C-25.22737848 60.52475803 -32.46287062 58.34923476 -40.04296875 52.28515625 C-46.7285904 45.81328449 -50.45099869 38.70248981 -50.94995117 29.38354492 C-51.05825569 21.49291126 -49.87874224 15.39720175 -45.29296875 8.78515625 C-44.71546875 7.87765625 -44.13796875 6.97015625 -43.54296875 6.03515625 C-30.84076348 -6.66704902 -15.76126453 -8.35051664 0 0 Z " fill="#0B0B0B" transform="translate(1018.29296875,594.21484375)"/>
<path d="M0 0 C5.41822771 1.09961143 10.00460221 4.06472406 14.8125 6.6875 C15.78509766 7.20505859 16.75769531 7.72261719 17.75976562 8.25585938 C25.86538943 12.66264063 32.96959624 16.74591906 36.32421875 25.671875 C38.9478558 34.71053212 35.65220778 41.41162737 31.29296875 49.36328125 C28.65406162 53.80251195 25.61646047 56.66662564 21 59 C20.21625 59.45375 19.4325 59.9075 18.625 60.375 C12.36618676 61.86519363 6.89258569 61.47243074 1 59 C1.06058594 59.94206299 1.12117187 60.88412598 1.18359375 61.85473633 C1.41000151 65.40128323 1.63325947 68.94800097 1.85449219 72.49487305 C1.95026583 74.02034149 2.04723902 75.54573518 2.14550781 77.07104492 C2.70209965 85.72377616 3.169273 94.32358325 3 103 C-3.15234375 100.75390625 -3.15234375 100.75390625 -5 99 C-5.38037109 97.16772461 -5.38037109 97.16772461 -5.58203125 94.9375 C-5.65687241 94.12825577 -5.73171356 93.31901154 -5.80882263 92.48524475 C-6.09689248 88.74042865 -6.33984177 84.99688109 -6.53515625 81.24609375 C-6.57813339 80.45977066 -6.62111053 79.67344757 -6.66539001 78.86329651 C-6.80013229 76.38815254 -6.93138024 73.91283824 -7.0625 71.4375 C-7.15406428 69.74412803 -7.24585914 68.05076852 -7.33789062 66.35742188 C-7.56125511 62.23842014 -7.78148923 58.11926195 -8 54 C-11.3 52.35 -14.6 50.7 -18 49 C-18.99 51.475 -18.99 51.475 -20 54 C-21.89767686 57.84907965 -23.8985429 61.64131832 -25.91259766 65.43066406 C-26.55638354 66.64768395 -27.19437939 67.86778364 -27.82666016 69.09082031 C-28.74376691 70.86424166 -29.68021818 72.62761719 -30.6171875 74.390625 C-31.44645752 75.9689209 -31.44645752 75.9689209 -32.29248047 77.57910156 C-34 80 -34 80 -36.03955078 80.94042969 C-38.96623514 81.02936007 -40.65274783 79.63003623 -43 78 C-33.81735581 60.66100714 -24.42764989 43.44161974 -14.74462891 26.37670898 C-9.7733855 17.61551521 -4.8751762 8.81493484 0 0 Z " fill="#0D0D0D" transform="translate(810,1044)"/>
<path d="M0 0 C3.58714995 1.07614499 6.88789195 2.38516822 10.21875 4.078125 C10.92966797 4.4380957 11.64058594 4.79806641 12.37304688 5.16894531 C13.17838867 5.58031738 13.17838867 5.58031738 14 6 C7.53444912 19.79685929 0.88728627 33.50355546 -5.79467773 47.1965332 C-7.53499664 50.76398903 -9.26176927 54.33782365 -10.98547363 57.91333008 C-12.00303308 60.00623842 -13.04071436 62.08825989 -14.08105469 64.16992188 C-14.72897896 65.49326283 -15.37646009 66.81682087 -16.0234375 68.140625 C-16.59755371 69.29594727 -17.17166992 70.45126953 -17.76318359 71.64160156 C-19.13031767 75.35385903 -19.35844558 78.0745106 -19 82 C-16.87346639 84.44157562 -15.64765539 84.93681411 -12.4375 85.25 C-9.86312853 85.07536753 -9.86312853 85.07536753 -7 84 C-5.96619303 81.82359304 -5.96619303 81.82359304 -5 79 C-3.75102126 76.2862516 -2.42180459 73.61131532 -1.10546875 70.9296875 C-0.72125763 70.14317307 -0.33704651 69.35665863 0.05880737 68.54631042 C0.88215745 66.86116659 1.70627769 65.17639886 2.53109741 63.49197388 C4.68324665 59.09669765 6.82974582 54.69866391 8.9765625 50.30078125 C9.40436508 49.42471725 9.83216766 48.54865326 10.27293396 47.64604187 C15.89791253 36.12110786 21.45440629 24.56331433 27 13 C31.81714842 14.51474072 35.69304252 16.41582551 40 19 C39.37228184 23.36740285 37.78548786 26.76089858 35.7890625 30.6796875 C35.46500931 31.32086014 35.14095612 31.96203278 34.80708313 32.62263489 C34.11213801 33.99649628 33.41455201 35.36902445 32.71456909 36.74032593 C30.87443178 40.34550658 29.05296104 43.96009473 27.23046875 47.57421875 C26.86653519 48.29485001 26.50260162 49.01548126 26.12763977 49.75794983 C22.97043848 56.02383071 19.93480938 62.34364357 16.9375 68.6875 C4.07507516 95.6929528 4.07507516 95.6929528 -6 100 C-14.34159045 101.571604 -21.08213722 98.48588148 -28 94 C-32.14587484 90.41170486 -34.51756837 85.97236285 -35.39526367 80.56469727 C-35.67104091 72.27636653 -32.96372733 66.26010435 -29.3125 58.9375 C-28.72199604 57.71526546 -28.13324164 56.49218427 -27.54614258 55.26831055 C-25.72763282 51.49702008 -23.86694398 47.74749001 -22 44 C-21.12746582 42.23994629 -21.12746582 42.23994629 -20.23730469 40.44433594 C-17.49936873 34.92946208 -14.7405525 29.42563349 -11.96484375 23.9296875 C-8.95154823 17.94171608 -6.07179421 11.8975077 -3.27026367 5.80786133 C-1.09440352 1.09440352 -1.09440352 1.09440352 0 0 Z " fill="#0B0B0B" transform="translate(1172,338)"/>
<path d="M0 0 C1.44556333 2.64965602 2.60333296 5.14761516 3.72265625 7.93359375 C4.23607071 9.1589106 4.23607071 9.1589106 4.75985718 10.40898132 C5.87502629 13.07946479 6.9687703 15.75817314 8.0625 18.4375 C8.82219686 20.26801874 9.58335106 22.09793333 10.34594727 23.92724609 C11.86556991 27.5770611 13.3776862 31.22984016 14.88378906 34.88525391 C16.72466238 39.34607073 18.59640836 43.79273986 20.4921875 48.23046875 C21.2500354 50.00562866 21.2500354 50.00562866 22.02319336 51.81665039 C22.48991455 52.90840576 22.95663574 54.00016113 23.4375 55.125 C31.31346347 73.55110464 31.31346347 73.55110464 30 83 C27.54321838 89.10134609 23.51531678 93.4056516 17.51953125 96.125 C10.67050944 98.84571487 5.218659 100.31833094 -2 98.0625 C-12.71345004 90.6970031 -16.56857274 79.77218988 -21.25 68.1875 C-21.98706183 66.39997739 -22.7259297 64.61319848 -23.46655273 62.82714844 C-24.58255192 60.13374183 -25.69671716 57.43969039 -26.80345154 54.74246216 C-29.06555225 49.22952504 -31.38242493 43.7450894 -33.76953125 38.28515625 C-34.05478668 37.63101242 -34.34004211 36.97686859 -34.63394165 36.30290222 C-35.94820224 33.29164889 -37.26871927 30.28331568 -38.59667969 27.27807617 C-39.05075195 26.23240479 -39.50482422 25.1867334 -39.97265625 24.109375 C-40.36718994 23.21186523 -40.76172363 22.31435547 -41.16821289 21.38964844 C-42 19 -42 19 -42 15 C-37.71 13.35 -33.42 11.7 -29 10 C-24.85905552 18.05939044 -21.12796765 26.18173954 -17.67596436 34.5579834 C-16.56963086 37.24039742 -15.45172485 39.91794198 -14.33462524 42.59588623 C-13.46695727 44.67617318 -12.60057785 46.75699325 -11.734375 48.83789062 C-9.22339589 54.86607641 -6.70496544 60.89091408 -4.15582275 66.90307617 C-3.38868992 68.71761845 -2.62957225 70.53554261 -1.87060547 72.35351562 C-1.40541504 73.44857422 -0.94022461 74.54363281 -0.4609375 75.671875 C-0.05665527 76.6319043 0.34762695 77.59193359 0.76416016 78.58105469 C1.96862847 80.9385956 2.87213184 82.43307312 5 84 C10.04565002 83.80862516 10.04565002 83.80862516 14 81 C15.16607732 72.95310279 11.61968889 66.41282133 8.4375 59.1875 C7.85835053 57.84200518 7.28066199 56.49588071 6.7043457 55.14916992 C5.15074004 51.5282696 3.5802228 47.91497189 2.00463867 44.30358887 C-0.77718581 37.92499715 -3.54209913 31.53911813 -6.29977417 25.15005493 C-7.3011268 22.83875142 -8.31225881 20.53190987 -9.32446289 18.2253418 C-9.94188297 16.80270783 -10.55900435 15.37994418 -11.17578125 13.95703125 C-11.46265808 13.31045563 -11.74953491 12.66388 -12.04510498 11.99771118 C-13.47035117 8.68528108 -14 6.68881064 -14 3 C-12.42274653 2.29866401 -10.83788667 1.614417 -9.25 0.9375 C-8.36828125 0.55464844 -7.4865625 0.17179687 -6.578125 -0.22265625 C-3.74311918 -1.07745346 -2.71438688 -1.05496249 0 0 Z " fill="#0B0B0B" transform="translate(849,333)"/>
<path d="M0 0 C4.26634081 2.6118557 7.3319039 6.4907535 9 11.203125 C9.89062549 16.50976854 9.42454759 22.08636001 9.375 27.4375 C4.755 27.4375 0.135 27.4375 -4.625 27.4375 C-4.8203125 24.37760417 -5.015625 21.31770833 -5.2109375 18.2578125 C-5.35753491 15.30703526 -5.35753491 15.30703526 -7.625 13.4375 C-13.0243251 12.751429 -13.0243251 12.751429 -17.625 15 C-19.6069285 19.83095073 -19.02184703 23.98742926 -17.1875 28.75 C-14.40829049 34.53429117 -10.02947567 38.85221662 -5.625 43.4375 C4.08905811 53.71493933 7.92452925 61.38077656 7.65625 75.66015625 C7.17411105 82.13555017 5.07763326 86.3207127 1.0625 91.3125 C-6.29288517 97.12838595 -13.43268832 97.39171921 -22.625 96.4375 C-28.00197234 94.90122219 -31.67554133 92.24402523 -34.625 87.4375 C-38.15874541 80.37000918 -37.87045066 74.29192123 -37.625 66.4375 C-32.675 66.4375 -27.725 66.4375 -22.625 66.4375 C-22.4296875 69.7578125 -22.234375 73.078125 -22.0390625 76.3984375 C-21.92282654 79.54312319 -21.92282654 79.54312319 -19.625 81.4375 C-17.48681539 81.79359192 -17.48681539 81.79359192 -15.125 81.75 C-13.93390625 81.77513672 -13.93390625 81.77513672 -12.71875 81.80078125 C-12.0278125 81.68089844 -11.336875 81.56101562 -10.625 81.4375 C-7.48444808 76.72667211 -7.9636217 71.94664048 -8.625 66.4375 C-11.48449036 58.56696099 -19.02018457 52.2892206 -24.62109375 46.3046875 C-31.91052321 38.30982939 -35.00909051 30.90359096 -34.83203125 20.0546875 C-34.24321641 12.61117917 -31.4333669 7.59764068 -26.5390625 2.06640625 C-20.01963348 -3.48176089 -7.63033488 -3.39936525 0 0 Z " fill="#0C0C0C" transform="translate(1032.625,305.5625)"/>
<path d="M0 0 C6.11826288 4.15335922 9.3584965 10.53339926 12.59375 17.00390625 C13.4120409 23.29305632 12.87255186 27.9866658 9.1484375 33.18359375 C4.95858544 38.08929993 0.98934525 41.44400497 -5.40625 43.00390625 C-6.43945481 41.40767969 -7.45747429 39.80161519 -8.46875 38.19140625 C-9.03722656 37.29808594 -9.60570312 36.40476562 -10.19140625 35.484375 C-11.40625 33.00390625 -11.40625 33.00390625 -10.40625 30.00390625 C-8.55859375 28.3984375 -8.55859375 28.3984375 -6.34375 26.81640625 C-5.24353516 26.02169922 -5.24353516 26.02169922 -4.12109375 25.2109375 C-3.55519531 24.81261719 -2.98929688 24.41429687 -2.40625 24.00390625 C-2.73585216 18.98855573 -2.73585216 18.98855573 -5.40625 15.00390625 C-9.53374454 14.52765688 -11.86950744 14.73027279 -15.59375 16.62890625 C-22.97959898 22.86584539 -24.30465853 30.96061588 -26.67382812 39.97460938 C-30.2066006 52.85265639 -35.41241003 61.17153877 -47.09375 67.94140625 C-53.06814434 70.73007254 -58.93529043 70.92214148 -65.40625 70.00390625 C-71.67624166 67.15391004 -75.84552335 61.65714155 -79.28125 55.81640625 C-81.1791594 49.38460216 -81.71432821 42.89257897 -78.90625 36.69140625 C-74.67655607 32.14448527 -70.24160073 27.40392954 -64.40625 25.00390625 C-63.41625 25.00390625 -62.42625 25.00390625 -61.40625 25.00390625 C-59.42625 28.96390625 -57.44625 32.92390625 -55.40625 37.00390625 C-57.71744792 38.53385417 -60.02864583 40.06380208 -62.33984375 41.59375 C-64.30610925 42.84193606 -64.30610925 42.84193606 -65.40625 44.00390625 C-65.69176032 47.21589735 -65.66912757 49.41629755 -64.34375 52.37890625 C-62.39519288 54.29979703 -62.39519288 54.29979703 -59.09375 54.50390625 C-53.8089672 53.78732553 -50.89152184 51.64760709 -47.35546875 47.734375 C-45.26937301 44.81216874 -44.37083845 42.44886499 -43.40625 39.00390625 C-43.07367187 37.86308594 -42.74109375 36.72226562 -42.3984375 35.546875 C-41.7520171 33.23859429 -41.11111175 30.92875978 -40.4765625 28.6171875 C-36.62056834 15.15307568 -31.21683584 7.25637088 -19.15625 0.06640625 C-12.91093763 -1.70309892 -6.14326955 -2.54307424 0 0 Z " fill="#0C0C0C" transform="translate(1384.40625,522.99609375)"/>
<path d="M0 0 C3.49954424 2.20084652 5.4795454 4.31697435 7.7578125 7.734375 C4.7878125 10.704375 1.8178125 13.674375 -1.2421875 16.734375 C-5.2421875 14.734375 -5.2421875 14.734375 -7.5546875 13.046875 C-11.19114754 11.2709294 -13.38463218 11.71539812 -17.2421875 12.734375 C-19.42256845 16.00494643 -19.87465505 16.93956969 -19.2421875 20.734375 C-15.41632625 25.3254085 -11.69694129 28.50384015 -5.65209961 29.0715332 C-4.27452374 29.07242438 -2.8968915 29.05954471 -1.51953125 29.03515625 C0.00456159 29.04280658 1.5286504 29.05129788 3.05273438 29.06054688 C5.42667841 29.05835217 7.79979741 29.0471155 10.17358398 29.01928711 C22.30348701 28.90881903 30.87581089 30.42008804 40.79296875 38.078125 C46.20848234 43.8379776 49.81509486 47.96824429 50.1953125 56.109375 C49.95524655 63.49140301 47.40502942 68.1961894 42.4453125 73.546875 C37.1083711 78.49937571 31.62035409 80.43940676 24.3828125 80.21875 C17.29711156 78.91126947 11.42174313 74.02016304 6.7578125 68.734375 C8.16625968 65.51913195 9.86126036 63.41253632 12.3828125 60.984375 C13.01445313 60.37078125 13.64609375 59.7571875 14.296875 59.125 C15.02003906 58.43664062 15.02003906 58.43664062 15.7578125 57.734375 C17.07104038 58.71256524 18.38337402 59.6919561 19.6953125 60.671875 C20.42621094 61.21714844 21.15710938 61.76242187 21.91015625 62.32421875 C23.7578125 63.734375 23.7578125 63.734375 24.7578125 64.734375 C29.78280944 64.44968297 29.78280944 64.44968297 33.7578125 61.734375 C34.23187896 58.57393193 34.49249842 56.75163472 33.7578125 53.734375 C30.328613 49.20822696 26.13117587 47.256525 20.7578125 45.734375 C18.35117849 45.55674734 15.93659009 45.47248817 13.5234375 45.4609375 C12.13020045 45.440638 10.73697135 45.41978702 9.34375 45.3984375 C7.18059541 45.37595555 5.01775784 45.35940206 2.85449219 45.35351562 C-9.59198316 45.29660444 -19.03814554 43.80030213 -28.32421875 34.859375 C-33.64674824 28.96231585 -34.99306165 23.56526036 -34.68359375 15.62890625 C-33.45963153 7.60274691 -27.52721032 2.37423847 -21.2421875 -2.265625 C-13.60064972 -6.55234132 -7.21028114 -3.79488481 0 0 Z " fill="#0B0B0B" transform="translate(708.2421875,435.265625)"/>
<path d="M0 0 C3.43950364 0.61198376 5.51564485 1.92058847 8.25 4.0625 C8.95640625 4.61035156 9.6628125 5.15820312 10.390625 5.72265625 C10.92171875 6.14417969 11.4528125 6.56570313 12 7 C10.65526607 9.88648238 9.11833701 12.29023261 7.14453125 14.78515625 C6.60505859 15.48060547 6.06558594 16.17605469 5.50976562 16.89257812 C4.37190365 18.34731306 3.22859947 19.79780653 2.08007812 21.24414062 C1.54447266 21.93830078 1.00886719 22.63246094 0.45703125 23.34765625 C-0.03821045 23.97679932 -0.53345215 24.60594238 -1.04370117 25.25415039 C-1.35927979 25.83028076 -1.6748584 26.40641113 -2 27 C-0.89014746 30.32955762 -0.22791603 30.85884921 2.4921875 32.8828125 C3.19730469 33.41003906 3.90242187 33.93726563 4.62890625 34.48046875 C5.74072266 35.29451172 5.74072266 35.29451172 6.875 36.125 C7.60847656 36.67542969 8.34195313 37.22585938 9.09765625 37.79296875 C13.26604806 40.91133728 13.26604806 40.91133728 18 43 C18.24492188 42.45859375 18.48984375 41.9171875 18.7421875 41.359375 C20.29353788 38.44938857 22.16714304 35.9025804 24.125 33.25 C24.84945312 32.26515625 25.57390625 31.2803125 26.3203125 30.265625 C27.15175781 29.14414062 27.15175781 29.14414062 28 28 C31.43950364 28.61198376 33.51564485 29.92058847 36.25 32.0625 C36.95640625 32.61035156 37.6628125 33.15820312 38.390625 33.72265625 C38.92171875 34.14417969 39.4528125 34.56570313 40 35 C36.57247434 41.4266106 32.34653016 47.16594374 28 53 C28.57290771 53.26659424 29.14581543 53.53318848 29.73608398 53.80786133 C32.09500837 55.05002975 34.09797569 56.46590532 36.22265625 58.07421875 C37.00833984 58.65880859 37.79402344 59.24339844 38.60351562 59.84570312 C40.25097346 61.07966082 41.89417995 62.31931378 43.53320312 63.56445312 C44.70979492 64.43553711 44.70979492 64.43553711 45.91015625 65.32421875 C46.97955444 66.1299231 46.97955444 66.1299231 48.07055664 66.9519043 C49.0256311 67.47071167 49.0256311 67.47071167 50 68 C53.51081985 66.82972672 54.04938227 65.92018154 56.13671875 62.96484375 C56.71357422 62.15595703 57.29042969 61.34707031 57.88476562 60.51367188 C58.47966797 59.66353516 59.07457031 58.81339844 59.6875 57.9375 C60.29400391 57.08349609 60.90050781 56.22949219 61.52539062 55.34960938 C63.02374442 53.23775639 64.51489073 51.1211778 66 49 C69.01613927 50.46387712 71.58559431 52.08228897 74.25 54.125 C74.95640625 54.66382813 75.6628125 55.20265625 76.390625 55.7578125 C76.92171875 56.16773438 77.4528125 56.57765625 78 57 C73.94958181 63.55528207 69.25938373 69.48590657 64.41210938 75.45556641 C60.64400464 80.12303953 57.15611433 84.89207813 54 90 C50.92006257 88.57628404 48.36504973 86.87083877 45.68359375 84.796875 C44.84699219 84.15363281 44.01039063 83.51039063 43.1484375 82.84765625 C42.25382813 82.15542969 41.35921875 81.46320313 40.4375 80.75 C33.50953299 75.42741017 26.55139842 70.15800892 19.5 65 C10.85081818 58.66486166 2.32144419 52.1795999 -6.1953125 45.66796875 C-11.76867354 41.40734151 -17.37518127 37.19241147 -23 33 C-21.737051 29.50666408 -20.30606779 26.82257525 -17.98828125 23.92578125 C-17.39805176 23.17989746 -16.80782227 22.43401367 -16.19970703 21.66552734 C-15.57692871 20.88902832 -14.95415039 20.1125293 -14.3125 19.3125 C-9.32392188 13.00570318 -4.47030771 6.6886559 0 0 Z " fill="#0C0C0C" transform="translate(656,467)"/>
<path d="M0 0 C0.495 6.435 0.495 6.435 1 13 C-7.2519027 15.06297567 -15.5653016 16.02716362 -24 17 C-23.90912109 17.61520508 -23.81824219 18.23041016 -23.72460938 18.86425781 C-23.31345112 21.65907971 -22.90668141 24.45452331 -22.5 27.25 C-22.35691406 28.21808594 -22.21382812 29.18617188 -22.06640625 30.18359375 C-21.93105469 31.11816406 -21.79570313 32.05273438 -21.65625 33.015625 C-21.53056641 33.87446289 -21.40488281 34.73330078 -21.27539062 35.61816406 C-21 38 -21 38 -21 42 C-19.81921875 41.7834375 -18.6384375 41.566875 -17.421875 41.34375 C-15.86461627 41.0623177 -14.30732276 40.78107777 -12.75 40.5 C-11.97269531 40.35691406 -11.19539062 40.21382813 -10.39453125 40.06640625 C-9.26337891 39.86337891 -9.26337891 39.86337891 -8.109375 39.65625 C-7.41811523 39.53056641 -6.72685547 39.40488281 -6.01464844 39.27539062 C-4 39 -4 39 0 39 C0.495 45.93 0.495 45.93 1 53 C-5.77963825 54.11829085 -12.11985742 55.14023221 -19 55 C-18.87882813 55.77190674 -18.75765625 56.54381348 -18.6328125 57.33911133 C-18.08618951 60.8298773 -17.54305391 64.32117709 -17 67.8125 C-16.80921875 69.02744141 -16.6184375 70.24238281 -16.421875 71.49414062 C-16.15117188 73.23920898 -16.15117188 73.23920898 -15.875 75.01953125 C-15.70742188 76.09307861 -15.53984375 77.16662598 -15.3671875 78.27270508 C-15 81 -15 81 -15 84 C-12.16658768 83.68820356 -9.33327045 83.37558083 -6.5 83.0625 C-5.70851563 82.97548828 -4.91703125 82.88847656 -4.1015625 82.79882812 C0.93815103 82.24115491 5.97010066 81.64027388 11 81 C11.84729143 84.28325429 12.05569585 87.32093468 12.03125 90.69140625 C12.02673828 91.49908447 12.02222656 92.3067627 12.01757812 93.13891602 C12.01177734 93.75307373 12.00597656 94.36723145 12 95 C7.26856974 95.71769315 2.53631531 96.42958349 -2.19677734 97.13623047 C-3.80508682 97.37716965 -5.41316442 97.61966222 -7.02099609 97.86376953 C-9.33891783 98.21540472 -11.65763013 98.56135055 -13.9765625 98.90625 C-14.68930328 99.0156189 -15.40204407 99.12498779 -16.13638306 99.2376709 C-20.12243665 99.82424577 -23.97086267 100.20587394 -28 100 C-29.56846521 98.43153479 -29.40881058 96.69968194 -29.69262695 94.52563477 C-29.81991684 93.56768509 -29.94720673 92.60973541 -30.07835388 91.62275696 C-30.21362991 90.57291122 -30.34890594 89.52306549 -30.48828125 88.44140625 C-30.63157364 87.35808517 -30.77486603 86.2747641 -30.92250061 85.15861511 C-31.38934728 81.62703026 -31.85085549 78.09476827 -32.3125 74.5625 C-32.94326564 69.77689621 -33.57781675 64.99180543 -34.21484375 60.20703125 C-34.37007507 59.04058075 -34.5253064 57.87413025 -34.6852417 56.67233276 C-35.92395543 47.42845006 -37.26594563 38.20671292 -38.8449707 29.01391602 C-40.16206734 21.0460442 -40.58298119 13.05564431 -41 5 C-36.44796398 4.28012889 -31.89475854 3.56835877 -27.34033203 2.86376953 C-25.79409419 2.62343004 -24.24818642 2.38095619 -22.70263672 2.13623047 C-20.46927866 1.78298791 -18.23480996 1.43767255 -16 1.09375 C-15.31945557 0.9843811 -14.63891113 0.87501221 -13.93774414 0.7623291 C-9.22668049 0.04787816 -4.74782307 -0.09273092 0 0 Z " fill="#0C0C0C" transform="translate(962,306)"/>
<path d="M0 0 C5.73438084 2.97970533 9.02443495 7.43753886 12.8125 12.5 C13.42561035 13.30445557 14.0387207 14.10891113 14.67041016 14.93774414 C16.45601237 17.28513259 18.22915745 19.64146783 20 22 C20.8756985 23.15540563 21.75192511 24.31041138 22.62890625 25.46484375 C38.55125934 46.53773193 38.55125934 46.53773193 38.47265625 55.10546875 C37.53793316 60.82968205 33.6238001 63.96439245 29.22265625 67.37890625 C25.11140047 70.05448541 21.80542516 70.60067815 17 70 C10.3540755 67.93638944 7.47417806 64.52894036 3.4375 59 C2.84396729 58.21125488 2.25043457 57.42250977 1.63891602 56.60986328 C-0.25545462 54.0838698 -2.12762054 51.54232222 -4 49 C-5.28011024 47.28820958 -6.56135413 45.57726631 -7.84375 43.8671875 C-24.02111275 22.18303792 -24.02111275 22.18303792 -23.6171875 14.4609375 C-22.46249256 9.85677415 -19.47209248 7.06901861 -16 4 C-15.071875 3.175 -14.14375 2.35 -13.1875 1.5 C-8.81634661 -0.55701336 -4.74476451 -0.98367069 0 0 Z " fill="#777777" transform="translate(1233,1029)"/>
<path d="M0 0 C4.1317874 1.468392 7.48473572 3.50666056 11.11328125 5.95703125 C11.97314888 6.53429207 11.97314888 6.53429207 12.85038757 7.12321472 C14.67407302 8.34861595 16.49344553 9.58023729 18.3125 10.8125 C20.70311372 12.42513175 23.09543257 14.03521809 25.48828125 15.64453125 C26.05837921 16.02852081 26.62847717 16.41251038 27.21585083 16.80813599 C31.42236107 19.63372696 35.67892325 22.35367598 40 25 C39.23570339 26.44098611 38.46327445 27.87766054 37.6875 29.3125 C37.25824219 30.11300781 36.82898437 30.91351563 36.38671875 31.73828125 C35.09940446 33.83787272 33.81593292 35.35447721 32 37 C31.24074219 36.48308594 30.48148438 35.96617187 29.69921875 35.43359375 C28.70535156 34.77488281 27.71148438 34.11617188 26.6875 33.4375 C25.70136719 32.77621094 24.71523437 32.11492187 23.69921875 31.43359375 C22.80847656 30.96050781 21.91773438 30.48742187 21 30 C17.27258565 31.24247145 16.85143202 32.36855915 14.8046875 35.65234375 C14.17965332 36.64379395 13.55461914 37.63524414 12.91064453 38.65673828 C12.23888184 39.73938965 11.56711914 40.82204102 10.875 41.9375 C9.80291636 43.63958363 8.73079942 45.34164723 7.65682983 47.0425415 C6.91033716 48.22503384 6.16476733 49.40810922 5.42007446 50.59173584 C1.39450616 56.98393156 -2.73362941 63.30742706 -6.875 69.625 C-7.93956421 71.25078979 -7.93956421 71.25078979 -9.02563477 72.90942383 C-14.30860603 80.96763856 -19.62775624 89.00103264 -25 97 C-28.3523301 95.74361009 -31.30402615 94.31266112 -34.3125 92.375 C-35.35857422 91.70597656 -35.35857422 91.70597656 -36.42578125 91.0234375 C-36.94527344 90.68570313 -37.46476562 90.34796875 -38 90 C-36.67691649 86.41377875 -35.08572507 83.37015891 -32.98046875 80.18359375 C-32.07530518 78.80554565 -32.07530518 78.80554565 -31.15185547 77.3996582 C-30.50361816 76.422146 -29.85538086 75.44463379 -29.1875 74.4375 C-27.81882297 72.35689413 -26.45033669 70.27616276 -25.08203125 68.1953125 C-24.39447754 67.1527832 -23.70692383 66.11025391 -22.99853516 65.03613281 C-20.10510871 60.64049987 -17.23868238 56.22754618 -14.375 51.8125 C-11.04006521 46.67211302 -7.69837664 41.53651455 -4.3359375 36.4140625 C-3.73604004 35.49778076 -3.13614258 34.58149902 -2.51806641 33.63745117 C-1.36419876 31.87542103 -0.20773949 30.11508452 0.95166016 28.35668945 C1.46776855 27.56738037 1.98387695 26.77807129 2.515625 25.96484375 C3.20060059 24.92251587 3.20060059 24.92251587 3.89941406 23.85913086 C5.1546199 21.8880679 5.1546199 21.8880679 6 19 C5.319375 18.773125 4.63875 18.54625 3.9375 18.3125 C0.20385676 16.64427643 -2.72163421 14.44270392 -6 12 C-4.43358249 7.69235185 -2.31663844 3.93828536 0 0 Z " fill="#0C0C0C" transform="translate(1225,364)"/>
<path d="M0 0 C1.29243536 4.1196377 2.26252625 7.66831683 2 12 C0.60764957 12.50961846 -0.78909118 13.00724909 -2.1875 13.5 C-2.96480469 13.7784375 -3.74210938 14.056875 -4.54296875 14.34375 C-7.13805606 15.03687348 -9.32732563 15.04671827 -12 15 C-8.59782263 28.90461698 -5.16275228 42.77320953 -1.13916016 56.51269531 C0.87763172 63.44176748 2.65878451 70.41687655 4.35205078 77.43164062 C5.17228865 80.8081811 6.02942925 84.08798332 7.1328125 87.38671875 C8.02848479 90.08583929 8.16604433 92.17724636 8 95 C6.60550891 95.483059 5.20933293 95.96125517 3.8125 96.4375 C3.03519531 96.70433594 2.25789062 96.97117187 1.45703125 97.24609375 C-1.01309856 98.00401911 -3.45992864 98.53529778 -6 99 C-7.1080111 95.1529304 -8.20742459 91.3034754 -9.30224609 87.45263672 C-9.79379418 85.72482285 -10.28640562 83.99731132 -10.77978516 82.27001953 C-14.64385924 68.72199176 -18.27571665 55.14043604 -21.64453125 41.4609375 C-23.33290895 34.6142254 -25.14642954 27.80369393 -27 21 C-27.87914062 21.15339844 -28.75828125 21.30679687 -29.6640625 21.46484375 C-32.57061875 21.931118 -35.44567747 22.28540192 -38.375 22.5625 C-39.24898437 22.64628906 -40.12296875 22.73007812 -41.0234375 22.81640625 C-41.67570313 22.87699219 -42.32796875 22.93757813 -43 23 C-43.50512244 21.39743892 -44.00391627 19.79288208 -44.5 18.1875 C-44.7784375 17.29417969 -45.056875 16.40085937 -45.34375 15.48046875 C-46 13 -46 13 -46 10 C-38.43451773 7.94581915 -30.86551714 5.90519644 -23.29199219 3.88085938 C-21.28157619 3.34291953 -19.27167547 2.80304317 -17.26269531 2.25976562 C-15.05252048 1.66358238 -12.83963264 1.07935989 -10.625 0.5 C-9.42101562 0.1803125 -8.21703125 -0.139375 -6.9765625 -0.46875 C-4.15906161 -0.97161105 -2.64415169 -0.98992871 0 0 Z " fill="#0C0C0C" transform="translate(907,316)"/>
<path d="M0 0 C5.27207486 0.42176599 9.28035231 1.78465517 14 4 C12.55379464 11.12105975 10.51672555 17.90503929 8.2265625 24.796875 C7.86154633 25.90750305 7.49653015 27.0181311 7.12045288 28.16241455 C5.95935132 31.69295878 4.79245817 35.22155321 3.625 38.75 C2.46575438 42.26450758 1.30776001 45.77942203 0.15097046 49.29473877 C-0.566421 51.47363197 -1.28536206 53.65201587 -2.00619507 55.82977295 C-3.01376699 58.88348391 -4.0103721 61.94042799 -5 65 C-5.37650696 66.1610022 -5.75301392 67.32200439 -6.14093018 68.51818848 C-6.50772888 69.67395386 -6.87452759 70.82971924 -7.25244141 72.02050781 C-7.58724518 73.069422 -7.92204895 74.11833618 -8.26699829 75.19903564 C-9.16878038 78.16239977 -9.16878038 78.16239977 -9 82 C-8.39937744 82.19110352 -7.79875488 82.38220703 -7.17993164 82.57910156 C-4.46830255 83.45241375 -1.76564457 84.35078694 0.9375 85.25 C1.88302734 85.55035156 2.82855469 85.85070312 3.80273438 86.16015625 C5.15141602 86.61455078 5.15141602 86.61455078 6.52734375 87.078125 C7.35999756 87.35043945 8.19265137 87.62275391 9.05053711 87.90332031 C11 89 11 89 11.81445312 90.95898438 C12.06150952 93.67660469 11.41233045 95.66651544 10.5625 98.25 C10.27503906 99.14203125 9.98757813 100.0340625 9.69140625 100.953125 C9.46324219 101.62859375 9.23507812 102.3040625 9 103 C1.69554577 101.16643292 -5.33391351 98.85515326 -12.40625 96.2734375 C-17.88203444 94.33310519 -23.43254052 92.65544061 -29 91 C-28.40783765 85.97181667 -27.33296431 81.49150402 -25.73095703 76.6628418 C-25.50154419 75.96587189 -25.27213135 75.26890198 -25.0357666 74.55081177 C-24.28193897 72.26509051 -23.51988736 69.9822021 -22.7578125 67.69921875 C-22.22778862 66.09668482 -21.69832814 64.49396444 -21.16940308 62.8910675 C-19.77827829 58.67974272 -18.38034884 54.47070963 -16.98071289 50.26220703 C-14.74621134 43.5389393 -12.52295969 36.81193942 -10.29806137 30.08548927 C-9.5249222 27.75088395 -8.74942569 25.41707339 -7.97341919 23.0834198 C-7.49126818 21.6308229 -7.0093962 20.17813335 -6.52783203 18.7253418 C-6.30163744 18.04306361 -6.07544285 17.36078543 -5.84239388 16.65783215 C-4.31740035 12.03127026 -2.88903254 7.38460292 -1.56027222 2.69807434 C-1 1 -1 1 0 0 Z " fill="#0C0C0C" transform="translate(1121,321)"/>
<path d="M0 0 C5.73473209 3.42372065 9.42782614 7.37421609 11.54296875 13.78125 C12.28631828 19.09540832 12.11283507 23.96275066 9.54296875 28.78125 C7.23296875 28.45125 4.92296875 28.12125 2.54296875 27.78125 C2.57777344 27.06839844 2.61257813 26.35554688 2.6484375 25.62109375 C2.90396218 17.22668277 2.90396218 17.22668277 -0.45703125 9.78125 C-6.51330305 6.09335265 -13.34423204 3.84997268 -20.45703125 4.78125 C-26.09010357 7.38112953 -28.24163727 11.21071982 -30.45703125 16.78125 C-31.80086458 21.30318435 -32.88523769 25.8756986 -33.95703125 30.46875 C-35.90806797 38.69606694 -37.9828213 46.78150603 -40.66235352 54.8059082 C-42.22063232 60.6402381 -42.84782431 67.02330342 -40.078125 72.515625 C-37.71363439 75.82021429 -35.11022554 77.26167465 -31.26953125 78.46875 C-25.92104313 79.06302646 -20.69710863 79.60910468 -15.58203125 77.71875 C-9.87679114 72.51691343 -7.84521992 65.17440631 -6.45703125 57.78125 C-6.45703125 55.80125 -6.45703125 53.82125 -6.45703125 51.78125 C-10.41703125 50.79125 -14.37703125 49.80125 -18.45703125 48.78125 C-18.12703125 46.47125 -17.79703125 44.16125 -17.45703125 41.78125 C-14.14762275 40.67811383 -13.26220831 40.88183886 -10.0078125 41.77734375 C-9.16025391 42.00615234 -8.31269531 42.23496094 -7.43945312 42.47070312 C-6.55837891 42.71755859 -5.67730469 42.96441406 -4.76953125 43.21875 C-3.43051758 43.58323242 -3.43051758 43.58323242 -2.06445312 43.95507812 C0.14018497 44.55634306 2.3423922 45.16531657 4.54296875 45.78125 C3.91639403 51.7337098 2.78661674 57.36471716 1.29296875 63.15625 C1.07552002 64.0131543 0.85807129 64.87005859 0.6340332 65.75292969 C-1.59542238 74.46611213 -4.00151067 83.12945835 -6.45703125 91.78125 C-7.44703125 91.78125 -8.43703125 91.78125 -9.45703125 91.78125 C-10.11703125 89.14125 -10.77703125 86.50125 -11.45703125 83.78125 C-12.00230469 84.07 -12.54757812 84.35875 -13.109375 84.65625 C-21.02741728 88.55436312 -26.76678905 88.87121527 -35.14453125 86.09375 C-41.83652839 83.41134332 -46.80867335 80.03621833 -49.75 73.21484375 C-53.54299049 60.15941241 -48.0661492 46.56371437 -44.40625 34.06689453 C-43.50831356 30.9587596 -42.66034853 27.84215357 -41.83203125 24.71484375 C-41.33226883 22.86191507 -40.83228144 21.00904705 -40.33203125 19.15625 C-40.11530762 18.32279053 -39.89858398 17.48933105 -39.67529297 16.63061523 C-37.90295942 10.2513882 -35.4317812 4.34738045 -30.32421875 -0.05859375 C-29.66679688 -0.42082031 -29.009375 -0.78304688 -28.33203125 -1.15625 C-27.66945313 -1.53652344 -27.006875 -1.91679688 -26.32421875 -2.30859375 C-17.72661851 -6.4994742 -8.19224283 -4.06356083 0 0 Z " fill="#0E0E0E" transform="translate(918.45703125,1088.21875)"/>
<path d="M0 0 C0.41137207 0.72251953 0.82274414 1.44503906 1.24658203 2.18945312 C13.99101526 24.56199297 26.92155711 46.82088947 40 69 C44.73474097 67.3003494 48.96167111 64.86340973 53.3125 62.375 C54.05306641 61.95476562 54.79363281 61.53453125 55.55664062 61.1015625 C57.37269011 60.07051505 59.18656533 59.03563954 61 58 C66.59206587 64.94947605 66.59206587 64.94947605 68 68 C66.76336536 72.35433166 63.59763603 73.70550376 59.8203125 75.8203125 C58.9065535 76.33741287 58.9065535 76.33741287 57.97433472 76.86495972 C56.03011104 77.96188388 54.07779776 79.04342825 52.125 80.125 C50.818463 80.85970445 49.51246683 81.59537156 48.20703125 82.33203125 C38.29115119 87.9101792 38.29115119 87.9101792 34 90 C28.6206667 81.37306788 23.45067706 72.65857498 18.4375 63.8125 C17.04014353 61.35615495 15.64104789 58.90080131 14.2421875 56.4453125 C13.89050003 55.82748398 13.53881256 55.20965546 13.1764679 54.57310486 C9.49095226 48.10018716 5.78177074 41.64108317 2.0625 35.1875 C1.1341333 33.57548706 1.1341333 33.57548706 0.18701172 31.9309082 C-3.64421377 25.2962085 -7.52430818 18.69456285 -11.56420898 12.18432617 C-14 8.2115887 -14 8.2115887 -14 6 C-12.2335343 4.9923048 -10.46166177 3.99408286 -8.6875 3 C-7.20830078 2.1646875 -7.20830078 2.1646875 -5.69921875 1.3125 C-3 0 -3 0 0 0 Z " fill="#0B0B0B" transform="translate(773,369)"/>
<path d="M0 0 C6.71985886 3.55942524 10.54222428 8.90485203 14.80078125 15.04248047 C17.87287294 19.34941225 21.14869715 23.50738809 24.375 27.69921875 C42.52333525 51.29904647 42.52333525 51.29904647 41.25 65.07421875 C39.28418132 73.00346056 32.68454612 77.9542614 26.2734375 82.46484375 C20.84463201 85.63723214 15.4071347 85.93062841 9.25 85.07421875 C-3.011012 81.78574129 -10.27829916 67.42608287 -17.26953125 57.8203125 C-19.80682743 54.34116754 -22.39177639 50.90861437 -25.04199219 47.51489258 C-26.26733551 45.94459768 -27.47581372 44.36118709 -28.68359375 42.77734375 C-29.91860424 41.16179128 -31.17487626 39.56166961 -32.47265625 37.99609375 C-36.992718 32.00291996 -36.6400649 25.29843487 -35.75 18.07421875 C-33.74029802 10.37270348 -25.34303529 4.19650493 -18.8203125 0.34375 C-12.77268041 -2.15686123 -6.19254271 -2.08470543 0 0 Z M-22.75 13.07421875 C-23.27980469 13.53054688 -23.80960938 13.986875 -24.35546875 14.45703125 C-27.21980542 17.26520445 -28.18171428 19.88720217 -28.5 23.76171875 C-28.08660399 30.40558316 -24.67573383 34.92806484 -20.75 40.07421875 C-20.25097168 40.7295459 -19.75194336 41.38487305 -19.23779297 42.06005859 C-16.32107206 45.86691951 -13.36745804 49.64236189 -10.390625 53.40234375 C-7.99209397 56.44692661 -5.67465495 59.52970182 -3.421875 62.68359375 C-2.6342981 63.77667847 -2.6342981 63.77667847 -1.83081055 64.8918457 C-0.84800983 66.26403716 0.12276799 67.64495386 1.07885742 69.03588867 C5.05081063 74.54250896 8.83259896 76.50465191 15.625 77.63671875 C20.84915448 76.82607409 24.19333035 74.35746727 28.25 71.07421875 C28.80558594 70.62949219 29.36117188 70.18476562 29.93359375 69.7265625 C33.74475892 66.02336235 33.86996874 62.13953004 34.01171875 57.1484375 C32.07814476 49.34473118 25.53768655 42.71363857 20.625 36.51171875 C16.97905754 31.88425122 13.35296596 27.25363252 9.8828125 22.4921875 C9.35381348 21.769104 8.82481445 21.04602051 8.27978516 20.30102539 C7.28940381 18.94031793 6.30675989 17.57393086 5.33349609 16.20092773 C1.96743501 11.59141117 -1.46691199 7.86668827 -7.2421875 6.47265625 C-14.14864665 6.40472386 -17.81922719 8.32930655 -22.75 13.07421875 Z " fill="#0D0D0D" transform="translate(1237.75,1021.92578125)"/>
<path d="M0 0 C3.73639216 1.24546405 4.18756513 2.63404953 6 6 C-1.22590177 12.11923213 -8.55455256 18.04026675 -16.08984375 23.7734375 C-18.00753178 25.2406619 -19.89702051 26.74560854 -21.75390625 28.2890625 C-24 30 -24 30 -26 30 C-20.87975488 37.24364089 -15.50711943 44.20652597 -9.86230469 51.04711914 C-6 55.7855833 -6 55.7855833 -6 58 C-4.20776442 56.62574162 -2.41626916 55.2505178 -0.625 53.875 C-0.05861816 53.4406665 0.50776367 53.00633301 1.09130859 52.55883789 C4.66650794 49.81187558 8.22320011 47.04303236 11.765625 44.25390625 C12.57080566 43.62178223 13.37598633 42.9896582 14.20556641 42.33837891 C15.80426404 41.08232847 17.40034809 39.82294353 18.99365234 38.56005859 C19.7305127 37.9820752 20.46737305 37.4040918 21.2265625 36.80859375 C21.88221191 36.29095459 22.53786133 35.77331543 23.21337891 35.23999023 C25 34 25 34 28 33 C32 37.75 32 37.75 32 40 C30.15907101 41.56264902 28.31460167 43.00592212 26.375 44.4375 C25.17260114 45.34298571 23.97079776 46.2492626 22.76953125 47.15625 C22.1451416 47.62546875 21.52075195 48.0946875 20.87744141 48.578125 C17.9089239 50.82632344 14.98551558 53.13063859 12.0625 55.4375 C10.88152388 56.3672046 9.70053423 57.29689202 8.51953125 58.2265625 C7.34633462 59.15101686 6.17315729 60.07549571 5 61 C2.75065151 62.77166252 0.50065085 64.54249223 -1.75 66.3125 C-2.31420654 66.75625977 -2.87841309 67.20001953 -3.4597168 67.65722656 C-8.37560477 71.51897895 -13.3122438 75.35377178 -18.25 79.1875 C-24.54243374 84.07344429 -30.80633623 88.9890459 -37 94 C-39.99324263 92.9024777 -40.84610901 92.32317108 -42.25 89.375 C-42.4975 88.59125 -42.745 87.8075 -43 87 C-42.55833496 86.66379639 -42.11666992 86.32759277 -41.66162109 85.98120117 C-31.7100301 78.40105861 -21.81230873 70.75965461 -12 63 C-13.9917509 60.32686063 -15.99226964 57.66113373 -18 55 C-18.39106934 54.48050781 -18.78213867 53.96101562 -19.18505859 53.42578125 C-20.47328982 51.71809119 -21.76735273 50.0149491 -23.0625 48.3125 C-23.67907471 47.4932605 -23.67907471 47.4932605 -24.30810547 46.6574707 C-26.99017501 43.14559253 -29.82317571 40.05224295 -33 37 C-33.71579224 37.5576001 -33.71579224 37.5576001 -34.44604492 38.12646484 C-44.27440555 45.78109829 -54.11416154 53.41969277 -64 61 C-65.65 59.35 -67.3 57.7 -69 56 C-67.45141261 51.85469595 -64.74633698 50.02564213 -61.25 47.4375 C-60.0657927 46.55029752 -58.88222008 45.66224739 -57.69921875 44.7734375 C-57.08739746 44.31678711 -56.47557617 43.86013672 -55.84521484 43.38964844 C-52.88254348 41.15843312 -49.9730299 38.86106392 -47.0625 36.5625 C-45.88155762 35.63275254 -44.70056783 34.7030653 -43.51953125 33.7734375 C-42.34633462 32.84898314 -41.17315729 31.92450429 -40 31 C-32.22415936 24.87548639 -24.43428666 18.76933134 -16.625 12.6875 C-15.88797852 12.11281982 -15.15095703 11.53813965 -14.39160156 10.94604492 C-12.96756578 9.8381939 -11.54055498 8.73415459 -10.11035156 7.63427734 C-8.6576238 6.50927044 -7.21745551 5.36791826 -5.78808594 4.21337891 C-5.08200195 3.65440918 -4.37591797 3.09543945 -3.6484375 2.51953125 C-2.70363525 1.75733276 -2.70363525 1.75733276 -1.73974609 0.97973633 C-1.16562988 0.65642334 -0.59151367 0.33311035 0 0 Z " fill="#0D0D0D" transform="translate(707,942)"/>
<path d="M0 0 C0.34144043 0.68811768 0.68288086 1.37623535 1.03466797 2.08520508 C9.26455786 18.68645062 9.26455786 18.68645062 17.8125 35.125 C22.15375846 43.29312784 26.35321384 51.53159982 30.51278687 59.793396 C31.25126873 61.25852618 31.99183343 62.72260849 32.73452759 64.18560791 C33.77954361 66.24577816 34.81656881 68.30978034 35.8515625 70.375 C36.3288958 71.31120682 36.3288958 71.31120682 36.81587219 72.2663269 C38.20646406 75.06178483 39 76.82981965 39 80 C36.95659293 81.24064001 35.51765718 82.00059945 33.10253906 81.99780273 C29.71369004 80.38955541 28.65975423 77.21395961 27.109375 73.97265625 C26.75989807 73.26854111 26.41042114 72.56442596 26.050354 71.838974 C25.3144615 70.35004813 24.5852671 68.85779575 23.86230469 67.36254883 C22.75291816 65.06853424 21.62457695 62.78468695 20.4921875 60.50195312 C19.78012742 59.05523948 19.06915251 57.60799112 18.359375 56.16015625 C18.02194275 55.47365494 17.6845105 54.78715363 17.33685303 54.07984924 C15 49.23554511 15 49.23554511 15 47 C11.29124248 48.76994592 7.5830702 50.54111466 3.875 52.3125 C2.82828125 52.81201172 1.7815625 53.31152344 0.703125 53.82617188 C-0.31523438 54.31279297 -1.33359375 54.79941406 -2.3828125 55.30078125 C-3.36411133 55.7695166 -4.34541016 56.23825195 -5.35644531 56.72119141 C-7.45975851 57.73866043 -9.54200434 58.7825549 -11.6171875 59.85546875 C-14 61 -14 61 -16 61 C-11.34914901 71.14613023 -6.46663875 81.11221075 -1.15087891 90.92895508 C-0.74015137 91.69361084 -0.32942383 92.4582666 0.09375 93.24609375 C0.46177734 93.92341553 0.82980469 94.6007373 1.20898438 95.29858398 C2 97 2 97 2 99 C-0.31 99.99 -2.62 100.98 -5 102 C-13.59052549 86.55571781 -21.66453283 70.90137222 -29.5 55.0625 C-31.0884938 51.85769925 -32.67825761 48.65354312 -34.27038574 45.45054626 C-35.24768558 43.48387543 -36.22284765 41.51614019 -37.19543457 39.5471344 C-39.13945704 35.63033002 -41.10058478 31.76361335 -43.31835938 27.99389648 C-45 25 -45 25 -45.125 22.6875 C-43.39035932 20.08553897 -40.90140614 19.88589601 -38 19 C-37.49549316 19.98919434 -36.99098633 20.97838867 -36.47119141 21.99755859 C-34.60023851 25.66345252 -32.72423221 29.32674023 -30.84667969 32.98925781 C-30.03442281 34.57546368 -29.22354229 36.16237512 -28.4140625 37.75 C-27.25100142 40.03051193 -26.08303122 42.30844933 -24.9140625 44.5859375 C-24.55253082 45.29744965 -24.19099915 46.00896179 -23.81851196 46.74203491 C-22.40418636 49.48808157 -21.19852285 51.80147715 -19 54 C-5.14 47.07 -5.14 47.07 9 40 C8.10050898 35.5025449 6.77043981 32.23411473 4.65625 28.2734375 C4.32709595 27.64394196 3.99794189 27.01444641 3.65881348 26.36587524 C2.61179194 24.36574394 1.55637095 22.37020679 0.5 20.375 C-0.5549279 18.37193581 -1.60803878 16.36794743 -2.65881348 14.36270142 C-3.31159349 13.11807737 -3.96701036 11.87483187 -4.62536621 10.63314819 C-5.95599115 8.10531272 -7.09425501 5.71723498 -8 3 C-3.375 0 -3.375 0 0 0 Z " fill="#0D0D0D" transform="translate(1185,1050)"/>
<path d="M0 0 C2.64 0 5.28 0 8 0 C7.7352684 4.07116347 7.46865906 8.14219957 7.20043945 12.21313477 C7.10977595 13.59298519 7.01959233 14.97286725 6.92993164 16.3527832 C6.39503356 24.57945594 5.80251756 32.79444698 5 41 C6.17187866 41.08302368 6.17187866 41.08302368 7.36743164 41.16772461 C10.93264192 41.42175939 14.49756763 41.67959571 18.0625 41.9375 C19.29162109 42.02451172 20.52074219 42.11152344 21.78710938 42.20117188 C27.56238737 42.62147513 33.28470232 43.05735804 39 44 C39.01981934 43.39752441 39.03963867 42.79504883 39.06005859 42.17431641 C39.51157608 29.03041792 40.3224076 16.04613116 42 3 C44.64 3.33 47.28 3.66 50 4 C50.05896189 9.83899733 49.88900882 15.55298691 49.35742188 21.36547852 C49.28914688 22.1470784 49.22087189 22.92867828 49.15052795 23.73396301 C48.92697775 26.28262018 48.69791732 28.83074857 48.46875 31.37890625 C48.3114656 33.15963265 48.15452935 34.94038983 47.9979248 36.72117615 C47.58710567 41.38207717 47.17159219 46.0425479 46.75506592 50.70294189 C46.32994234 55.46902586 45.90930644 60.23550568 45.48828125 65.00195312 C44.66322063 74.33502601 43.83319513 83.66765004 43 93 C40.36 93 37.72 93 35 93 C34.69045274 85.00336243 35.23789896 77.14971615 35.9375 69.1875 C36.02435059 68.19741943 36.11120117 67.20733887 36.20068359 66.18725586 C36.66515376 61.09825974 37.21817865 56.05014335 38 51 C37.38898437 51.02320313 36.77796875 51.04640625 36.1484375 51.0703125 C25.35610167 51.28311912 14.73503502 50.04732049 4 49 C3.01 62.2 2.02 75.4 1 89 C-1.64 89 -4.28 89 -7 89 C-7.1875561 78.66982067 -6.62125626 68.52359337 -5.72265625 58.2421875 C-5.59011044 56.67997739 -5.45799298 55.11773088 -5.32627869 53.55545044 C-5.05166787 50.3130084 -4.77313597 47.07093689 -4.49145508 43.82910156 C-4.13094223 39.67822947 -3.77866499 35.52670835 -3.42903996 31.37490654 C-3.15796213 28.16280987 -2.88352519 24.95100749 -2.60796928 21.73929214 C-2.47678048 20.20757168 -2.3464171 18.67578028 -2.21690559 17.14391708 C-2.03598356 15.0121503 -1.85076262 12.88080067 -1.66430664 10.74951172 C-1.5599379 9.53931366 -1.45556915 8.3291156 -1.34803772 7.08224487 C-1.06952065 4.61567947 -0.69035084 2.37628467 0 0 Z " fill="#0D0D0D" transform="translate(945,1095)"/>
<path d="M0 0 C2.9375 0.8125 2.9375 0.8125 6 2 C7 5 7 5 5.92358398 7.56860352 C5.37001221 8.57850342 4.81644043 9.58840332 4.24609375 10.62890625 C3.63830078 11.74716797 3.03050781 12.86542969 2.40429688 14.01757812 C1.74875512 15.19925048 1.09315586 16.38089094 0.4375 17.5625 C-0.18447266 18.70525391 -0.80644531 19.84800781 -1.44726562 21.02539062 C-5.14331456 27.78023867 -8.97679805 34.43484467 -13 41 C-12.28215332 41.27255615 -11.56430664 41.5451123 -10.82470703 41.82592773 C-8.02894763 42.9879681 -5.45155754 44.31767388 -2.8046875 45.78515625 C-1.84175781 46.31560547 -0.87882812 46.84605469 0.11328125 47.39257812 C1.10714844 47.94365234 2.10101562 48.49472656 3.125 49.0625 C5.10551898 50.15981457 7.08723712 51.2549684 9.0703125 52.34765625 C9.94445801 52.83242432 10.81860352 53.31719238 11.71923828 53.81665039 C14.061557 55.10730373 14.061557 55.10730373 17 56 C17.400979 54.94002808 17.400979 54.94002808 17.81005859 53.85864258 C19.05251456 50.87384224 20.4910808 48.0996852 22.0390625 45.26171875 C22.61914062 44.19501953 23.19921875 43.12832031 23.796875 42.02929688 C24.40015625 40.92650391 25.0034375 39.82371094 25.625 38.6875 C26.23601562 37.56537109 26.84703125 36.44324219 27.4765625 35.28710938 C28.98191092 32.52338376 30.48980241 29.76107794 32 27 C34.9375 27.8125 34.9375 27.8125 38 29 C39 32 39 32 37.96777344 34.46435547 C37.43700195 35.42229004 36.90623047 36.38022461 36.359375 37.3671875 C35.78316406 38.41777344 35.20695312 39.46835937 34.61328125 40.55078125 C33.99839844 41.64777344 33.38351562 42.74476563 32.75 43.875 C32.15058594 44.96425781 31.55117187 46.05351563 30.93359375 47.17578125 C28.3634235 51.83172158 25.75659942 56.45150755 23 61 C23.76957031 61.20238281 24.53914063 61.40476562 25.33203125 61.61328125 C31.4800689 63.93761923 36.94658021 67.53699365 42.56445312 70.91992188 C43.47517578 71.45552734 44.38589844 71.99113281 45.32421875 72.54296875 C46.15010498 73.03821045 46.97599121 73.53345215 47.8269043 74.04370117 C50.10700732 75.33741894 50.10700732 75.33741894 53 74 C54.64929202 71.55219725 54.64929202 71.55219725 56.1796875 68.49609375 C57.07880859 66.79549805 57.07880859 66.79549805 57.99609375 65.06054688 C58.62291087 63.85313182 59.24920956 62.64544749 59.875 61.4375 C63.70210501 54.13377222 67.50297221 46.91653133 72 40 C74.02045442 40.60183749 76.02111039 41.27306096 78 42 C78.33 42.66 78.66 43.32 79 44 C77.98706055 46.34399414 77.98706055 46.34399414 76.38671875 49.28515625 C75.51007568 50.90671631 75.51007568 50.90671631 74.61572266 52.56103516 C73.97940918 53.71651855 73.3430957 54.87200195 72.6875 56.0625 C72.04439185 57.24247569 71.40165202 58.42265219 70.75927734 59.60302734 C65.70659755 68.85371427 60.45257724 77.97937682 55 87 C51.54935291 85.67977581 48.31759724 84.17793551 45.0703125 82.41796875 C44.12220703 81.90492188 43.17410156 81.391875 42.19726562 80.86328125 C41.18341797 80.31027344 40.16957031 79.75726562 39.125 79.1875 C38.06216797 78.61 36.99933594 78.0325 35.90429688 77.4375 C27.78498497 73.01053041 19.7246149 68.48497451 11.69506836 63.89746094 C6.60049841 60.99681951 1.47657826 58.1724275 -3.70703125 55.43359375 C-5.3621875 54.55574219 -5.3621875 54.55574219 -7.05078125 53.66015625 C-9.18231578 52.53439969 -11.31887003 51.41808321 -13.4609375 50.3125 C-14.41871094 49.80589844 -15.37648438 49.29929687 -16.36328125 48.77734375 C-17.21188721 48.33640381 -18.06049316 47.89546387 -18.93481445 47.44116211 C-21.32587547 45.77259216 -22.25165853 44.82538402 -23 42 C-22.19238281 39.62841797 -22.19238281 39.62841797 -20.703125 36.9921875 C-20.16067139 36.01314453 -19.61821777 35.03410156 -19.05932617 34.02539062 C-18.46224854 32.98576172 -17.8651709 31.94613281 -17.25 30.875 C-16.65614502 29.81216797 -16.06229004 28.74933594 -15.45043945 27.65429688 C-14.23418002 25.48032077 -13.01124743 23.31006487 -11.78173828 21.14355469 C-9.66261064 17.40473755 -7.58227853 13.6454049 -5.50488281 9.88330078 C-3.68056078 6.5828872 -1.84090432 3.29118786 0 0 Z " fill="#0D0D0D" transform="translate(1320,896)"/>
<path d="M0 0 C3.7450714 1.58378019 6.2927948 3.92441301 9.25 6.6875 C9.75797119 7.16010254 10.26594238 7.63270508 10.78930664 8.11962891 C11.91185207 9.16564095 13.03226943 10.21394005 14.15087891 11.26416016 C16.15229652 13.14296649 18.15987627 15.01504935 20.16796875 16.88671875 C32.01559521 27.94836817 32.01559521 27.94836817 37 33 C35.63016497 36.16115776 35.0109362 36.9927092 32 39 C30.31156785 37.45934497 28.62421182 35.91753711 26.9375 34.375 C26.40962891 33.89297119 25.88175781 33.41094238 25.33789062 32.91430664 C22.20156541 30.04282464 19.09024338 27.14785033 16.00390625 24.22265625 C15.33818604 23.59375488 14.67246582 22.96485352 13.98657227 22.31689453 C12.68002284 21.08083486 11.37701285 19.84102125 10.07788086 18.59716797 C9.47468018 18.02756348 8.87147949 17.45795898 8.25 16.87109375 C7.45335937 16.11203735 7.45335937 16.11203735 6.640625 15.33764648 C4.86359787 13.88878761 3.08031096 12.94998983 1 12 C-6.47064233 19.33535906 -13.48459681 26.80638689 -20 35 C-14.03693599 41.05250997 -8.10340398 47.02460662 -1.625 52.53125 C0.53283056 54.48159686 2.29229036 56.65189925 4 59 C2.02 60.65 0.04 62.3 -2 64 C-2.7734375 63.21496094 -3.546875 62.42992187 -4.34375 61.62109375 C-9.54317828 56.36814071 -14.72890131 51.17750921 -20.37890625 46.40234375 C-21.99776114 45.00193675 -23.50518331 43.53116482 -25 42 C-34.43494226 46.14216977 -41.78903453 57.0499642 -48 65 C-43.12633558 69.9751991 -38.19437411 74.77982219 -32.90625 79.3125 C-30.37917907 81.54957918 -28.03940802 83.94837298 -25.67578125 86.35546875 C-23.244864 88.74105421 -20.65231288 90.86521159 -18 93 C-19.65 94.98 -21.3 96.96 -23 99 C-25.33682418 97.00396268 -27.66973558 95.00367433 -30 93 C-30.99 92.15308594 -30.99 92.15308594 -32 91.2890625 C-35.90460935 87.91828646 -39.60112895 84.42908036 -43.21875 80.75390625 C-46.34127331 77.67931641 -49.67139302 74.84751925 -53 72 C-53.680625 71.41476562 -54.36125 70.82953125 -55.0625 70.2265625 C-56.70601037 68.81499916 -58.35266531 67.40709838 -60 66 C-58.58261511 62.74792908 -56.87473588 60.68638933 -54.3125 58.25 C-51.55768063 55.5697696 -48.94075141 52.85418433 -46.4375 49.9375 C-43.7063417 46.76043831 -40.83217468 43.80705042 -37.84301758 40.87426758 C-36.06756995 39.06871566 -34.40807514 37.20903702 -32.7578125 35.2890625 C-29.06940404 31.04729535 -25.24309264 26.95263024 -21.375 22.875 C-19.97617107 21.39490108 -18.5777402 19.91442589 -17.1796875 18.43359375 C-16.48456055 17.69737793 -15.78943359 16.96116211 -15.07324219 16.20263672 C-10.01733078 10.83117737 -5.01052067 5.41376463 0 0 Z " fill="#0D0D0D" transform="translate(746,991)"/>
<path d="M0 0 C4.06165611 3.57634794 7.62740845 7.66214396 9 13 C9 13.99 9 14.98 9 16 C3.25 19 3.25 19 1 19 C0.86464844 18.40832031 0.72929688 17.81664062 0.58984375 17.20703125 C-0.83641354 11.97172756 -2.3185379 8.66607967 -7.0546875 5.8125 C-12.45171869 3.5583183 -16.99422515 4.80437362 -22.25 6.6875 C-27.09205263 8.77754115 -29.63463726 11.26927452 -32 16 C-32.35590313 21.98564355 -31.51017428 26.56053849 -29.5625 32.1875 C-29.01094977 33.84045621 -28.46162709 35.49415672 -27.9140625 37.1484375 C-27.61016602 38.06206055 -27.30626953 38.97568359 -26.99316406 39.91699219 C-25.86438341 43.42098482 -24.81442522 46.94582277 -23.7734375 50.4765625 C-23.18856111 52.43863717 -22.60248121 54.40034872 -22.01608276 56.36196899 C-21.44715874 58.27993826 -20.89155047 60.20184119 -20.33618164 62.1237793 C-18.42395453 68.46432181 -16.88083162 73.41153101 -12 78 C-7.54266225 80.22866888 -1.96025301 79.48866706 2.7421875 78.31640625 C6.86623421 76.84178421 9.53995183 75.4710017 12.625 72.3125 C14.98707222 66.6220533 14.52729885 60.91828305 13 55 C15.97 55 18.94 55 22 55 C23.67979607 61.29923526 24.14864256 68.21365268 21.4375 74.25 C17.36928515 81.25637001 11.56579234 84.82103904 3.96875 87.3046875 C-3.38681432 89.02743809 -10.69648746 89.21175492 -17.32421875 85.24609375 C-23.76599036 80.45605845 -25.64821529 74.41304003 -28 67 C-28.39058594 65.77667969 -28.78117187 64.55335937 -29.18359375 63.29296875 C-30.25608419 59.90278688 -31.3054568 56.50578407 -32.35009766 53.10693359 C-33.21716379 50.29597164 -34.09796272 47.48940617 -34.97998047 44.68310547 C-35.61278783 42.66396615 -36.23822031 40.64264209 -36.86328125 38.62109375 C-37.54205887 36.45880215 -38.24084958 34.30239982 -38.98046875 32.16015625 C-41.20677144 25.54396092 -42.73451632 18.46348867 -40.12109375 11.73828125 C-35.32253124 3.42394026 -28.94173008 -0.6204941 -19.8515625 -3.3046875 C-12.4718967 -5.10411286 -6.51839214 -3.75016471 0 0 Z " fill="#0E0E0E" transform="translate(1128,1084)"/>
<path d="M0 0 C2.91983629 1.35923414 5.2180555 2.58142356 7.625 4.6875 C7.11467606 8.46389718 6.41733071 10.13472581 3.625 12.6875 C3.12871094 12.3265625 2.63242188 11.965625 2.12109375 11.59375 C-2.52335629 8.42107065 -5.58416678 6.84519699 -11.375 7.6875 C-17.71104299 9.27151075 -20.52915378 12.55714976 -24.046875 17.9921875 C-25.99520248 21.9461462 -26.6082551 25.42028605 -25.375 29.6875 C-22.75559141 34.28520319 -19.57063946 37.57376561 -15.5 40.875 C-14.93410156 41.34349365 -14.36820313 41.8119873 -13.78515625 42.29467773 C-7.40889847 47.54370423 -0.90481812 52.63175053 5.625 57.6875 C6.23537109 58.16203613 6.84574219 58.63657227 7.47460938 59.12548828 C9.27293706 60.52350329 11.07343491 61.91866019 12.875 63.3125 C13.42414063 63.73861572 13.97328125 64.16473145 14.5390625 64.60375977 C19.34858745 68.30779587 22.52392208 69.2930377 28.625 68.6875 C34.50729323 66.6875203 38.85792345 62.22165311 41.625 56.6875 C42.33741123 51.87872419 42.80281578 47.45566354 40.02734375 43.2890625 C38.10541535 41.18064641 38.10541535 41.18064641 36.05859375 39.34375 C35.58550781 38.7971875 35.11242188 38.250625 34.625 37.6875 C35.87046405 33.95110784 37.25904953 33.49993487 40.625 31.6875 C45.5904961 35.29876989 48.90207826 38.68133705 50.625 44.6875 C51.56836298 51.74068114 51.63321307 57.94632154 47.23828125 63.77734375 C46.70589844 64.40769531 46.17351562 65.03804687 45.625 65.6875 C45.02042969 66.47253906 44.41585938 67.25757813 43.79296875 68.06640625 C38.76446827 74.24541177 34.85005353 76.93320656 27.02734375 78.0625 C15.08268806 78.86889026 7.53529208 70.98344288 -0.94140625 63.625 C-4.39716472 60.63881169 -7.96115025 57.80774893 -11.5625 55 C-12.14733154 54.54109375 -12.73216309 54.0821875 -13.3347168 53.609375 C-15.97170362 51.54400116 -18.62051928 49.50417894 -21.3046875 47.5 C-27.53812498 42.76480714 -31.8705352 38.2008944 -34.375 30.6875 C-35.51891149 21.98508474 -33.50268516 16.65526356 -28.375 9.6875 C-27.98054688 9.0996875 -27.58609375 8.511875 -27.1796875 7.90625 C-20.53614568 -1.19958354 -10.3455367 -3.58926784 0 0 Z " fill="#0D0D0D" transform="translate(1301.375,958.3125)"/>
<path d="M0 0 C3.03852705 1.40976705 5.5939595 3.08870228 8.25 5.125 C8.95640625 5.66382813 9.6628125 6.20265625 10.390625 6.7578125 C11.18726563 7.37269531 11.18726563 7.37269531 12 8 C10.52745531 12.67903255 7.77835457 15.85361435 4.5625 19.4375 C0.44406409 24.13058701 -3.55260914 28.87503772 -7.375 33.8125 C-11.49213002 39.11990816 -15.71383237 44.32815981 -20 49.5 C-24.80101692 55.29630993 -29.51612134 61.14707549 -34.14379883 67.08251953 C-38.34179985 72.46093765 -42.65321249 77.74092375 -47 83 C-50.51802689 81.74833586 -53.04189933 80.37397315 -55.8125 77.875 C-56.41707031 77.33617187 -57.02164062 76.79734375 -57.64453125 76.2421875 C-58.09183594 75.83226562 -58.53914063 75.42234375 -59 75 C-57.5583206 70.56093065 -55.11219305 67.49690083 -52.0625 64.0625 C-48.14606706 59.54715904 -44.34957757 54.97405974 -40.6875 50.25 C-36.54765077 44.92369859 -32.30407875 39.69441685 -28 34.5 C-23.21915442 28.72911909 -18.53046452 22.90048542 -13.92651367 16.98779297 C-9.41667371 11.2136459 -4.72637133 5.59782808 0 0 Z " fill="#0B0B0B" transform="translate(1274,398)"/>
<path d="M0 0 C4.71216147 3.5628538 9.16167162 8.05402081 10.5625 13.9375 C11.35838618 20.39163951 10.53974145 25.67870297 6.5625 30.9375 C0.58881098 36.56843637 -4.61377452 38.44012526 -12.76953125 38.34375 C-18.18986853 37.5183985 -22.58717645 34.40630187 -25.8515625 30.05078125 C-26.9375 28.1875 -26.9375 28.1875 -28.4375 24.9375 C-28.7675 24.2775 -29.0975 23.6175 -29.4375 22.9375 C-30.26315594 16.59174438 -29.67196114 11.94572308 -25.94140625 6.6953125 C-18.89609192 -1.53947048 -10.41148956 -3.21809677 0 0 Z " fill="#0D0D0D" transform="translate(1009.4375,828.0625)"/>
<path d="M0 0 C6.21152564 2.19868289 9.65023262 6.51856246 13 12 C15.1691679 18.50750371 13.91226146 24.02419076 11 30 C8.04920569 34.80870183 4.31718367 37.33116773 -1 39 C-7.5830494 40.03488986 -12.81204314 39.50546275 -18.27734375 35.56640625 C-22.4000318 31.81765816 -25.57080952 27.45191772 -26.2734375 21.80078125 C-26.54364346 15.18073521 -25.325329 11.05557936 -21 6 C-14.48036832 -0.40804874 -8.96224884 -0.91301598 0 0 Z " fill="#0C0C0C" transform="translate(1141,827)"/>
<path d="M0 0 C4.98911429 3.77225715 9.96054765 8.82182578 10.8984375 15.234375 C11.00777516 22.10078007 9.86866314 27.28771878 5.171875 32.47265625 C0.24082141 36.92358094 -4.83989978 38.38847634 -11.421875 38.1875 C-17.5059759 37.43288283 -21.54555966 34.47809706 -25.4375 29.9375 C-29.0664894 24.62362267 -29.97460377 20.38274529 -29.4375 13.9375 C-27.42925351 7.68290098 -23.72159416 3.69883796 -18.4375 -0.0625 C-13.25781355 -2.65234323 -5.36194873 -1.65732961 0 0 Z " fill="#0C0C0C" transform="translate(874.4375,828.0625)"/>
<path d="M0 0 C20.82192133 9.76698372 20.82192133 9.76698372 24.1875 16.4375 C25.84494563 23.70476162 24.17266567 28.71501185 20.46875 34.94921875 C17.93054692 38.49325231 14.92200619 41.03899691 11 43 C2.63664321 43.65594955 -3.46919351 39.89024972 -10.4375 35.8125 C-11.39172852 35.26045898 -11.39172852 35.26045898 -12.36523438 34.69726562 C-13.91218085 33.80166504 -15.45638662 32.9013332 -17 32 C-15.68242597 27.67105835 -13.99941847 23.91835849 -11.77734375 19.98046875 C-11.15666016 18.87638672 -10.53597656 17.77230469 -9.89648438 16.63476562 C-9.25001953 15.49716797 -8.60355469 14.35957031 -7.9375 13.1875 C-7.28015892 12.01912767 -6.62325378 10.85050996 -5.96679688 9.68164062 C-1.1555235 1.1555235 -1.1555235 1.1555235 0 0 Z " fill="#767676" transform="translate(814,1054)"/>
<path d="M0 0 C8.09437169 3.56152354 13.24344319 13.00750857 18.484375 19.9140625 C20.72126079 22.85812519 22.99749888 25.7687124 25.29052734 28.66918945 C26.67561273 30.4224529 28.05337417 32.18125169 29.4296875 33.94140625 C31.20770853 36.21503618 33.0067753 38.4694804 34.8203125 40.71484375 C35.65165254 41.76774713 36.48241021 42.82111067 37.3125 43.875 C38.04855469 44.7928125 38.78460937 45.710625 39.54296875 46.65625 C41.41871144 49.87974854 41.60553826 51.70267602 41.125 55.375 C39 58.25 39 58.25 36.125 60.375 C32.64012795 60.82631187 30.87049044 60.94001789 28.02734375 58.78515625 C27.05474609 57.62306641 27.05474609 57.62306641 26.0625 56.4375 C25.29421875 55.52484375 24.5259375 54.6121875 23.734375 53.671875 C19.55644043 48.44459873 15.51086867 43.1147328 11.48046875 37.7734375 C7.82115901 32.94191362 4.02548433 28.22475454 0.1706543 23.5480957 C-8.10936571 13.36793405 -8.10936571 13.36793405 -9.5625 7.6875 C-8.18427097 3.05163871 -4.6833429 0.61087081 0 0 Z " fill="#757575" transform="translate(739.875,406.625)"/>
<path d="M0 0 C1.60209656 1.1839447 1.60209656 1.1839447 3 3 C4.12587562 10.87106534 2.59525342 18.97920716 1.13671875 26.71484375 C0.94406937 27.77361221 0.75141998 28.83238068 0.55293274 29.92323303 C0.14703137 32.13834214 -0.26414275 34.35249114 -0.68041992 36.56567383 C-1.31495756 39.95060982 -1.92705697 43.33909089 -2.53710938 46.72851562 C-2.93617162 48.89087057 -3.33651683 51.05298923 -3.73828125 53.21484375 C-3.91966141 54.22320786 -4.10104156 55.23157196 -4.28791809 56.27049255 C-6.18151152 66.18151152 -6.18151152 66.18151152 -10 70 C-16.24482802 70.58913472 -16.24482802 70.58913472 -19.19970703 68.28393555 C-22.58971315 63.98321583 -21.50835028 59.22976725 -21 54 C-20.10252366 47.52478256 -18.90865751 41.10198963 -17.69189453 34.68041992 C-17.1233653 31.67886958 -16.57014511 28.67480525 -16.01953125 25.66992188 C-15.66233861 23.7420242 -15.30429542 21.81428387 -14.9453125 19.88671875 C-14.78064484 18.99804611 -14.61597717 18.10937347 -14.44631958 17.19377136 C-12.111851 4.9148545 -12.111851 4.9148545 -9.875 1.0625 C-6.81863951 -0.66943761 -3.4118903 -0.70163873 0 0 Z " fill="#757575" transform="translate(1083,324)"/>
<path d="M0 0 C2.5625 2.125 2.5625 2.125 4 5 C4.219636 8.29454003 3.65197496 10.15330971 1.63334656 12.77481079 C-2.76843231 17.70812685 -7.30933841 22.46982816 -11.98046875 27.1484375 C-12.71574295 27.8870401 -13.45101715 28.6256427 -14.20857239 29.3866272 C-15.74931455 30.93239413 -17.29137931 32.47684383 -18.8347168 34.02001953 C-21.19673618 36.38424481 -23.55061738 38.75638165 -25.90429688 41.12890625 C-27.40836485 42.63590519 -28.91290547 44.14243259 -30.41796875 45.6484375 C-31.46962471 46.71087173 -31.46962471 46.71087173 -32.54252625 47.79476929 C-33.20033585 48.44950226 -33.85814545 49.10423523 -34.53588867 49.77880859 C-35.10989914 50.35424408 -35.68390961 50.92967957 -36.27531433 51.52255249 C-38.945291 53.80978108 -40.94832503 55.05258375 -44.5 54.875 C-47.64117537 53.77558862 -49.03600004 52.69140735 -51 50 C-51.6875 47.25 -51.6875 47.25 -51 44 C-49.69261169 42.23693848 -49.69261169 42.23693848 -47.97436523 40.33789062 C-47.33812225 39.63349854 -46.70187927 38.92910645 -46.0463562 38.20336914 C-40.31654469 32.03392031 -34.43988157 26.01280142 -28.53051758 20.015625 C-26.87887147 18.33211906 -25.23534111 16.64061414 -23.59985352 14.94140625 C-21.22227431 12.47277487 -18.81964464 10.03119697 -16.41015625 7.59375 C-15.68594986 6.83139038 -14.96174347 6.06903076 -14.21559143 5.28356934 C-9.44716229 0.533074 -6.77550695 -1.13236121 0 0 Z " fill="#767676" transform="translate(1305,440)"/>
<path d="M0 0 C3.97783299 1.32594433 4.21095711 2.78353345 6.07421875 6.4765625 C6.6561499 7.61609375 7.23808105 8.755625 7.83764648 9.9296875 C8.45458147 11.16129952 9.07119378 12.39307322 9.6875 13.625 C10.62865015 15.483327 11.57265087 17.34018669 12.51686096 19.19696045 C13.13998617 20.42296099 13.76192883 21.6495633 14.38267517 22.87677002 C16.11278552 26.29031503 17.88531198 29.67289028 19.734375 33.0234375 C20.11505127 33.71356934 20.49572754 34.40370117 20.88793945 35.11474609 C21.8659561 36.87149059 22.85256593 38.62344346 23.83984375 40.375 C25 43 25 43 24 46 C22.02 46.66 20.04 47.32 18 48 C15.03 42.39 12.06 36.78 9 31 C4.69677813 32.43440729 1.23130939 33.77933338 -2.71875 35.8359375 C-4.34828613 36.68164307 -4.34828613 36.68164307 -6.01074219 37.54443359 C-7.16219727 38.14852051 -8.31365234 38.75260742 -9.5 39.375 C-10.70728795 40.00485198 -11.91464561 40.63457037 -13.12207031 41.26416016 C-20.70481563 45.22736901 -28.2435642 49.26902355 -35.75 53.375 C-36.64187012 53.86234619 -37.53374023 54.34969238 -38.45263672 54.85180664 C-42.49836794 57.0671105 -46.53427504 59.29766351 -50.5546875 61.55859375 C-51.91138042 62.31003653 -53.26814592 63.06134827 -54.625 63.8125 C-55.77226563 64.45832031 -56.91953125 65.10414063 -58.1015625 65.76953125 C-61 67 -61 67 -63.2734375 67.07421875 C-65.95008182 65.40888575 -66.11281395 62.91673945 -67 60 C-65.56153373 59.23845904 -64.1230674 58.47691819 -62.68460083 57.71537781 C-61.3724864 57.02072838 -60.060373 56.32607702 -58.7482605 55.63142395 C-55.01448884 53.65471022 -51.28069818 51.67803241 -47.546875 49.70141602 C-40.24757407 45.8372563 -32.94839455 41.97286818 -25.64987183 38.10723877 C-22.51938781 36.44920715 -19.38881697 34.79133951 -16.25823975 33.13348389 C-14.75351676 32.33656919 -13.24883735 31.5395722 -11.74420166 30.74249268 C-9.64207691 29.6289035 -7.53980454 28.51559346 -5.4375 27.40234375 C-4.81197235 27.07087845 -4.1864447 26.73941315 -3.54196167 26.39790344 C-1.36952865 25.24777497 0.80132044 24.09933978 3 23 C2.35014905 18.28629244 0.48438608 14.42313556 -1.5625 10.1875 C-1.89185547 9.49462891 -2.22121094 8.80175781 -2.56054688 8.08789062 C-3.36872251 6.38955052 -4.18368377 4.69444231 -5 3 C-2.6875 1.4375 -2.6875 1.4375 0 0 Z " fill="#0D0D0D" transform="translate(679,892)"/>
<path d="M0 0 C0 2.31 0 4.62 0 7 C-6.6 7.66 -13.2 8.32 -20 9 C-19.56124455 19.16450126 -19.04223209 29.25526259 -18 39.375 C-17.14170187 47.72946825 -16.63878475 56.06165201 -16.34179688 64.45458984 C-16.16131586 69.34323117 -15.7934515 74.14745674 -15.21166992 79.00439453 C-14.94359192 81.53181039 -14.90172361 84.02237636 -14.9375 86.5625 C-14.94652344 87.40941406 -14.95554687 88.25632812 -14.96484375 89.12890625 C-14.97644531 89.74636719 -14.98804688 90.36382813 -15 91 C-17.64 91 -20.28 91 -23 91 C-24.78140082 77.69634703 -25.58589024 64.36568042 -26.30224609 50.97119141 C-26.37954705 49.54197399 -26.45717626 48.11277428 -26.53515625 46.68359375 C-26.57256424 45.99504807 -26.60997223 45.30650238 -26.64851379 44.59709167 C-26.84762456 41.10170711 -27.11831834 37.6376536 -27.5546875 34.1640625 C-28.17847985 29.09309748 -28.10865577 24.03948771 -28.0625 18.9375 C-28.05798828 17.97650391 -28.05347656 17.01550781 -28.04882812 16.02539062 C-28.03717706 13.68352578 -28.02082025 11.34179819 -28 9 C-28.99128906 9.16371094 -29.98257813 9.32742188 -31.00390625 9.49609375 C-34.99354579 10.06604226 -38.90621941 10.09817505 -42.9375 10.0625 C-43.62134766 10.05798828 -44.30519531 10.05347656 -45.00976562 10.04882812 C-46.67321604 10.0371956 -48.3366205 10.01926694 -50 10 C-50 7.69 -50 5.38 -50 3 C-14.11044893 -0.58165209 -14.11044893 -0.58165209 0 0 Z " fill="#0D0D0D" transform="translate(1052,1097)"/>
<path d="M0 0 C3.81987643 2.46822785 6.63958443 5.09926985 8.77734375 9.1484375 C9.85212889 15.10332815 9.69104497 20.2195127 7.08984375 25.7109375 C0.24777872 32.92284389 0.24777872 32.92284389 -4.83203125 33.38671875 C-15.37146968 33.63578508 -15.37146968 33.63578508 -20.22265625 29.1484375 C-24.06709163 24.98363251 -25.95935017 21.47430789 -26.59765625 15.8359375 C-26.05728804 10.52231674 -24.50141233 6.24592889 -20.50390625 2.56640625 C-14.15809574 -2.09884004 -7.44425542 -3.67992672 0 0 Z " fill="#C4C4C4" transform="translate(604.22265625,779.8515625)"/>
<path d="M0 0 C4.65332141 2.49900594 7.4651554 5.4477331 10.375 9.8125 C11.0440762 15.63968687 11.21976364 21.0291101 8.6875 26.375 C1.84543497 33.58690639 1.84543497 33.58690639 -3.234375 34.05078125 C-13.77381343 34.29984758 -13.77381343 34.29984758 -18.625 29.8125 C-23.51101288 24.26621511 -24.2044449 20.57107516 -24.171875 13.2265625 C-23.27094505 7.60218552 -20.06555902 4.19910435 -15.625 0.8125 C-10.16398311 -1.78877827 -5.77360383 -1.89135298 0 0 Z " fill="#C5C5C5" transform="translate(1410.625,779.1875)"/>
<path d="M0 0 C2.31 0.66 4.62 1.32 7 2 C6.38012088 7.93277522 4.1468409 13.06751929 1.9140625 18.5390625 C1.50072662 19.56608276 1.08739075 20.59310303 0.66152954 21.65124512 C-0.67857106 24.97804133 -2.02680973 28.30147503 -3.375 31.625 C-4.74841396 35.02960937 -6.11971374 38.43506548 -7.4909668 41.84054565 C-8.3960158 44.08767936 -9.30177443 46.33452738 -10.20825195 48.58108521 C-13.76990419 57.41059056 -17.28100743 66.25873015 -20.75 75.125 C-21.19649902 76.26533691 -21.64299805 77.40567383 -22.10302734 78.58056641 C-23.07014549 81.05314537 -24.0360366 83.52618985 -25 86 C-28.4375 85.1875 -28.4375 85.1875 -32 84 C-33.3096916 80.07092521 -32.37240617 78.75618747 -30.83789062 74.9465332 C-30.59568787 74.33781372 -30.35348511 73.72909424 -30.10394287 73.10192871 C-29.29714194 71.08109914 -28.47686882 69.06603499 -27.65625 67.05078125 C-27.08790795 65.63638643 -26.5203338 64.22168282 -25.95349121 62.8066864 C-24.75855806 59.82931652 -23.55751596 56.85451479 -22.3515625 53.8815918 C-20.8252195 50.11876858 -19.30888921 46.35202669 -17.79666901 42.58350849 C-16.33664993 38.94620683 -14.87171719 35.31089057 -13.40625 31.67578125 C-13.13549149 31.00322107 -12.86473297 30.3306609 -12.58576965 29.63772011 C-8.57018472 19.67719641 -4.34891387 9.81945445 0 0 Z " fill="#0D0D0D" transform="translate(866,1072)"/>
<path d="M0 0 C3.33578513 1.45155894 5.52498603 3.27925938 8.08203125 5.8515625 C8.84966797 6.62113281 9.61730469 7.39070312 10.40820312 8.18359375 C11.20162109 8.98925781 11.99503906 9.79492188 12.8125 10.625 C13.59431641 11.40746094 14.37613281 12.18992187 15.18164062 12.99609375 C18.70900408 16.54997874 22.1592251 20.12701766 25.41796875 23.9296875 C29.83532907 29.05849615 34.68253381 33.75067336 39.5 38.5 C45.57043355 44.48457169 51.49455322 50.4885865 57 57 C58.14550004 58.33361969 59.29132099 59.66696381 60.4375 61 C61.283125 61.99 62.12875 62.98 63 64 C61.02 65.65 59.04 67.3 57 69 C53.70687173 65.7318517 50.41724235 62.46023304 47.13061523 59.18554688 C46.0153271 58.07524416 44.89913789 56.96584571 43.78198242 55.85742188 C38.26694702 50.38437286 32.8239896 44.9130852 27.77758789 38.99804688 C23.89517236 34.63412863 19.65781295 30.59900372 15.5 26.5 C9.9301048 21.00888691 4.43045102 15.5346752 -0.64257812 9.57617188 C-1.70957706 8.33722491 -2.84382607 7.15617393 -4 6 C-4 5.01 -4 4.02 -4 3 C-2 1.3125 -2 1.3125 0 0 Z " fill="#0D0D0D" transform="translate(1248,998)"/>
<path d="M0 0 C6.42137098 0.1618833 12.68027407 4.40848638 17.3671875 8.5234375 C19.0625 10.5 19.0625 10.5 19.5 13.375 C19.00374579 16.91967293 17.82958808 19.40759586 16.0625 22.5 C12.31186435 21.9133247 9.503224 20.85059992 6.19921875 18.99609375 C5.31298828 18.50302734 4.42675781 18.00996094 3.51367188 17.50195312 C2.60166016 16.98568359 1.68964844 16.46941406 0.75 15.9375 C-0.64702148 15.15729492 -0.64702148 15.15729492 -2.07226562 14.36132812 C-4.36413795 13.08023026 -6.65231613 11.79297895 -8.9375 10.5 C-8.31753922 9.20590711 -7.69133647 7.91480327 -7.0625 6.625 C-6.71445312 5.90570312 -6.36640625 5.18640625 -6.0078125 4.4453125 C-4.33724349 1.40902284 -3.46747711 0.59020887 0 0 Z " fill="#757575" transform="translate(628.9375,536.5)"/>
<path d="M0 0 C1.66259766 1.27929688 1.66259766 1.27929688 3 3 C3.2981028 5.92257643 3.41882117 8.58345783 3.375 11.5 C3.38660156 12.27214844 3.39820313 13.04429687 3.41015625 13.83984375 C3.3806742 19.51022421 3.3806742 19.51022421 1.66259766 21.72070312 C-0.90188757 23.69396342 -2.86975745 23.39128032 -6 23 C-7.66259766 21.72070312 -7.66259766 21.72070312 -9 20 C-9.2981028 17.07742357 -9.41882117 14.41654217 -9.375 11.5 C-9.38660156 10.72785156 -9.39820313 9.95570313 -9.41015625 9.16015625 C-9.3806742 3.48977579 -9.3806742 3.48977579 -7.66259766 1.27929688 C-5.09811243 -0.69396342 -3.13024255 -0.39128032 0 0 Z " fill="#C1C1C1" transform="translate(1003,900)"/>
<path d="M0 0 C1.66259766 1.27929688 1.66259766 1.27929688 3 3 C3.2981028 5.92257643 3.41882117 8.58345783 3.375 11.5 C3.38660156 12.27214844 3.39820313 13.04429687 3.41015625 13.83984375 C3.38066838 19.51134354 3.38066838 19.51134354 1.66259766 21.71679688 C0 23 0 23 -3 23.4375 C-6 23 -6 23 -7.6640625 21.4765625 C-9.53152885 18.0146512 -9.43709459 14.77011617 -9.375 10.9375 C-9.38660156 10.21755859 -9.39820313 9.49761719 -9.41015625 8.75585938 C-9.39340725 5.74941372 -9.37895488 3.55956787 -7.6640625 1.02734375 C-5.03788239 -0.59398341 -3.00451013 -0.37556377 0 0 Z " fill="#C0C0C0" transform="translate(868,900)"/>
<path d="M0 0 C3.4375 0.875 3.4375 0.875 5.4375 3.875 C5.65900947 6.40366005 5.76211127 8.78608888 5.75 11.3125 C5.76675781 12.63121094 5.78351563 13.94992187 5.80078125 15.30859375 C5.43003106 18.94832414 5.08512029 20.40719467 2.4375 22.875 C-0.5625 23.3125 -0.5625 23.3125 -3.5625 22.875 C-5.22509766 21.59179688 -5.22509766 21.59179688 -6.5625 19.875 C-6.8606028 16.95242357 -6.98132117 14.29154217 -6.9375 11.375 C-6.94910156 10.60285156 -6.96070313 9.83070313 -6.97265625 9.03515625 C-6.94329126 3.38729061 -6.94329126 3.38729061 -5.26025391 1.12304688 C-3.5625 -0.125 -3.5625 -0.125 0 0 Z " fill="#C1C1C1" transform="translate(1135.5625,900.125)"/>
<path d="M0 0 C3.3 0 6.6 0 10 0 C8.02 2.97 8.02 2.97 6 6 C2.21503862 4.48601545 1.9927802 3.9855604 0 0 Z " fill="#101010" transform="translate(995,697)"/>
</svg>
