<?xml version="1.0" encoding="UTF-8"?>
<svg version="1.1" xmlns="http://www.w3.org/2000/svg" width="64" height="64">
<path d="M0 0 C21.12 0 42.24 0 64 0 C64 21.12 64 42.24 64 64 C42.88 64 21.76 64 0 64 C0 42.88 0 21.76 0 0 Z " fill="#8AD7BC" transform="translate(0,0)"/>
<path d="M0 0 C5.46666137 3.17188748 8.75714409 7.01752602 10.78125 13.08984375 C11.31974036 19.44403002 10.42097798 23.78926902 6.78125 29.08984375 C1.92384394 33.70437951 -2.2086384 35.57011834 -8.83984375 35.40625 C-14.0798658 34.70930125 -17.94587132 32.39621924 -21.59375 28.65234375 C-24.80149066 23.59398348 -26.117846 19.11711694 -25.21875 13.08984375 C-23.08911278 6.74697831 -19.82843813 3.09522605 -13.96875 -0.16015625 C-9.18015565 -1.46613653 -4.67929258 -1.91949854 0 0 Z " fill="#3182C8" transform="translate(39.21875,14.91015625)"/>
<path d="M0 0 C3.02508145 1.73602105 5.41790069 3.83580137 7 7 C7.68128376 13.81283762 7.68128376 13.81283762 5.953125 16.82421875 C2.82207185 20.62752744 1.13366332 21.88663367 -3.75 22.375 C-7.10058068 22.35058775 -8.84894532 21.75601354 -11.4375 19.625 C-14.88331435 16.0951414 -15.39555836 14.0716348 -15.359375 9.10546875 C-14.72418186 5.38406547 -12.66020984 3.59687151 -10 1 C-6.77140153 -0.61429923 -3.49006347 -0.59570657 0 0 Z " fill="#07084B" transform="translate(36,21)"/>
<path d="M0 0 C0.33 0.66 0.66 1.32 1 2 C1.66 2 2.32 2 3 2 C3.33 1.34 3.66 0.68 4 0 C4 0.99 4 1.98 4 3 C4.99 3.66 5.98 4.32 7 5 C7.33 6.010625 7.66 7.02125 8 8.0625 C8.33 9.031875 8.66 10.00125 9 11 C9.99 11.33 10.98 11.66 12 12 C8.73312675 15.26687325 6.61019081 17.35812162 1.875 17.5 C-1.8614738 17.01787435 -3.47726002 16.73296831 -6 14 C-6 13.34 -6 12.68 -6 12 C-5.34 12 -4.68 12 -4 12 C-3.896875 10.88625 -3.79375 9.7725 -3.6875 8.625 C-3.460625 7.42875 -3.23375 6.2325 -3 5 C-2.01 4.34 -1.02 3.68 0 3 C0 2.01 0 1.02 0 0 Z " fill="#090C4E" transform="translate(30,26)"/>
<path d="M0 0 C0.33 1.32 0.66 2.64 1 4 C2.65 4 4.3 4 6 4 C5.6446631 9.92228163 4.24411091 12.85020267 0 17 C-4.93830619 20.36702695 -9.24110366 20.34553378 -15 20 C-11.25 18 -11.25 18 -9 18 C-9.12375 17.2575 -9.2475 16.515 -9.375 15.75 C-9.189375 14.38875 -9.189375 14.38875 -9 13 C-6.125 10.875 -6.125 10.875 -3 9 C-0.87491756 5.81237635 -0.4979837 3.73487777 0 0 Z " fill="#2F80C8" transform="translate(43,30)"/>
<path d="M0 0 C3.2668902 2.15317763 4.8075387 4.45054775 6.75 7.8125 C5 8.5625 5 8.5625 2.75 8.8125 C1.3934836 7.50276002 0.06442362 6.16447858 -1.25 4.8125 C-4.35764053 2.46869429 -4.35764053 2.46869429 -8.25 1.8125 C-10.78554128 3.05635044 -12.83718948 4.53219699 -15.0390625 6.296875 C-17.47653894 7.96779525 -19.34573235 8.42526431 -22.25 8.8125 C-22.58 8.1525 -22.91 7.4925 -23.25 6.8125 C-22.92 6.1525 -22.59 5.4925 -22.25 4.8125 C-21.59 4.8125 -20.93 4.8125 -20.25 4.8125 C-19.92 3.8225 -19.59 2.8325 -19.25 1.8125 C-18.26 1.4825 -17.27 1.1525 -16.25 0.8125 C-15.92 0.4825 -15.59 0.1525 -15.25 -0.1875 C-10.50414084 -3.6045186 -5.04991039 -1.84515956 0 0 Z " fill="#245FA7" transform="translate(40.25,17.1875)"/>
<path d="M0 0 C5.62277774 2.29843371 9.08811385 5.64212949 12 11 C13.28317892 14.84953676 13.06643637 17.94738135 13 22 C10.1875 21.5 10.1875 21.5 7 20 C6.01329894 18.03525315 5.42017533 16.06950061 4.765625 13.97265625 C3.57032557 10.89293069 1.80748947 9.63226132 -1 8 C-4.18762109 7.20309162 -4.18762109 7.20309162 -7 7 C-6.34 5.68 -5.68 4.36 -5 3 C-5 3.66 -5 4.32 -5 5 C-4.37351562 5.17015625 -3.74703125 5.3403125 -3.1015625 5.515625 C-1.87566406 5.87914062 -1.87566406 5.87914062 -0.625 6.25 C0.59316406 6.59804688 0.59316406 6.59804688 1.8359375 6.953125 C4.45785454 8.2214892 4.99382318 9.32423308 6 12 C6.99 11.34 7.98 10.68 9 10 C6.37051309 6.12047456 6.37051309 6.12047456 2.25 4.1875 C1.13625 4.0946875 1.13625 4.0946875 0 4 C0 3.34 0 2.68 0 2 C-3.96 2 -7.92 2 -12 2 C-7.92752973 -0.71498018 -4.78227308 -0.75061568 0 0 Z " fill="#3488CB" transform="translate(37,14)"/>
<path d="M0 0 C0.33 0.66 0.66 1.32 1 2 C1.66 2 2.32 2 3 2 C3.33 1.34 3.66 0.68 4 0 C4 0.99 4 1.98 4 3 C4.99 3.66 5.98 4.32 7 5 C7.6875 8.125 7.6875 8.125 8 11 C7.01 10.67 6.02 10.34 5 10 C4.67 10 4.34 10 4 10 C2.33333333 10 0.66666667 10 -1 10 C-1.99 10.33 -2.98 10.66 -4 11 C-3.6875 8.125 -3.6875 8.125 -3 5 C-2.01 4.34 -1.02 3.68 0 3 C0 2.01 0 1.02 0 0 Z " fill="#466B81" transform="translate(30,26)"/>
<path d="M0 0 C6.98295186 1.5457408 10.97221053 2.95831579 15 9 C13.02 9.99 13.02 9.99 11 11 C10.484375 10.401875 9.96875 9.80375 9.4375 9.1875 C6.43466313 6.4926464 3.75126391 5.44279381 0 4 C0 2.68 0 1.36 0 0 Z " fill="#1E4C93" transform="translate(32,15)"/>
<path d="M0 0 C1.32 0.66 2.64 1.32 4 2 C3.01 3.485 3.01 3.485 2 5 C1.34 5 0.68 5 0 5 C0 5.99 0 6.98 0 8 C-2.31 8.66 -4.62 9.32 -7 10 C-7.33 8.68 -7.66 7.36 -8 6 C-6.68 6 -5.36 6 -4 6 C-4 5.34 -4 4.68 -4 4 C-3.34 4 -2.68 4 -2 4 C-1.34 2.68 -0.68 1.36 0 0 Z " fill="#2665AD" transform="translate(43,38)"/>
<path d="M0 0 C0 0.99 0 1.98 0 3 C-2.75 5.25 -2.75 5.25 -6 7 C-8.375 6.75 -8.375 6.75 -10 6 C-9.67 5.01 -9.34 4.02 -9 3 C-8.01 2.67 -7.02 2.34 -6 2 C-5.67 1.67 -5.34 1.34 -5 1 C-3 0 -3 0 0 0 Z " fill="#1C458C" transform="translate(30,16)"/>
<path d="M0 0 C0.33 0.66 0.66 1.32 1 2 C1.66 2 2.32 2 3 2 C3.33 1.34 3.66 0.68 4 0 C4 0.99 4 1.98 4 3 C4.66 3.66 5.32 4.32 6 5 C6 5.66 6 6.32 6 7 C3.36 7 0.72 7 -2 7 C-2 6.01 -2 5.02 -2 4 C-1.34 3.67 -0.68 3.34 0 3 C0 2.01 0 1.02 0 0 Z " fill="#30496F" transform="translate(30,26)"/>
<path d="M0 0 C0.66 0.33 1.32 0.66 2 1 C2 1.99 2 2.98 2 4 C5.465 3.505 5.465 3.505 9 3 C5.19958418 5.91365213 3.19208393 7.13131548 -1.625 7.0625 C-2.85089844 7.04896484 -2.85089844 7.04896484 -4.1015625 7.03515625 C-5.04128906 7.01775391 -5.04128906 7.01775391 -6 7 C-2.25 5 -2.25 5 0 5 C0 3.35 0 1.7 0 0 Z " fill="#368ACD" transform="translate(34,43)"/>
<path d="M0 0 C0.33 0.66 0.66 1.32 1 2 C3.26256917 2.80584656 5.55079252 3.40518709 7.87109375 4.0234375 C10.52723308 5.24185004 10.87737674 6.37880521 12 9 C12.66 9.33 13.32 9.66 14 10 C13.01 10.33 12.02 10.66 11 11 C10.505 10.21625 10.01 9.4325 9.5 8.625 C6.14255763 5.09968551 3.72708251 4.86663179 -1 4 C-0.67 2.68 -0.34 1.36 0 0 Z " fill="#2B77C0" transform="translate(31,17)"/>
<path d="M0 0 C4.95 0.99 4.95 0.99 10 2 C9.67 2.99 9.34 3.98 9 5 C5.58012972 5 3.05491313 4.52745657 0 3 C0 2.01 0 1.02 0 0 Z " fill="#245FA7" transform="translate(24,43)"/>
<path d="M0 0 C1.9375 0.1875 1.9375 0.1875 4 1 C5.25 3.0625 5.25 3.0625 6 5 C4.68 5.33 3.36 5.66 2 6 C1.01 4.35 0.02 2.7 -1 1 C-0.67 0.67 -0.34 0.34 0 0 Z " fill="#193E84" transform="translate(41,20)"/>
<path d="M0 0 C1.32 1.65 2.64 3.3 4 5 C3.34 5 2.68 5 2 5 C1.67 5.99 1.34 6.98 1 8 C0.01 6.68 -0.98 5.36 -2 4 C-1.34 2.68 -0.68 1.36 0 0 Z " fill="#2564AC" transform="translate(20,37)"/>
</svg>
