<svg version="1.1" id="Layer_1" xmlns="http://www.w3.org/2000/svg" xmlns:xlink="http://www.w3.org/1999/xlink" x="0px" y="0px"
	 width="100%" viewBox="0 0 2000 1500" enable-background="new 0 0 2000 1500" xml:space="preserve">
<path fill="#8BD8BC" opacity="1.000000" stroke="none" 
	d="
M1459.000000,1501.000000 
	C972.666809,1501.000000 486.833618,1501.000000 1.000326,1501.000000 
	C1.000217,1001.000305 1.000217,501.000580 1.000109,1.000661 
	C667.666199,1.000441 1334.332397,1.000441 2000.998901,1.000220 
	C2000.999268,500.999359 2000.999268,1000.998718 2000.999634,1500.999023 
	C1820.500000,1501.000000 1640.000000,1501.000000 1459.000000,1501.000000 
M1490.987793,770.446960 
	C1491.587280,742.443604 1490.856689,714.527954 1487.164551,686.692200 
	C1480.159912,633.882568 1465.130737,583.511108 1441.689941,535.722351 
	C1414.542114,480.376404 1378.250854,431.805664 1332.829102,390.029816 
	C1300.243164,360.059692 1264.385986,334.802704 1224.998291,314.689697 
	C1140.188354,271.382111 1050.240234,254.421387 955.427063,262.842316 
	C915.408325,266.396637 876.490051,274.926453 838.603638,288.218048 
	C773.035095,311.221313 714.991943,346.697693 664.482422,394.318970 
	C618.880249,437.313507 582.708740,487.260101 556.317627,544.176575 
	C519.181885,624.265564 505.037262,708.329773 512.815308,796.192871 
	C516.402588,836.715393 524.973572,876.131653 538.612732,914.444702 
	C565.666748,990.440552 608.760315,1055.871460 667.933044,1110.718506 
	C721.188110,1160.080322 782.384521,1195.820801 851.497620,1218.068848 
	C916.813660,1239.094482 983.674500,1245.492065 1051.800293,1238.760864 
	C1090.892090,1234.898560 1128.978516,1226.178589 1165.998047,1212.894897 
	C1231.727051,1189.309204 1289.811646,1153.332153 1340.213623,1105.073486 
	C1388.367920,1058.967041 1425.642334,1005.196716 1451.934570,943.913147 
	C1475.561401,888.842224 1488.356567,831.275635 1490.987793,770.446960 
z"/>
<path fill="#3185CD" opacity="1.000000" stroke="none" 
	d="
M1490.980225,770.937134 
	C1488.356567,831.275635 1475.561401,888.842224 1451.934570,943.913147 
	C1425.642334,1005.196716 1388.367920,1058.967041 1340.213623,1105.073486 
	C1289.811646,1153.332153 1231.727051,1189.309204 1165.998047,1212.894897 
	C1128.978516,1226.178589 1090.892090,1234.898560 1051.800293,1238.760864 
	C983.674500,1245.492065 916.813660,1239.094482 851.497620,1218.068848 
	C782.384521,1195.820801 721.188110,1160.080322 667.933044,1110.718506 
	C608.760315,1055.871460 565.666748,990.440552 538.612732,914.444702 
	C524.973572,876.131653 516.402588,836.715393 512.815308,796.192871 
	C505.037262,708.329773 519.181885,624.265564 556.317627,544.176575 
	C582.708740,487.260101 618.880249,437.313507 664.482422,394.318970 
	C714.991943,346.697693 773.035095,311.221313 838.603638,288.218048 
	C876.490051,274.926453 915.408325,266.396637 955.427063,262.842316 
	C1050.240234,254.421387 1140.188354,271.382111 1224.998291,314.689697 
	C1264.385986,334.802704 1300.243164,360.059692 1332.829102,390.029816 
	C1378.250854,431.805664 1414.542114,480.376404 1441.689941,535.722351 
	C1465.130737,583.511108 1480.159912,633.882568 1487.164551,686.692200 
	C1490.856689,714.527954 1491.587280,742.443604 1490.980225,770.937134 
M1323.829224,520.895203 
	C1323.640747,520.746887 1323.452271,520.598572 1323.609497,519.859192 
	C1334.451294,506.226685 1345.292969,492.594177 1356.141479,478.953217 
	C1352.215210,473.745300 1348.633179,468.994049 1344.806152,463.917938 
	C1319.127197,483.269684 1293.911255,502.272400 1268.234009,521.622864 
	C1271.046509,525.364075 1273.590576,528.748169 1276.300659,532.353027 
	C1278.881226,530.415405 1280.997803,528.817383 1283.123535,527.231750 
	C1297.658569,516.389343 1312.195435,505.549500 1327.255005,495.211914 
	C1327.441040,495.366577 1327.627075,495.521271 1327.552979,496.305359 
	C1315.028564,512.093933 1302.464111,527.851318 1290.054932,543.729980 
	C1289.059204,545.004028 1288.231812,547.637573 1288.872925,548.738586 
	C1291.010742,552.409729 1293.853027,555.670532 1296.665894,559.408203 
	C1322.428589,539.981934 1347.739502,520.896240 1373.255371,501.656036 
	C1370.332642,497.829987 1367.842896,494.570648 1365.187256,491.094238 
	C1351.327393,501.375336 1337.848389,511.373871 1323.829224,520.895203 
M1286.958618,647.568481 
	C1236.125366,507.934601 1091.151245,422.385498 939.301880,453.246155 
	C775.520935,486.531677 669.013550,648.899475 703.224121,812.750061 
	C737.807800,978.387939 899.937683,1083.626343 1065.726929,1048.050415 
	C1244.375000,1009.714966 1349.501221,819.953369 1286.958618,647.568481 
M654.891296,583.574951 
	C665.027405,589.186157 675.163513,594.797363 685.678467,600.618347 
	C688.277100,595.955261 690.571045,591.838867 692.997314,587.485046 
	C680.791077,580.696777 669.189697,574.244873 657.674438,567.840820 
	C661.062744,557.575134 665.234253,555.740051 674.188904,560.368774 
	C678.770569,562.737000 683.169312,565.459229 687.751221,567.826904 
	C702.586914,575.493042 699.390564,576.071106 707.491821,560.904053 
	C707.554993,560.785767 707.499634,560.604065 707.499634,561.074524 
	C698.600647,556.310791 690.001709,551.620728 681.320435,547.088501 
	C674.582153,543.570740 667.699341,540.739441 661.636169,544.860779 
	C658.581055,540.337097 656.500122,535.360718 652.825623,532.293152 
	C648.196228,528.428345 642.484924,525.586792 636.842957,523.272766 
	C628.806946,519.976807 621.886536,521.661743 616.866394,528.735657 
	C611.241882,536.661072 606.729431,545.375732 601.549377,554.054749 
	C619.626587,564.049988 636.941956,573.624023 654.891296,583.574951 
M1251.195557,466.697144 
	C1249.472046,468.500397 1247.643677,470.215576 1246.042603,472.121490 
	C1237.189209,482.659912 1237.765625,493.379272 1247.642212,503.155243 
	C1257.130371,512.546814 1268.489258,513.281860 1278.261597,504.031891 
	C1291.908813,491.114075 1305.066650,477.668884 1318.171875,464.194489 
	C1322.945435,459.286591 1325.848999,453.162964 1324.318481,446.014160 
	C1322.269653,436.444824 1316.064819,430.069824 1307.170532,426.773804 
	C1298.541748,423.576111 1291.111328,427.055573 1284.930176,433.085785 
	C1273.736938,444.005554 1262.760986,455.148071 1251.195557,466.697144 
M1064.669312,408.025848 
	C1079.566895,411.015869 1089.583862,405.503448 1092.496216,391.342316 
	C1096.344482,372.630829 1099.392578,353.745453 1102.373169,334.869873 
	C1103.422852,328.222321 1101.543457,321.929443 1096.422241,317.094147 
	C1083.070557,304.487640 1061.740845,310.128876 1057.787842,327.952881 
	C1053.726074,346.265747 1050.679932,364.836456 1047.992676,383.410553 
	C1046.087036,396.582092 1051.244263,403.643524 1064.669312,408.025848 
M736.529297,448.978699 
	C742.896484,457.092804 749.118164,465.326874 755.676697,473.283325 
	C760.995544,479.735931 767.532593,484.146301 776.487000,482.311981 
	C795.490417,478.419189 802.712708,459.998352 791.092529,444.599457 
	C780.772583,430.923615 770.092224,417.518066 759.462708,404.078857 
	C757.623535,401.753540 755.402466,399.658661 753.083557,397.799377 
	C748.234009,393.911011 742.564026,392.833282 736.591125,394.221558 
	C718.732910,398.372314 711.925720,416.322845 722.642822,431.056702 
	C726.946350,436.973053 731.592651,442.640106 736.529297,448.978699 
M824.214355,351.206390 
	C823.561951,349.675537 823.168213,347.938690 822.169312,346.683685 
	C821.462891,345.796234 819.700806,344.859680 818.817810,345.156799 
	C815.088928,346.411316 811.513000,348.120087 808.143677,349.551270 
	C808.056885,350.474335 807.902344,350.850128 808.013916,351.112915 
	C817.900818,374.389679 827.799683,397.661346 837.738586,420.915985 
	C838.255493,422.125488 839.057007,423.234375 839.842590,424.304504 
	C843.690857,429.546906 848.646484,432.861450 855.362061,432.968445 
	C873.469666,433.256897 884.116272,418.504913 877.994385,401.608612 
	C877.484619,400.201691 876.887573,398.825348 876.302979,397.446716 
	C868.310974,378.600891 860.319031,359.755035 852.312561,340.915375 
	C851.157410,338.197205 849.926147,335.511353 848.549438,332.402557 
	C843.924316,334.366547 839.746826,336.140442 835.406555,337.983459 
	C836.352356,340.321106 836.950684,341.863556 837.596375,343.385925 
	C845.914917,362.997620 854.255554,382.599915 862.544067,402.224274 
	C863.575500,404.666199 864.648621,407.159729 865.159973,409.736969 
	C866.075256,414.350555 863.686096,417.491455 859.044617,418.316833 
	C853.694946,419.268158 851.648010,415.640411 849.942810,411.635345 
	C841.467102,391.728577 833.010498,371.813629 824.214355,351.206390 
M1204.699341,353.934052 
	C1203.374268,353.391357 1202.049194,352.848663 1200.588501,352.250458 
	C1199.646118,354.073486 1198.857300,355.526642 1198.133057,357.011169 
	C1188.493652,376.765503 1178.875244,396.530029 1169.212280,416.272766 
	C1168.265869,418.206421 1167.224243,420.136139 1165.938477,421.851593 
	C1163.563599,425.020233 1160.406982,425.259552 1157.022949,423.612457 
	C1153.785645,422.036682 1152.235474,419.385681 1153.062744,415.850708 
	C1153.585693,413.615967 1154.599365,411.464233 1155.609375,409.380219 
	C1165.123535,389.750031 1174.687134,370.143829 1184.225586,350.525421 
	C1185.007324,348.917603 1185.708252,347.270447 1186.666504,345.156464 
	C1182.067017,342.923035 1177.828491,340.864929 1173.435303,338.731659 
	C1172.436523,340.587219 1171.687744,341.869751 1171.038574,343.200806 
	C1161.257690,363.256592 1151.464722,383.306580 1141.748779,403.393829 
	C1140.450684,406.077484 1139.239136,408.879852 1138.541016,411.761322 
	C1136.928711,418.415436 1137.782227,424.658813 1142.581665,429.978821 
	C1154.729492,443.444031 1172.070190,441.522552 1180.737915,425.727142 
	C1181.378418,424.559753 1181.970581,423.364655 1182.554565,422.167450 
	C1192.118286,402.560638 1201.682495,382.954102 1211.226807,363.337860 
	C1211.991455,361.765991 1212.612061,360.124115 1213.397949,358.284729 
	C1210.390381,356.756989 1207.882812,355.483215 1204.699341,353.934052 
M1028.717896,401.545197 
	C1035.072632,398.831696 1038.537964,393.780579 1040.084229,387.273041 
	C1043.229126,374.037628 1039.908081,362.608582 1030.444702,352.857269 
	C1026.388184,348.677307 1022.306030,344.487915 1018.635925,339.977051 
	C1015.034607,335.550751 1013.471619,330.365234 1014.760559,324.540100 
	C1015.714783,320.228058 1018.349670,318.331512 1022.652649,318.663269 
	C1026.824463,318.984955 1028.952637,321.379578 1029.132568,325.481262 
	C1029.239380,327.913666 1029.152100,330.354553 1029.152100,333.109589 
	C1034.062012,333.438019 1038.339111,333.724121 1043.197876,334.049133 
	C1043.197876,329.966766 1043.574951,326.335419 1043.128784,322.808197 
	C1041.659424,311.192047 1034.510010,305.138580 1022.385254,304.847351 
	C1009.982971,304.549469 1002.330872,310.372559 999.952820,321.643768 
	C997.608643,332.754425 1000.398499,342.445648 1007.741577,350.888397 
	C1012.111023,355.912201 1016.823792,360.638519 1021.166565,365.684174 
	C1025.568359,370.798401 1026.940308,376.870758 1025.624023,383.454956 
	C1024.780029,387.677277 1022.012573,389.643494 1017.691772,389.380981 
	C1013.331421,389.116028 1010.937256,386.788330 1010.707764,382.454498 
	C1010.552673,379.526825 1010.678223,376.584320 1010.678223,372.795776 
	C1006.496399,372.795776 1002.863647,372.649841 999.256836,372.891693 
	C998.275330,372.957489 996.809326,374.010925 996.517883,374.917297 
	C992.580139,387.163849 1001.143433,401.364197 1013.665405,402.760742 
	C1018.346008,403.282776 1023.205017,402.204590 1028.717896,401.545197 
M1378.209595,563.332458 
	C1378.991821,564.569885 1379.773926,565.807312 1380.895508,567.581543 
	C1384.150146,565.430176 1387.384399,563.704590 1390.132812,561.399719 
	C1399.080444,553.896118 1400.310059,544.932434 1394.157715,534.186340 
	C1388.348877,524.040283 1379.430908,520.403381 1368.841064,523.994446 
	C1357.779663,527.745361 1350.650635,535.377380 1347.305664,546.499390 
	C1345.439087,552.706116 1343.949219,559.026367 1342.072998,565.229858 
	C1340.180786,571.486328 1336.062134,575.912292 1330.032837,578.431824 
	C1325.496582,580.327454 1321.959351,579.111450 1319.883301,575.091553 
	C1317.759888,570.980164 1318.928223,567.658264 1322.582397,565.147217 
	C1324.884155,563.565552 1327.335449,562.201416 1329.922852,560.615112 
	C1327.592163,556.458008 1325.431030,552.603333 1322.911743,548.109680 
	C1318.789185,550.871216 1314.958740,552.927734 1311.737793,555.693909 
	C1303.434937,562.824707 1302.322754,571.926147 1308.066650,582.243774 
	C1313.732178,592.420715 1322.370483,596.469971 1332.621460,593.377930 
	C1344.772705,589.712524 1353.150391,581.982300 1356.797241,569.617920 
	C1358.630737,563.401672 1360.082275,557.071167 1361.977295,550.875183 
	C1363.709717,545.210083 1367.189941,540.852905 1372.830078,538.561401 
	C1377.183350,536.792786 1380.597778,537.944458 1382.616577,541.710876 
	C1384.734863,545.663086 1383.506958,548.784363 1380.121094,551.251038 
	C1378.145142,552.690552 1376.031738,553.941589 1373.844971,555.365356 
	C1375.316284,558.028564 1376.600464,560.352722 1378.209595,563.332458 
M733.074646,515.933594 
	C743.743408,516.739014 752.614319,511.398712 757.434265,501.269135 
	C761.214539,493.324463 759.363464,485.029449 752.009460,477.095459 
	C745.223022,469.773621 737.004333,465.649567 726.843933,465.822815 
	C719.518616,465.947723 712.189026,466.175079 704.867249,466.038910 
	C699.034363,465.930420 694.323730,463.250244 690.853943,458.532318 
	C688.375916,455.162994 688.874756,451.975189 691.731750,449.113464 
	C694.483154,446.357513 697.634888,446.138458 700.790283,448.281433 
	C702.956604,449.752655 704.901489,451.549896 706.753113,453.046082 
	C710.246887,449.880737 713.523376,446.912201 717.479370,443.328064 
	C713.247070,440.170898 709.917664,437.109924 706.082458,434.945160 
	C697.824158,430.283813 689.786865,431.842529 682.453979,438.951416 
	C674.414246,446.745605 672.140564,455.338989 676.541809,463.683289 
	C681.749268,473.556061 689.836243,480.071075 701.204163,480.957794 
	C709.298218,481.589142 717.485168,481.000793 725.630615,481.010529 
	C732.357239,481.018585 737.941589,483.577240 742.242615,488.778259 
	C745.071716,492.199219 745.323792,495.725769 742.228821,499.117462 
	C739.133911,502.509064 735.603149,502.724701 732.012207,499.971069 
	C729.778320,498.258026 727.741150,496.288483 726.252869,494.989960 
	C722.672485,498.111633 719.240540,501.103851 714.599976,505.149902 
	C721.042297,509.028748 726.644165,512.401611 733.074646,515.933594 
M974.599792,393.913116 
	C974.258667,392.148102 973.917480,390.383087 973.515564,388.303955 
	C964.981201,389.383209 956.684143,390.432434 947.955261,391.536285 
	C946.554565,381.473511 945.263245,372.196198 943.940735,362.694672 
	C951.021484,361.621246 957.375427,360.657959 964.228943,359.618958 
	C963.604919,354.960938 963.042480,350.762878 962.434875,346.227112 
	C955.433167,347.130890 948.925842,347.970856 941.951538,348.871094 
	C940.790649,340.414642 939.695251,332.435028 938.543518,324.045166 
	C947.421509,322.714081 955.567810,321.492676 963.782104,320.261078 
	C963.782104,318.746857 963.887939,317.755157 963.765869,316.792297 
	C962.513733,306.913910 962.489502,306.808777 952.692810,308.082245 
	C942.511108,309.405762 932.359802,310.963501 921.587402,312.505859 
	C926.049133,344.262848 930.437073,375.494995 934.921265,407.412018 
	C948.733704,405.483887 961.970459,403.636108 975.469666,401.751740 
	C975.187134,399.005768 974.967468,396.870667 974.599792,393.913116 
M700.041321,550.445251 
	C703.343384,552.877380 706.645508,555.309509 710.174072,557.908508 
	C718.475769,546.879456 726.460571,536.271423 734.819214,525.166748 
	C730.998718,522.299255 727.522400,519.690125 723.900696,516.971863 
	C718.457458,524.135193 713.457458,530.715332 708.168457,537.675720 
	C700.133057,531.568481 692.549438,525.804749 684.841003,519.945984 
	C689.184509,514.079346 693.028687,508.887115 697.098145,503.390625 
	C693.393982,500.635834 689.979492,498.096527 686.237976,495.313934 
	C681.908081,500.944153 677.889526,506.169495 673.686035,511.635406 
	C666.802246,506.454132 660.330994,501.583313 653.570679,496.494934 
	C658.913452,489.352478 663.954224,482.613739 669.159241,475.655457 
	C665.285645,472.791382 661.874695,470.269379 658.171204,467.531097 
	C649.780396,478.666046 641.723999,489.357208 633.494019,500.278778 
	C655.877747,517.147034 677.677856,533.575439 700.041321,550.445251 
M770.745911,1118.285156 
	C770.055908,1119.725830 769.365967,1121.166382 768.510132,1122.953247 
	C770.909241,1124.238525 772.899536,1125.304810 775.343506,1126.614136 
	C781.579651,1115.427368 787.613342,1104.603882 793.591797,1093.879395 
	C803.669312,1097.592896 803.554382,1097.598511 804.012695,1107.044800 
	C804.513245,1117.361206 805.738770,1127.667236 805.709106,1137.975220 
	C805.691528,1144.073975 808.851257,1145.983521 814.235535,1147.681396 
	C813.419250,1132.914429 812.629395,1118.625732 811.827332,1104.116455 
	C825.016357,1107.027222 832.372681,1106.021729 837.943848,1099.065063 
	C841.810364,1094.236816 844.916687,1088.452759 846.971863,1082.606812 
	C849.678528,1074.907715 847.567871,1066.935303 841.226624,1062.203125 
	C832.145325,1055.426147 821.899414,1050.209839 811.856018,1044.149170 
	C797.901306,1069.300903 784.496155,1093.461914 770.745911,1118.285156 
M873.056702,324.590485 
	C869.554688,325.536804 866.052612,326.483124 862.283752,327.501587 
	C862.992310,330.465179 863.750427,333.007690 864.185913,335.604340 
	C864.847900,339.552124 866.578918,341.043732 870.665466,339.498413 
	C873.741699,338.335144 877.044983,337.772461 880.848450,336.786560 
	C887.983032,363.300964 895.049927,389.564056 902.174011,416.039551 
	C905.815430,415.060913 908.811646,413.991699 911.900024,413.491577 
	C915.879639,412.847168 916.546387,411.108612 915.499146,407.309814 
	C909.350098,385.005127 903.436340,362.635468 897.467529,340.281250 
	C896.837524,337.921814 896.365540,335.520203 895.752380,332.841705 
	C900.777222,331.382507 905.351990,330.053986 910.489990,328.561920 
	C909.643921,325.231201 908.698914,322.252563 908.164368,319.202057 
	C907.611938,316.048950 906.100220,315.595428 903.241333,316.398956 
	C893.467468,319.146088 883.638367,321.696838 873.056702,324.590485 
M1227.031250,421.541260 
	C1233.087769,412.260315 1239.144287,402.979401 1245.320312,393.515442 
	C1250.038574,396.405762 1254.216309,398.964935 1258.692993,401.707245 
	C1261.233032,397.789459 1263.471924,394.336029 1266.019409,390.406677 
	C1252.903931,381.892761 1240.152222,373.614929 1226.985352,365.067627 
	C1224.342896,369.158966 1222.054321,372.702209 1219.634399,376.449066 
	C1224.155762,379.520844 1228.228271,382.287659 1232.581787,385.245453 
	C1217.607056,408.337219 1202.893799,431.025940 1187.953125,454.065369 
	C1192.343262,456.894623 1196.327515,459.462341 1200.613281,462.224335 
	C1209.447510,448.623810 1218.044922,435.387817 1227.031250,421.541260 
M916.995300,1088.364258 
	C913.947449,1087.533081 910.928955,1086.567505 907.846558,1085.894531 
	C896.236145,1083.359985 885.269592,1089.321289 881.956970,1100.684814 
	C877.302856,1116.650391 872.992981,1132.728394 869.031128,1148.879761 
	C866.265320,1160.154541 872.642578,1170.664062 883.565674,1174.590210 
	C891.622314,1177.485840 899.445557,1178.002808 906.883484,1172.670898 
	C908.427551,1175.827515 909.709229,1178.447632 910.990845,1181.067749 
	C911.516907,1180.973999 912.042969,1180.880249 912.568970,1180.786621 
	C916.390503,1166.398071 920.241882,1152.017212 923.942322,1137.597534 
	C924.121399,1136.899780 923.143372,1135.286865 922.416687,1135.071777 
	C916.102234,1133.203491 909.722046,1131.557373 903.064087,1129.765381 
	C902.341125,1132.564331 901.782471,1134.727417 901.171692,1137.092407 
	C904.778687,1138.135254 907.754395,1139.216797 910.824158,1139.820190 
	C913.807007,1140.406494 914.733643,1141.757568 913.871765,1144.673462 
	C912.504639,1149.298584 911.448547,1154.017578 910.017578,1158.621216 
	C907.254761,1167.510010 900.365479,1171.010376 890.739807,1168.602661 
	C879.816528,1165.870605 874.816223,1159.722656 877.097168,1150.308594 
	C880.934448,1134.471680 885.358459,1118.773926 889.704468,1103.064331 
	C891.346741,1097.127808 895.795410,1093.987549 901.697693,1093.203369 
	C915.258179,1091.401733 924.235474,1100.754395 922.035095,1114.158813 
	C921.905945,1114.945312 921.927063,1115.756348 921.883728,1116.466553 
	C928.770996,1119.118408 929.994934,1118.436523 930.878662,1111.712402 
	C932.143738,1102.087036 927.258667,1093.568726 916.995300,1088.364258 
M1263.055054,1105.782715 
	C1265.792236,1103.891602 1268.645630,1102.146851 1271.246338,1100.083862 
	C1281.914185,1091.621216 1283.727905,1079.213013 1275.689575,1068.304688 
	C1266.401245,1055.699951 1256.892578,1043.257080 1247.431152,1030.780640 
	C1242.400513,1024.146973 1235.516113,1020.518005 1227.417236,1022.175964 
	C1222.137573,1023.256775 1216.874268,1026.116699 1212.448730,1029.340088 
	C1200.867920,1037.775635 1199.324707,1050.573364 1207.934082,1062.110596 
	C1216.900146,1074.125732 1225.913208,1086.106323 1234.994507,1098.034424 
	C1242.306519,1107.638550 1250.895508,1110.097168 1263.055054,1105.782715 
M777.909607,377.560303 
	C776.295044,374.927216 774.680420,372.294159 772.907349,369.402557 
	C768.324829,372.054626 764.250732,374.412537 760.037109,376.851135 
	C776.222290,404.859314 792.001526,432.165070 808.020325,459.885284 
	C819.796204,453.084259 830.959229,446.637177 842.511658,439.965210 
	C840.107727,435.778198 838.000122,432.107422 835.731323,428.155731 
	C828.301025,432.364319 821.415771,436.264191 814.174255,440.365814 
	C802.030273,419.351257 790.141785,398.778717 777.909607,377.560303 
M1131.795532,410.837708 
	C1126.896362,409.228302 1122.086182,407.206757 1117.073486,406.122589 
	C1111.806641,404.983490 1111.561646,402.625824 1113.102417,398.055328 
	C1120.115723,377.251007 1126.792725,356.333313 1133.597412,335.458527 
	C1136.732666,325.840210 1136.686035,326.001038 1126.822876,322.674866 
	C1123.272827,321.477631 1121.923828,322.214691 1120.803711,325.767670 
	C1115.152222,343.693237 1109.232788,361.534210 1103.421143,379.409393 
	C1099.882568,390.293213 1096.369141,401.185181 1092.705444,412.502899 
	C1105.525146,416.664520 1117.919067,420.687927 1130.547974,424.787659 
	C1131.799927,421.020782 1133.034668,417.925995 1133.778442,414.717377 
	C1134.024414,413.655487 1133.005737,412.300446 1131.795532,410.837708 
M945.032959,1107.484985 
	C942.810547,1133.113525 940.588135,1158.741943 938.372559,1184.290894 
	C946.525879,1185.983032 946.454224,1185.929810 947.031738,1178.575195 
	C947.900818,1167.506348 948.973999,1156.453613 950.015930,1144.771851 
	C961.581848,1145.801270 972.572083,1146.779541 983.950073,1147.792236 
	C983.765625,1150.245117 983.649109,1152.031494 983.494080,1153.814453 
	C982.672363,1163.263428 981.748352,1172.704590 981.043701,1182.162354 
	C980.521545,1189.171509 980.870605,1189.384521 988.621094,1188.510742 
	C991.177307,1159.213501 993.743103,1129.806396 996.329407,1100.164795 
	C993.349670,1099.803955 991.108459,1099.532593 988.363708,1099.200195 
	C987.090637,1113.053223 985.867004,1126.368408 984.610840,1140.037109 
	C973.072937,1138.986084 962.071533,1137.983887 950.712341,1136.949097 
	C951.876526,1122.994629 952.975586,1109.820435 954.105469,1096.276367 
	C950.991333,1096.276367 948.625183,1096.276367 946.177795,1096.276367 
	C945.786133,1099.954712 945.434204,1103.260132 945.032959,1107.484985 
M1186.860352,1053.617310 
	C1183.651001,1047.829102 1181.407227,1053.425293 1178.042847,1054.032715 
	C1184.308228,1066.440796 1190.323608,1078.353882 1196.477783,1090.541748 
	C1186.104492,1095.822998 1176.366943,1100.780640 1166.112305,1106.001465 
	C1159.788086,1093.701294 1153.673462,1081.808716 1147.373901,1069.556396 
	C1144.783203,1071.007202 1142.703735,1072.171875 1140.358643,1073.485229 
	C1153.966675,1100.179077 1167.307373,1126.348511 1180.849854,1152.913818 
	C1183.548584,1151.555298 1185.665405,1150.489746 1188.046631,1149.291016 
	C1181.800293,1136.967041 1175.814819,1125.157471 1169.620850,1112.936768 
	C1179.915771,1107.684692 1189.754028,1102.665649 1200.008789,1097.434204 
	C1206.332764,1109.748169 1212.376831,1121.516968 1218.642700,1133.717773 
	C1221.196655,1132.334351 1223.280273,1131.205688 1225.715576,1129.886475 
	C1212.691284,1104.350220 1199.927734,1079.325195 1186.860352,1053.617310 
M725.327454,993.819458 
	C730.134888,990.021606 734.942322,986.223694 740.041199,982.195557 
	C738.337769,979.977844 736.867310,978.063416 735.179443,975.865967 
	C724.237000,984.356018 713.665466,992.558228 702.838440,1000.958740 
	C695.643555,991.731018 688.922546,983.111084 681.874695,974.071899 
	C692.791748,965.495911 703.318604,957.226379 714.028381,948.813171 
	C712.134766,946.431763 710.721924,944.654846 709.016663,942.510254 
	C685.365112,960.994202 662.084351,979.188293 638.575012,997.561096 
	C640.393738,999.859558 641.811646,1001.651428 643.571167,1003.875061 
	C654.402222,995.447327 664.960266,987.231934 675.757812,978.830261 
	C682.919983,988.013672 689.726440,996.741028 696.768799,1005.770935 
	C685.794861,1014.368103 675.359619,1022.543152 664.648010,1030.934814 
	C666.474731,1033.247437 667.964172,1035.133179 669.649902,1037.267334 
	C688.278625,1022.718079 706.514648,1008.475464 725.327454,993.819458 
M1350.526733,961.028687 
	C1348.427856,959.802795 1346.328979,958.576965 1344.026123,957.231934 
	C1349.574707,947.143372 1354.913940,937.435547 1360.409790,927.442993 
	C1357.973755,926.070862 1356.018066,924.969360 1353.792114,923.715515 
	C1348.122070,933.849731 1342.713135,943.517090 1337.090820,953.566040 
	C1327.231934,948.098755 1317.866211,942.904968 1308.114868,937.497314 
	C1315.071777,924.889893 1321.707886,912.863892 1328.503662,900.548462 
	C1326.050293,899.182495 1324.089478,898.090637 1321.805176,896.818787 
	C1313.606323,911.610962 1305.650269,925.965149 1297.401733,940.846924 
	C1323.625488,955.386230 1349.460693,969.710083 1375.727539,984.273254 
	C1383.926514,969.483093 1391.948975,955.011475 1400.146973,940.223145 
	C1397.720459,938.896301 1395.748047,937.817749 1393.420898,936.545288 
	C1386.493164,948.986145 1379.804443,960.997742 1372.901367,973.394348 
	C1365.364868,969.225037 1358.267212,965.298523 1350.526733,961.028687 
M775.176575,1027.338745 
	C776.619995,1028.605591 778.063354,1029.872437 779.732849,1031.337646 
	C781.563293,1029.226929 783.024536,1027.541992 784.683777,1025.628662 
	C772.235840,1014.027466 760.234131,1002.842163 747.948181,991.391968 
	C727.353943,1013.490173 707.217468,1035.097168 686.885071,1056.914429 
	C699.399536,1068.570190 711.424683,1079.770142 723.735657,1091.236328 
	C725.533691,1089.239136 727.049866,1087.554932 728.836670,1085.570190 
	C718.528198,1075.896240 708.494934,1066.480469 698.122620,1056.746582 
	C705.794617,1048.533203 713.119690,1040.691162 720.688416,1032.588257 
	C729.189758,1040.457275 737.317139,1047.980103 745.728027,1055.765381 
	C747.597168,1053.721313 749.091003,1052.087646 750.820679,1050.196167 
	C742.367065,1042.213745 734.305542,1034.601562 726.038879,1026.795776 
	C733.791931,1018.491211 741.117615,1010.644409 748.650391,1002.575806 
	C757.638062,1010.975342 766.141785,1018.922607 775.176575,1027.338745 
M1122.682495,1173.081055 
	C1128.457764,1171.710693 1134.529663,1171.053955 1139.940308,1168.805908 
	C1148.463745,1165.264648 1152.973999,1156.024292 1151.945923,1146.644165 
	C1151.166870,1139.536499 1149.485474,1138.545288 1142.810913,1141.093262 
	C1143.148315,1144.732666 1144.097046,1148.391846 1143.683472,1151.889771 
	C1142.851196,1158.930420 1136.949707,1163.367676 1127.438110,1164.997314 
	C1119.736084,1166.316895 1113.301636,1162.921997 1110.908081,1155.473755 
	C1105.921509,1139.956787 1101.174683,1124.358643 1096.610107,1108.711914 
	C1094.555176,1101.667603 1098.184692,1094.822876 1104.937012,1092.030518 
	C1107.229370,1091.082397 1109.658447,1090.413818 1112.076050,1089.828613 
	C1119.551025,1088.019043 1126.050903,1091.397339 1128.997803,1098.523438 
	C1129.667847,1100.143433 1130.307251,1101.776123 1131.085938,1103.714478 
	C1133.696289,1102.466187 1135.752197,1101.483032 1137.715820,1100.543945 
	C1135.965698,1090.298096 1129.574585,1083.025757 1119.898193,1082.015625 
	C1114.674805,1081.470459 1109.009888,1082.658936 1103.881714,1084.193359 
	C1091.405029,1087.926758 1085.340088,1099.648926 1089.054321,1112.179810 
	C1093.497559,1127.169678 1098.142090,1142.100342 1102.780762,1157.031494 
	C1105.686035,1166.383179 1112.038208,1171.764282 1122.682495,1173.081055 
M1278.196411,964.661499 
	C1276.197388,967.111694 1274.051514,969.457703 1272.225342,972.030579 
	C1265.378784,981.676697 1266.734497,994.100464 1275.838257,1001.697449 
	C1288.362671,1012.148987 1301.045410,1022.419495 1313.880493,1032.486938 
	C1322.449097,1039.207764 1334.183960,1038.731445 1341.852905,1031.603516 
	C1344.633667,1029.019165 1347.064453,1025.975464 1349.266724,1022.866394 
	C1356.824951,1012.195618 1353.733643,998.280884 1342.156006,991.179626 
	C1340.417969,992.759216 1338.616577,994.396240 1337.495483,995.415161 
	C1340.230835,999.825012 1343.480469,1003.404907 1344.821045,1007.595581 
	C1347.104126,1014.732422 1342.494141,1019.943970 1337.900146,1024.701050 
	C1332.922607,1029.855469 1325.391479,1030.991821 1319.733154,1026.603394 
	C1306.451904,1016.303162 1293.380493,1005.717957 1280.519165,994.897461 
	C1274.983643,990.240417 1274.534912,982.811829 1278.440796,976.744446 
	C1286.317383,964.508850 1295.968018,962.554260 1305.738281,971.334595 
	C1305.928589,971.505676 1306.331787,971.440063 1306.637695,971.470764 
	C1311.359253,964.968567 1311.147949,964.028687 1304.154663,960.425293 
	C1295.743408,956.091370 1286.799683,957.402161 1278.196411,964.661499 
M1272.262573,402.759491 
	C1253.350830,426.126282 1234.439087,449.493073 1215.335327,473.097137 
	C1219.505859,476.448883 1223.094604,479.333160 1227.082031,482.537689 
	C1247.331543,457.531769 1267.271606,432.907928 1287.412354,408.036377 
	C1283.312012,404.719635 1279.726562,401.819427 1275.902466,398.726166 
	C1274.676514,400.066833 1273.695068,401.140015 1272.262573,402.759491 
M1034.043945,1131.285767 
	C1033.642700,1124.973633 1033.554810,1118.620605 1032.738037,1112.362671 
	C1032.119751,1107.624512 1033.854492,1106.148315 1038.303223,1106.074463 
	C1043.363403,1105.990234 1048.414917,1105.390503 1053.716919,1104.996582 
	C1053.376099,1102.048828 1053.135620,1099.968384 1052.848389,1097.484131 
	C1035.864380,1098.688477 1019.352234,1099.859253 1002.443542,1101.058350 
	C1002.747620,1103.943970 1002.981079,1106.158936 1003.235962,1108.577515 
	C1010.343567,1108.161255 1016.927490,1107.775757 1024.208984,1107.349365 
	C1026.150146,1134.580688 1028.071167,1161.529053 1030.029297,1188.999268 
	C1033.067139,1188.614868 1035.414429,1188.317749 1038.094360,1187.978638 
	C1036.732910,1169.040039 1035.409424,1150.630493 1034.043945,1131.285767 
M622.103821,948.643982 
	C619.068726,950.273071 616.033630,951.902222 612.631897,953.728210 
	C614.113342,956.259949 615.313232,958.310425 616.686768,960.657715 
	C640.944275,947.781982 664.672241,935.187256 688.668701,922.450073 
	C692.230713,929.022095 695.446045,934.954468 698.809998,941.161194 
	C701.271912,939.798279 703.228333,938.715271 705.486023,937.465454 
	C697.419617,922.310730 689.622314,907.661621 681.695496,892.769165 
	C679.243103,894.116699 677.241821,895.216370 674.992188,896.452454 
	C678.299805,902.757690 681.440918,908.745483 684.848450,915.241089 
	C663.819519,926.423767 643.280823,937.345764 622.103821,948.643982 
M1388.170166,802.027588 
	C1388.790283,803.382812 1389.285034,804.813721 1390.051147,806.080688 
	C1394.440430,813.339233 1403.426880,816.387390 1411.267212,813.345642 
	C1419.158203,810.284485 1424.010376,801.741760 1422.361084,793.814087 
	C1420.350098,784.148071 1411.384155,777.753967 1402.278564,779.492126 
	C1391.683960,781.514465 1385.878296,790.360107 1388.170166,802.027588 
M585.808594,783.237427 
	C578.986572,789.829834 577.441467,797.184814 581.276428,804.811462 
	C584.561218,811.343872 592.081177,815.440186 598.922302,814.423645 
	C606.559387,813.288818 612.217102,808.309326 614.022461,801.133545 
	C615.810364,794.026672 613.094482,786.905884 606.867615,782.374512 
	C600.859314,778.002197 593.868835,778.150757 585.808594,783.237427 
M848.297791,1119.747314 
	C843.492737,1131.710083 838.687683,1143.672729 833.783752,1155.881470 
	C836.503540,1156.964233 838.618103,1157.806030 841.212769,1158.838989 
	C842.020508,1156.897339 842.717590,1155.263062 843.382874,1153.616089 
	C853.033264,1129.722778 862.681519,1105.828491 872.325623,1081.932739 
	C875.043213,1075.199219 874.966187,1075.074707 867.045227,1073.412231 
	C860.927734,1088.580811 854.781555,1103.820557 848.297791,1119.747314 
M1293.047974,1054.452515 
	C1297.589111,1058.803955 1302.130249,1063.155518 1306.772827,1067.604248 
	C1308.428345,1066.109009 1310.238037,1064.474365 1312.246826,1062.660034 
	C1291.264160,1040.946289 1270.741089,1019.708130 1249.701782,997.935669 
	C1247.633789,1000.068359 1246.060791,1001.690491 1244.090698,1003.722229 
	C1260.508911,1020.735901 1276.532349,1037.340454 1293.047974,1054.452515 
z"/>
<path fill="#07054A" opacity="1.000000" stroke="none" 
	d="
M1287.066162,647.944458 
	C1349.501221,819.953369 1244.375000,1009.714966 1065.726929,1048.050415 
	C899.937683,1083.626343 737.807800,978.387939 703.224121,812.750061 
	C669.013550,648.899475 775.520935,486.531677 939.301880,453.246155 
	C1091.151245,422.385498 1236.125366,507.934601 1287.066162,647.944458 
M972.500000,717.808838 
	C950.169983,717.812561 927.838928,717.683960 905.510376,717.865784 
	C890.175476,717.990601 878.374268,729.849487 878.063416,745.154419 
	C877.894287,753.483276 877.901978,761.820496 878.057129,770.149780 
	C878.248718,780.434814 882.952454,788.268921 891.571716,793.797424 
	C892.783813,794.574829 894.029297,795.300232 895.610291,796.263489 
	C890.757568,801.435547 886.091919,806.176514 881.720093,811.174561 
	C879.796753,813.373474 878.081909,813.691223 875.286316,812.952026 
	C856.213257,807.909180 837.276367,818.739075 831.873108,837.567505 
	C826.546997,856.127197 836.830017,875.176331 855.428345,881.214844 
	C856.957886,881.711487 858.472229,882.254639 860.153748,882.831055 
	C860.153748,885.550537 859.993042,888.055969 860.191711,890.532532 
	C860.484253,894.178833 862.530334,896.571655 866.273743,896.469604 
	C869.973267,896.368774 871.970337,894.041565 872.038330,890.274780 
	C872.085327,887.665222 872.047363,885.054077 872.047363,882.618591 
	C886.820496,879.006775 896.595154,870.707703 900.510803,856.602783 
	C904.429321,842.487366 899.893066,830.448120 889.620850,820.143494 
	C895.754944,813.584717 901.494995,807.105347 907.665955,801.066162 
	C909.422485,799.347168 912.424500,798.038330 914.868164,798.017029 
	C940.029602,797.798279 965.193665,797.878357 990.356995,797.894714 
	C991.797424,797.895691 993.237732,798.067505 994.816711,798.168640 
	C994.816711,802.941589 994.816711,807.376343 994.816711,811.895447 
	C976.945251,816.702759 965.828491,827.876770 965.493164,846.505432 
	C965.141357,866.046326 976.497375,877.723938 995.021423,882.812927 
	C995.021423,885.238708 995.032471,887.398438 995.019165,889.557983 
	C994.993591,893.702759 996.892639,896.511597 1001.136902,896.460815 
	C1005.106262,896.413330 1006.952881,893.685547 1006.974243,889.775146 
	C1006.987671,887.328186 1006.976807,884.881104 1006.976807,882.622803 
	C1025.048218,877.722961 1035.408569,865.871399 1036.687744,849.216431 
	C1037.953003,832.739685 1029.014160,821.321350 1007.264771,811.602295 
	C1007.264771,807.147827 1007.264771,802.714600 1007.264771,798.264160 
	C1007.998840,798.107605 1008.467285,797.920593 1008.935852,797.920227 
	C1035.598877,797.898499 1062.261963,797.877869 1088.924805,797.930847 
	C1090.144287,797.933289 1091.751343,798.237610 1092.520386,799.035278 
	C1099.202759,805.966919 1105.734619,813.043640 1112.399048,820.170959 
	C1101.921997,830.660278 1097.551758,842.746277 1101.546997,856.878601 
	C1105.575317,871.128235 1115.759033,879.239990 1129.946533,882.718445 
	C1129.946533,885.396484 1129.945923,887.720154 1129.946777,890.043884 
	C1129.948120,893.784485 1131.785400,896.260132 1135.494995,896.451355 
	C1139.491699,896.657349 1141.581787,894.136230 1141.829468,890.255981 
	C1141.995728,887.651001 1141.861206,885.026794 1141.861206,882.610535 
	C1163.032227,876.730103 1173.942993,860.901917 1170.984253,841.168701 
	C1167.995972,821.237305 1147.306763,807.754883 1127.370483,812.644714 
	C1125.627075,813.072388 1122.925903,813.518066 1121.974487,812.601257 
	C1116.632202,807.453247 1111.690063,801.889771 1106.248413,796.080627 
	C1120.792114,789.132019 1125.003418,777.376343 1124.032227,762.846313 
	C1123.710693,758.035095 1123.986572,753.184326 1123.980591,748.351624 
	C1123.956787,729.130127 1112.763794,717.827454 1093.683838,717.813843 
	C1066.520752,717.794495 1039.357666,717.808838 1012.194641,717.808777 
	C1010.462341,717.808777 1008.730042,717.808777 1006.364746,717.808777 
	C1007.159241,716.394897 1007.395935,715.784546 1007.789490,715.302124 
	C1012.949463,708.976685 1018.337952,702.821350 1023.174500,696.258850 
	C1024.513062,694.442688 1025.185181,691.039673 1024.390625,689.085388 
	C1023.725769,687.450256 1020.560120,686.269531 1018.349548,685.953552 
	C1014.797119,685.445801 1011.119080,685.817383 1007.353882,685.817383 
	C1007.353882,680.419373 1007.353882,675.549133 1007.353882,670.661804 
	C1008.334045,670.414795 1008.963013,670.220764 1009.605713,670.099365 
	C1036.857300,664.947388 1054.016113,638.999573 1048.037842,611.973022 
	C1042.893677,588.717224 1020.674866,572.446350 997.077515,574.654602 
	C972.389648,576.965027 953.624817,596.523254 952.858887,620.742920 
	C952.101929,644.677734 967.870789,664.859253 991.237122,670.016418 
	C992.588989,670.314880 994.743896,671.430359 994.818176,672.309753 
	C995.188477,676.691956 994.987427,681.122437 994.987427,685.808838 
	C992.412170,685.808838 990.584778,685.668884 988.786133,685.837158 
	C984.702271,686.219116 979.561768,684.036743 977.250488,689.302917 
	C975.023438,694.377075 979.539734,697.179565 982.098999,700.449158 
	C986.436768,705.991150 990.982300,711.370544 996.251038,717.808777 
	C987.714783,717.808777 980.607300,717.808777 972.500000,717.808838 
M860.115295,907.967102 
	C860.118713,911.297607 859.981934,914.635681 860.162415,917.956543 
	C860.370728,921.789001 862.283752,924.339417 866.412048,924.170715 
	C870.240723,924.014282 871.978638,921.582214 872.047241,917.900452 
	C872.106262,914.737549 871.992676,911.570740 872.084045,908.409302 
	C872.191895,904.673767 871.125916,901.607910 867.034241,901.050903 
	C862.718750,900.463501 860.612183,902.988770 860.115295,907.967102 
M1138.442383,923.756714 
	C1142.233398,920.307739 1143.743652,906.533875 1140.274536,903.135132 
	C1138.888916,901.777588 1135.911377,900.848267 1134.171997,901.385742 
	C1132.441650,901.920471 1130.516724,904.386108 1130.168335,906.279358 
	C1129.519531,909.804810 1129.883301,913.530762 1129.952271,917.170837 
	C1130.054810,922.590149 1131.960327,924.209961 1138.442383,923.756714 
M1004.399231,901.976379 
	C999.317383,900.186401 995.693054,901.519165 995.236267,905.891846 
	C994.771667,910.338806 994.653564,914.951721 995.370911,919.330261 
	C995.669922,921.155396 998.382385,923.614685 1000.252686,923.862915 
	C1002.116028,924.110291 1005.810181,922.231384 1006.079285,920.794006 
	C1007.215454,914.723511 1008.570801,908.384277 1004.399231,901.976379 
z"/>
<path fill="#08074C" opacity="1.000000" stroke="none" 
	d="
M1326.731689,494.708801 
	C1312.195435,505.549500 1297.658569,516.389343 1283.123535,527.231750 
	C1280.997803,528.817383 1278.881226,530.415405 1276.300659,532.353027 
	C1273.590576,528.748169 1271.046509,525.364075 1268.234009,521.622864 
	C1293.911255,502.272400 1319.127197,483.269684 1344.806152,463.917938 
	C1348.633179,468.994049 1352.215210,473.745300 1356.141479,478.953217 
	C1345.292969,492.594177 1334.451294,506.226685 1323.281738,520.298279 
	C1322.755371,520.941345 1322.586670,521.167603 1322.263550,521.659180 
	C1322.073120,522.285217 1322.067139,522.668274 1321.881348,522.998718 
	C1321.789307,522.954163 1321.876831,522.962280 1322.224121,522.941528 
	C1322.713379,522.663940 1322.942871,522.415161 1323.411743,522.101318 
	C1323.966187,521.896912 1324.205688,521.675598 1324.369507,521.372437 
	C1337.848389,511.373871 1351.327393,501.375336 1365.187256,491.094238 
	C1367.842896,494.570648 1370.332642,497.829987 1373.255371,501.656036 
	C1347.739502,520.896240 1322.428589,539.981934 1296.665894,559.408203 
	C1293.853027,555.670532 1291.010742,552.409729 1288.872925,548.738586 
	C1288.231812,547.637573 1289.059204,545.004028 1290.054932,543.729980 
	C1302.464111,527.851318 1315.028564,512.093933 1327.895508,495.840576 
	C1328.517700,494.939514 1328.797363,494.503265 1329.303223,493.957092 
	C1329.681396,493.555328 1329.833496,493.263550 1330.127686,492.885223 
	C1330.198364,492.888916 1330.126831,492.979126 1329.790039,492.939880 
	C1329.185547,492.992432 1328.846191,493.174377 1328.239990,493.457703 
	C1327.559204,493.942322 1327.145386,494.325562 1326.731689,494.708801 
z"/>
<path fill="#08074C" opacity="1.000000" stroke="none" 
	d="
M654.574341,583.386475 
	C636.941956,573.624023 619.626587,564.049988 601.549377,554.054749 
	C606.729431,545.375732 611.241882,536.661072 616.866394,528.735657 
	C621.886536,521.661743 628.806946,519.976807 636.842957,523.272766 
	C642.484924,525.586792 648.196228,528.428345 652.825623,532.293152 
	C656.500122,535.360718 658.581055,540.337097 661.636169,544.860779 
	C667.699341,540.739441 674.582153,543.570740 681.320435,547.088501 
	C690.001709,551.620728 698.600647,556.310791 707.499634,561.074524 
	C707.499634,560.604065 707.554993,560.785767 707.491821,560.904053 
	C699.390564,576.071106 702.586914,575.493042 687.751221,567.826904 
	C683.169312,565.459229 678.770569,562.737000 674.188904,560.368774 
	C665.234253,555.740051 661.062744,557.575134 657.674438,567.840820 
	C669.189697,574.244873 680.791077,580.696777 692.997314,587.485046 
	C690.571045,591.838867 688.277100,595.955261 685.678467,600.618347 
	C675.163513,594.797363 665.027405,589.186157 654.574341,583.386475 
M622.221436,547.964417 
	C629.668213,552.212219 637.114990,556.460022 644.447998,560.642883 
	C649.015869,554.931519 650.524963,550.872498 648.257812,548.036926 
	C643.658325,542.284363 637.388062,538.430664 630.059021,538.021362 
	C624.573425,537.714966 623.512817,543.215820 622.221436,547.964417 
z"/>
<path fill="#08074C" opacity="1.000000" stroke="none" 
	d="
M1251.444946,466.447388 
	C1262.760986,455.148071 1273.736938,444.005554 1284.930176,433.085785 
	C1291.111328,427.055573 1298.541748,423.576111 1307.170532,426.773804 
	C1316.064819,430.069824 1322.269653,436.444824 1324.318481,446.014160 
	C1325.848999,453.162964 1322.945435,459.286591 1318.171875,464.194489 
	C1305.066650,477.668884 1291.908813,491.114075 1278.261597,504.031891 
	C1268.489258,513.281860 1257.130371,512.546814 1247.642212,503.155243 
	C1237.765625,493.379272 1237.189209,482.659912 1246.042603,472.121490 
	C1247.643677,470.215576 1249.472046,468.500397 1251.444946,466.447388 
M1284.889893,454.389740 
	C1275.738159,463.572662 1266.497925,472.669769 1257.477661,481.980164 
	C1253.798096,485.777985 1253.854858,489.823914 1256.969360,493.056183 
	C1260.241577,496.452087 1264.155518,496.824188 1267.972412,493.101135 
	C1281.177246,480.220764 1294.226807,467.176544 1307.124023,453.988007 
	C1310.974609,450.050446 1310.738647,446.326202 1307.445557,442.976196 
	C1304.067993,439.540283 1300.191284,439.555115 1296.024658,443.371826 
	C1292.350952,446.737244 1288.925049,450.373169 1284.889893,454.389740 
z"/>
<path fill="#08074C" opacity="1.000000" stroke="none" 
	d="
M1064.265625,407.951294 
	C1051.244263,403.643524 1046.087036,396.582092 1047.992676,383.410553 
	C1050.679932,364.836456 1053.726074,346.265747 1057.787842,327.952881 
	C1061.740845,310.128876 1083.070557,304.487640 1096.422241,317.094147 
	C1101.543457,321.929443 1103.422852,328.222321 1102.373169,334.869873 
	C1099.392578,353.745453 1096.344482,372.630829 1092.496216,391.342316 
	C1089.583862,405.503448 1079.566895,411.015869 1064.265625,407.951294 
M1079.641724,379.100739 
	C1082.168091,364.502441 1084.774048,349.917267 1087.183228,335.299713 
	C1088.217407,329.025726 1086.266724,325.789276 1081.512573,324.937500 
	C1076.242676,323.993286 1073.252441,326.299072 1072.011230,332.567902 
	C1070.685791,339.262207 1069.487793,345.983459 1068.344482,352.711700 
	C1066.420898,364.032013 1064.453125,375.347778 1062.777100,386.705750 
	C1062.121704,391.147614 1064.403687,394.102783 1068.937866,394.882721 
	C1073.487793,395.665375 1076.375610,393.477478 1077.574219,389.228638 
	C1078.429688,386.196564 1078.827148,383.035309 1079.641724,379.100739 
z"/>
<path fill="#08074C" opacity="1.000000" stroke="none" 
	d="
M736.306152,448.699646 
	C731.592651,442.640106 726.946350,436.973053 722.642822,431.056702 
	C711.925720,416.322845 718.732910,398.372314 736.591125,394.221558 
	C742.564026,392.833282 748.234009,393.911011 753.083557,397.799377 
	C755.402466,399.658661 757.623535,401.753540 759.462708,404.078857 
	C770.092224,417.518066 780.772583,430.923615 791.092529,444.599457 
	C802.712708,459.998352 795.490417,478.419189 776.487000,482.311981 
	C767.532593,484.146301 760.995544,479.735931 755.676697,473.283325 
	C749.118164,465.326874 742.896484,457.092804 736.306152,448.699646 
M765.419983,436.074738 
	C759.156555,428.094543 753.038818,419.994049 746.579895,412.175354 
	C742.082581,406.731232 736.232788,407.087006 733.021851,412.604645 
	C730.731812,416.539825 732.855103,419.681671 735.115112,422.607483 
	C743.858521,433.926361 752.681580,445.183868 761.510010,456.436829 
	C763.971069,459.573730 766.306519,462.867035 769.137024,465.642426 
	C773.197388,469.623627 779.791748,468.402252 781.288025,463.103546 
	C782.010559,460.544678 781.053528,456.770844 779.502563,454.453827 
	C775.350098,448.250366 770.465881,442.536743 765.419983,436.074738 
z"/>
<path fill="#08074C" opacity="1.000000" stroke="none" 
	d="
M824.380737,351.553955 
	C833.010498,371.813629 841.467102,391.728577 849.942810,411.635345 
	C851.648010,415.640411 853.694946,419.268158 859.044617,418.316833 
	C863.686096,417.491455 866.075256,414.350555 865.159973,409.736969 
	C864.648621,407.159729 863.575500,404.666199 862.544067,402.224274 
	C854.255554,382.599915 845.914917,362.997620 837.596375,343.385925 
	C836.950684,341.863556 836.352356,340.321106 835.406555,337.983459 
	C839.746826,336.140442 843.924316,334.366547 848.549438,332.402557 
	C849.926147,335.511353 851.157410,338.197205 852.312561,340.915375 
	C860.319031,359.755035 868.310974,378.600891 876.302979,397.446716 
	C876.887573,398.825348 877.484619,400.201691 877.994385,401.608612 
	C884.116272,418.504913 873.469666,433.256897 855.362061,432.968445 
	C848.646484,432.861450 843.690857,429.546906 839.842590,424.304504 
	C839.057007,423.234375 838.255493,422.125488 837.738586,420.915985 
	C827.799683,397.661346 817.900818,374.389679 808.013916,351.112915 
	C807.902344,350.850128 808.056885,350.474335 808.143677,349.551270 
	C811.513000,348.120087 815.088928,346.411316 818.817810,345.156799 
	C819.700806,344.859680 821.462891,345.796234 822.169312,346.683685 
	C823.168213,347.938690 823.561951,349.675537 824.380737,351.553955 
z"/>
<path fill="#08074C" opacity="1.000000" stroke="none" 
	d="
M1205.037231,354.071747 
	C1207.882812,355.483215 1210.390381,356.756989 1213.397949,358.284729 
	C1212.612061,360.124115 1211.991455,361.765991 1211.226807,363.337860 
	C1201.682495,382.954102 1192.118286,402.560638 1182.554565,422.167450 
	C1181.970581,423.364655 1181.378418,424.559753 1180.737915,425.727142 
	C1172.070190,441.522552 1154.729492,443.444031 1142.581665,429.978821 
	C1137.782227,424.658813 1136.928711,418.415436 1138.541016,411.761322 
	C1139.239136,408.879852 1140.450684,406.077484 1141.748779,403.393829 
	C1151.464722,383.306580 1161.257690,363.256592 1171.038574,343.200806 
	C1171.687744,341.869751 1172.436523,340.587219 1173.435303,338.731659 
	C1177.828491,340.864929 1182.067017,342.923035 1186.666504,345.156464 
	C1185.708252,347.270447 1185.007324,348.917603 1184.225586,350.525421 
	C1174.687134,370.143829 1165.123535,389.750031 1155.609375,409.380219 
	C1154.599365,411.464233 1153.585693,413.615967 1153.062744,415.850708 
	C1152.235474,419.385681 1153.785645,422.036682 1157.022949,423.612457 
	C1160.406982,425.259552 1163.563599,425.020233 1165.938477,421.851593 
	C1167.224243,420.136139 1168.265869,418.206421 1169.212280,416.272766 
	C1178.875244,396.530029 1188.493652,376.765503 1198.133057,357.011169 
	C1198.857300,355.526642 1199.646118,354.073486 1200.588501,352.250458 
	C1202.049194,352.848663 1203.374268,353.391357 1205.037231,354.071747 
z"/>
<path fill="#08074C" opacity="1.000000" stroke="none" 
	d="
M1028.350342,401.700623 
	C1023.205017,402.204590 1018.346008,403.282776 1013.665405,402.760742 
	C1001.143433,401.364197 992.580139,387.163849 996.517883,374.917297 
	C996.809326,374.010925 998.275330,372.957489 999.256836,372.891693 
	C1002.863647,372.649841 1006.496399,372.795776 1010.678223,372.795776 
	C1010.678223,376.584320 1010.552673,379.526825 1010.707764,382.454498 
	C1010.937256,386.788330 1013.331421,389.116028 1017.691772,389.380981 
	C1022.012573,389.643494 1024.780029,387.677277 1025.624023,383.454956 
	C1026.940308,376.870758 1025.568359,370.798401 1021.166565,365.684174 
	C1016.823792,360.638519 1012.111023,355.912201 1007.741577,350.888397 
	C1000.398499,342.445648 997.608643,332.754425 999.952820,321.643768 
	C1002.330872,310.372559 1009.982971,304.549469 1022.385254,304.847351 
	C1034.510010,305.138580 1041.659424,311.192047 1043.128784,322.808197 
	C1043.574951,326.335419 1043.197876,329.966766 1043.197876,334.049133 
	C1038.339111,333.724121 1034.062012,333.438019 1029.152100,333.109589 
	C1029.152100,330.354553 1029.239380,327.913666 1029.132568,325.481262 
	C1028.952637,321.379578 1026.824463,318.984955 1022.652649,318.663269 
	C1018.349670,318.331512 1015.714783,320.228058 1014.760559,324.540100 
	C1013.471619,330.365234 1015.034607,335.550751 1018.635925,339.977051 
	C1022.306030,344.487915 1026.388184,348.677307 1030.444702,352.857269 
	C1039.908081,362.608582 1043.229126,374.037628 1040.084229,387.273041 
	C1038.537964,393.780579 1035.072632,398.831696 1028.350342,401.700623 
z"/>
<path fill="#08074C" opacity="1.000000" stroke="none" 
	d="
M1378.047119,563.004700 
	C1376.600464,560.352722 1375.316284,558.028564 1373.844971,555.365356 
	C1376.031738,553.941589 1378.145142,552.690552 1380.121094,551.251038 
	C1383.506958,548.784363 1384.734863,545.663086 1382.616577,541.710876 
	C1380.597778,537.944458 1377.183350,536.792786 1372.830078,538.561401 
	C1367.189941,540.852905 1363.709717,545.210083 1361.977295,550.875183 
	C1360.082275,557.071167 1358.630737,563.401672 1356.797241,569.617920 
	C1353.150391,581.982300 1344.772705,589.712524 1332.621460,593.377930 
	C1322.370483,596.469971 1313.732178,592.420715 1308.066650,582.243774 
	C1302.322754,571.926147 1303.434937,562.824707 1311.737793,555.693909 
	C1314.958740,552.927734 1318.789185,550.871216 1322.911743,548.109680 
	C1325.431030,552.603333 1327.592163,556.458008 1329.922852,560.615112 
	C1327.335449,562.201416 1324.884155,563.565552 1322.582397,565.147217 
	C1318.928223,567.658264 1317.759888,570.980164 1319.883301,575.091553 
	C1321.959351,579.111450 1325.496582,580.327454 1330.032837,578.431824 
	C1336.062134,575.912292 1340.180786,571.486328 1342.072998,565.229858 
	C1343.949219,559.026367 1345.439087,552.706116 1347.305664,546.499390 
	C1350.650635,535.377380 1357.779663,527.745361 1368.841064,523.994446 
	C1379.430908,520.403381 1388.348877,524.040283 1394.157715,534.186340 
	C1400.310059,544.932434 1399.080444,553.896118 1390.132812,561.399719 
	C1387.384399,563.704590 1384.150146,565.430176 1380.895508,567.581543 
	C1379.773926,565.807312 1378.991821,564.569885 1378.047119,563.004700 
z"/>
<path fill="#08074C" opacity="1.000000" stroke="none" 
	d="
M732.660339,515.854004 
	C726.644165,512.401611 721.042297,509.028748 714.599976,505.149902 
	C719.240540,501.103851 722.672485,498.111633 726.252869,494.989960 
	C727.741150,496.288483 729.778320,498.258026 732.012207,499.971069 
	C735.603149,502.724701 739.133911,502.509064 742.228821,499.117462 
	C745.323792,495.725769 745.071716,492.199219 742.242615,488.778259 
	C737.941589,483.577240 732.357239,481.018585 725.630615,481.010529 
	C717.485168,481.000793 709.298218,481.589142 701.204163,480.957794 
	C689.836243,480.071075 681.749268,473.556061 676.541809,463.683289 
	C672.140564,455.338989 674.414246,446.745605 682.453979,438.951416 
	C689.786865,431.842529 697.824158,430.283813 706.082458,434.945160 
	C709.917664,437.109924 713.247070,440.170898 717.479370,443.328064 
	C713.523376,446.912201 710.246887,449.880737 706.753113,453.046082 
	C704.901489,451.549896 702.956604,449.752655 700.790283,448.281433 
	C697.634888,446.138458 694.483154,446.357513 691.731750,449.113464 
	C688.874756,451.975189 688.375916,455.162994 690.853943,458.532318 
	C694.323730,463.250244 699.034363,465.930420 704.867249,466.038910 
	C712.189026,466.175079 719.518616,465.947723 726.843933,465.822815 
	C737.004333,465.649567 745.223022,469.773621 752.009460,477.095459 
	C759.363464,485.029449 761.214539,493.324463 757.434265,501.269135 
	C752.614319,511.398712 743.743408,516.739014 732.660339,515.854004 
z"/>
<path fill="#08074C" opacity="1.000000" stroke="none" 
	d="
M974.673828,394.324341 
	C974.967468,396.870667 975.187134,399.005768 975.469666,401.751740 
	C961.970459,403.636108 948.733704,405.483887 934.921265,407.412018 
	C930.437073,375.494995 926.049133,344.262848 921.587402,312.505859 
	C932.359802,310.963501 942.511108,309.405762 952.692810,308.082245 
	C962.489502,306.808777 962.513733,306.913910 963.765869,316.792297 
	C963.887939,317.755157 963.782104,318.746857 963.782104,320.261078 
	C955.567810,321.492676 947.421509,322.714081 938.543518,324.045166 
	C939.695251,332.435028 940.790649,340.414642 941.951538,348.871094 
	C948.925842,347.970856 955.433167,347.130890 962.434875,346.227112 
	C963.042480,350.762878 963.604919,354.960938 964.228943,359.618958 
	C957.375427,360.657959 951.021484,361.621246 943.940735,362.694672 
	C945.263245,372.196198 946.554565,381.473511 947.955261,391.536285 
	C956.684143,390.432434 964.981201,389.383209 973.515564,388.303955 
	C973.917480,390.383087 974.258667,392.148102 974.673828,394.324341 
z"/>
<path fill="#08074C" opacity="1.000000" stroke="none" 
	d="
M699.759644,550.224548 
	C677.677856,533.575439 655.877747,517.147034 633.494019,500.278778 
	C641.723999,489.357208 649.780396,478.666046 658.171204,467.531097 
	C661.874695,470.269379 665.285645,472.791382 669.159241,475.655457 
	C663.954224,482.613739 658.913452,489.352478 653.570679,496.494934 
	C660.330994,501.583313 666.802246,506.454132 673.686035,511.635406 
	C677.889526,506.169495 681.908081,500.944153 686.237976,495.313934 
	C689.979492,498.096527 693.393982,500.635834 697.098145,503.390625 
	C693.028687,508.887115 689.184509,514.079346 684.841003,519.945984 
	C692.549438,525.804749 700.133057,531.568481 708.168457,537.675720 
	C713.457458,530.715332 718.457458,524.135193 723.900696,516.971863 
	C727.522400,519.690125 730.998718,522.299255 734.819214,525.166748 
	C726.460571,536.271423 718.475769,546.879456 710.174072,557.908508 
	C706.645508,555.309509 703.343384,552.877380 699.759644,550.224548 
z"/>
<path fill="#08094E" opacity="1.000000" stroke="none" 
	d="
M770.918457,1117.954102 
	C784.496155,1093.461914 797.901306,1069.300903 811.856018,1044.149170 
	C821.899414,1050.209839 832.145325,1055.426147 841.226624,1062.203125 
	C847.567871,1066.935303 849.678528,1074.907715 846.971863,1082.606812 
	C844.916687,1088.452759 841.810364,1094.236816 837.943848,1099.065063 
	C832.372681,1106.021729 825.016357,1107.027222 811.827332,1104.116455 
	C812.629395,1118.625732 813.419250,1132.914429 814.235535,1147.681396 
	C808.851257,1145.983521 805.691528,1144.073975 805.709106,1137.975220 
	C805.738770,1127.667236 804.513245,1117.361206 804.012695,1107.044800 
	C803.554382,1097.598511 803.669312,1097.592896 793.591797,1093.879395 
	C787.613342,1104.603882 781.579651,1115.427368 775.343506,1126.614136 
	C772.899536,1125.304810 770.909241,1124.238525 768.510132,1122.953247 
	C769.365967,1121.166382 770.055908,1119.725830 770.918457,1117.954102 
M798.856384,1084.313965 
	C799.189575,1085.495972 799.151367,1087.308960 799.915588,1087.758911 
	C805.348450,1090.958130 810.836487,1094.106689 816.521362,1096.822632 
	C822.007507,1099.443848 828.645569,1098.101440 832.316223,1093.246948 
	C835.170105,1089.472900 837.454712,1085.095581 839.149719,1080.664185 
	C841.031677,1075.744141 839.582092,1070.540527 835.561829,1067.545776 
	C829.280884,1062.867065 822.214233,1059.243286 815.146179,1054.970459 
	C809.487000,1065.133301 804.328613,1074.396973 798.856384,1084.313965 
z"/>
<path fill="#08074C" opacity="1.000000" stroke="none" 
	d="
M873.443542,324.456482 
	C883.638367,321.696838 893.467468,319.146088 903.241333,316.398956 
	C906.100220,315.595428 907.611938,316.048950 908.164368,319.202057 
	C908.698914,322.252563 909.643921,325.231201 910.489990,328.561920 
	C905.351990,330.053986 900.777222,331.382507 895.752380,332.841705 
	C896.365540,335.520203 896.837524,337.921814 897.467529,340.281250 
	C903.436340,362.635468 909.350098,385.005127 915.499146,407.309814 
	C916.546387,411.108612 915.879639,412.847168 911.900024,413.491577 
	C908.811646,413.991699 905.815430,415.060913 902.174011,416.039551 
	C895.049927,389.564056 887.983032,363.300964 880.848450,336.786560 
	C877.044983,337.772461 873.741699,338.335144 870.665466,339.498413 
	C866.578918,341.043732 864.847900,339.552124 864.185913,335.604340 
	C863.750427,333.007690 862.992310,330.465179 862.283752,327.501587 
	C866.052612,326.483124 869.554688,325.536804 873.443542,324.456482 
z"/>
<path fill="#08074C" opacity="1.000000" stroke="none" 
	d="
M1226.836792,421.846558 
	C1218.044922,435.387817 1209.447510,448.623810 1200.613281,462.224335 
	C1196.327515,459.462341 1192.343262,456.894623 1187.953125,454.065369 
	C1202.893799,431.025940 1217.607056,408.337219 1232.581787,385.245453 
	C1228.228271,382.287659 1224.155762,379.520844 1219.634399,376.449066 
	C1222.054321,372.702209 1224.342896,369.158966 1226.985352,365.067627 
	C1240.152222,373.614929 1252.903931,381.892761 1266.019409,390.406677 
	C1263.471924,394.336029 1261.233032,397.789459 1258.692993,401.707245 
	C1254.216309,398.964935 1250.038574,396.405762 1245.320312,393.515442 
	C1239.144287,402.979401 1233.087769,412.260315 1226.836792,421.846558 
z"/>
<path fill="#08094E" opacity="1.000000" stroke="none" 
	d="
M917.337463,1088.530518 
	C927.258667,1093.568726 932.143738,1102.087036 930.878662,1111.712402 
	C929.994934,1118.436523 928.770996,1119.118408 921.883728,1116.466553 
	C921.927063,1115.756348 921.905945,1114.945312 922.035095,1114.158813 
	C924.235474,1100.754395 915.258179,1091.401733 901.697693,1093.203369 
	C895.795410,1093.987549 891.346741,1097.127808 889.704468,1103.064331 
	C885.358459,1118.773926 880.934448,1134.471680 877.097168,1150.308594 
	C874.816223,1159.722656 879.816528,1165.870605 890.739807,1168.602661 
	C900.365479,1171.010376 907.254761,1167.510010 910.017578,1158.621216 
	C911.448547,1154.017578 912.504639,1149.298584 913.871765,1144.673462 
	C914.733643,1141.757568 913.807007,1140.406494 910.824158,1139.820190 
	C907.754395,1139.216797 904.778687,1138.135254 901.171692,1137.092407 
	C901.782471,1134.727417 902.341125,1132.564331 903.064087,1129.765381 
	C909.722046,1131.557373 916.102234,1133.203491 922.416687,1135.071777 
	C923.143372,1135.286865 924.121399,1136.899780 923.942322,1137.597534 
	C920.241882,1152.017212 916.390503,1166.398071 912.568970,1180.786621 
	C912.042969,1180.880249 911.516907,1180.973999 910.990845,1181.067749 
	C909.709229,1178.447632 908.427551,1175.827515 906.883484,1172.670898 
	C899.445557,1178.002808 891.622314,1177.485840 883.565674,1174.590210 
	C872.642578,1170.664062 866.265320,1160.154541 869.031128,1148.879761 
	C872.992981,1132.728394 877.302856,1116.650391 881.956970,1100.684814 
	C885.269592,1089.321289 896.236145,1083.359985 907.846558,1085.894531 
	C910.928955,1086.567505 913.947449,1087.533081 917.337463,1088.530518 
z"/>
<path fill="#08094E" opacity="1.000000" stroke="none" 
	d="
M1262.697510,1105.928833 
	C1250.895508,1110.097168 1242.306519,1107.638550 1234.994507,1098.034424 
	C1225.913208,1086.106323 1216.900146,1074.125732 1207.934082,1062.110596 
	C1199.324707,1050.573364 1200.867920,1037.775635 1212.448730,1029.340088 
	C1216.874268,1026.116699 1222.137573,1023.256775 1227.417236,1022.175964 
	C1235.516113,1020.518005 1242.400513,1024.146973 1247.431152,1030.780640 
	C1256.892578,1043.257080 1266.401245,1055.699951 1275.689575,1068.304688 
	C1283.727905,1079.213013 1281.914185,1091.621216 1271.246338,1100.083862 
	C1268.645630,1102.146851 1265.792236,1103.891602 1262.697510,1105.928833 
M1260.708862,1061.807861 
	C1254.200806,1053.175415 1247.799072,1044.460205 1241.152954,1035.935425 
	C1235.222900,1028.329224 1227.266724,1027.757690 1218.825073,1034.015259 
	C1209.911621,1040.622559 1207.962524,1048.332275 1213.755249,1056.248901 
	C1223.084839,1068.999023 1232.614258,1081.607666 1242.280518,1094.104858 
	C1247.971558,1101.462646 1256.045288,1101.915283 1264.255249,1095.818237 
	C1273.166382,1089.200317 1275.018188,1081.584351 1269.491211,1073.574951 
	C1266.848511,1069.745117 1263.921631,1066.111328 1260.708862,1061.807861 
z"/>
<path fill="#08074C" opacity="1.000000" stroke="none" 
	d="
M778.081421,377.883240 
	C790.141785,398.778717 802.030273,419.351257 814.174255,440.365814 
	C821.415771,436.264191 828.301025,432.364319 835.731323,428.155731 
	C838.000122,432.107422 840.107727,435.778198 842.511658,439.965210 
	C830.959229,446.637177 819.796204,453.084259 808.020325,459.885284 
	C792.001526,432.165070 776.222290,404.859314 760.037109,376.851135 
	C764.250732,374.412537 768.324829,372.054626 772.907349,369.402557 
	C774.680420,372.294159 776.295044,374.927216 778.081421,377.883240 
z"/>
<path fill="#08074C" opacity="1.000000" stroke="none" 
	d="
M1132.180420,410.958557 
	C1133.005737,412.300446 1134.024414,413.655487 1133.778442,414.717377 
	C1133.034668,417.925995 1131.799927,421.020782 1130.547974,424.787659 
	C1117.919067,420.687927 1105.525146,416.664520 1092.705444,412.502899 
	C1096.369141,401.185181 1099.882568,390.293213 1103.421143,379.409393 
	C1109.232788,361.534210 1115.152222,343.693237 1120.803711,325.767670 
	C1121.923828,322.214691 1123.272827,321.477631 1126.822876,322.674866 
	C1136.686035,326.001038 1136.732666,325.840210 1133.597412,335.458527 
	C1126.792725,356.333313 1120.115723,377.251007 1113.102417,398.055328 
	C1111.561646,402.625824 1111.806641,404.983490 1117.073486,406.122589 
	C1122.086182,407.206757 1126.896362,409.228302 1132.180420,410.958557 
z"/>
<path fill="#08094E" opacity="1.000000" stroke="none" 
	d="
M945.057617,1107.025146 
	C945.434204,1103.260132 945.786133,1099.954712 946.177795,1096.276367 
	C948.625183,1096.276367 950.991333,1096.276367 954.105469,1096.276367 
	C952.975586,1109.820435 951.876526,1122.994629 950.712341,1136.949097 
	C962.071533,1137.983887 973.072937,1138.986084 984.610840,1140.037109 
	C985.867004,1126.368408 987.090637,1113.053223 988.363708,1099.200195 
	C991.108459,1099.532593 993.349670,1099.803955 996.329407,1100.164795 
	C993.743103,1129.806396 991.177307,1159.213501 988.621094,1188.510742 
	C980.870605,1189.384521 980.521545,1189.171509 981.043701,1182.162354 
	C981.748352,1172.704590 982.672363,1163.263428 983.494080,1153.814453 
	C983.649109,1152.031494 983.765625,1150.245117 983.950073,1147.792236 
	C972.572083,1146.779541 961.581848,1145.801270 950.015930,1144.771851 
	C948.973999,1156.453613 947.900818,1167.506348 947.031738,1178.575195 
	C946.454224,1185.929810 946.525879,1185.983032 938.372559,1184.290894 
	C940.588135,1158.741943 942.810547,1133.113525 945.057617,1107.025146 
z"/>
<path fill="#08094E" opacity="1.000000" stroke="none" 
	d="
M1187.012207,1053.958740 
	C1199.927734,1079.325195 1212.691284,1104.350220 1225.715576,1129.886475 
	C1223.280273,1131.205688 1221.196655,1132.334351 1218.642700,1133.717773 
	C1212.376831,1121.516968 1206.332764,1109.748169 1200.008789,1097.434204 
	C1189.754028,1102.665649 1179.915771,1107.684692 1169.620850,1112.936768 
	C1175.814819,1125.157471 1181.800293,1136.967041 1188.046631,1149.291016 
	C1185.665405,1150.489746 1183.548584,1151.555298 1180.849854,1152.913818 
	C1167.307373,1126.348511 1153.966675,1100.179077 1140.358643,1073.485229 
	C1142.703735,1072.171875 1144.783203,1071.007202 1147.373901,1069.556396 
	C1153.673462,1081.808716 1159.788086,1093.701294 1166.112305,1106.001465 
	C1176.366943,1100.780640 1186.104492,1095.822998 1196.477783,1090.541748 
	C1190.323608,1078.353882 1184.308228,1066.440796 1178.042847,1054.032715 
	C1181.407227,1053.425293 1183.651001,1047.829102 1187.012207,1053.958740 
z"/>
<path fill="#08094E" opacity="1.000000" stroke="none" 
	d="
M725.039062,994.026123 
	C706.514648,1008.475464 688.278625,1022.718079 669.649902,1037.267334 
	C667.964172,1035.133179 666.474731,1033.247437 664.648010,1030.934814 
	C675.359619,1022.543152 685.794861,1014.368103 696.768799,1005.770935 
	C689.726440,996.741028 682.919983,988.013672 675.757812,978.830261 
	C664.960266,987.231934 654.402222,995.447327 643.571167,1003.875061 
	C641.811646,1001.651428 640.393738,999.859558 638.575012,997.561096 
	C662.084351,979.188293 685.365112,960.994202 709.016663,942.510254 
	C710.721924,944.654846 712.134766,946.431763 714.028381,948.813171 
	C703.318604,957.226379 692.791748,965.495911 681.874695,974.071899 
	C688.922546,983.111084 695.643555,991.731018 702.838440,1000.958740 
	C713.665466,992.558228 724.237000,984.356018 735.179443,975.865967 
	C736.867310,978.063416 738.337769,979.977844 740.041199,982.195557 
	C734.942322,986.223694 730.134888,990.021606 725.039062,994.026123 
z"/>
<path fill="#08094E" opacity="1.000000" stroke="none" 
	d="
M1350.848145,961.200317 
	C1358.267212,965.298523 1365.364868,969.225037 1372.901367,973.394348 
	C1379.804443,960.997742 1386.493164,948.986145 1393.420898,936.545288 
	C1395.748047,937.817749 1397.720459,938.896301 1400.146973,940.223145 
	C1391.948975,955.011475 1383.926514,969.483093 1375.727539,984.273254 
	C1349.460693,969.710083 1323.625488,955.386230 1297.401733,940.846924 
	C1305.650269,925.965149 1313.606323,911.610962 1321.805176,896.818787 
	C1324.089478,898.090637 1326.050293,899.182495 1328.503662,900.548462 
	C1321.707886,912.863892 1315.071777,924.889893 1308.114868,937.497314 
	C1317.866211,942.904968 1327.231934,948.098755 1337.090820,953.566040 
	C1342.713135,943.517090 1348.122070,933.849731 1353.792114,923.715515 
	C1356.018066,924.969360 1357.973755,926.070862 1360.409790,927.442993 
	C1354.913940,937.435547 1349.574707,947.143372 1344.026123,957.231934 
	C1346.328979,958.576965 1348.427856,959.802795 1350.848145,961.200317 
z"/>
<path fill="#08094E" opacity="1.000000" stroke="none" 
	d="
M774.911011,1027.104248 
	C766.141785,1018.922607 757.638062,1010.975342 748.650391,1002.575806 
	C741.117615,1010.644409 733.791931,1018.491211 726.038879,1026.795776 
	C734.305542,1034.601562 742.367065,1042.213745 750.820679,1050.196167 
	C749.091003,1052.087646 747.597168,1053.721313 745.728027,1055.765381 
	C737.317139,1047.980103 729.189758,1040.457275 720.688416,1032.588257 
	C713.119690,1040.691162 705.794617,1048.533203 698.122620,1056.746582 
	C708.494934,1066.480469 718.528198,1075.896240 728.836670,1085.570190 
	C727.049866,1087.554932 725.533691,1089.239136 723.735657,1091.236328 
	C711.424683,1079.770142 699.399536,1068.570190 686.885071,1056.914429 
	C707.217468,1035.097168 727.353943,1013.490173 747.948181,991.391968 
	C760.234131,1002.842163 772.235840,1014.027466 784.683777,1025.628662 
	C783.024536,1027.541992 781.563293,1029.226929 779.732849,1031.337646 
	C778.063354,1029.872437 776.619995,1028.605591 774.911011,1027.104248 
z"/>
<path fill="#08094E" opacity="1.000000" stroke="none" 
	d="
M1122.240845,1173.055176 
	C1112.038208,1171.764282 1105.686035,1166.383179 1102.780762,1157.031494 
	C1098.142090,1142.100342 1093.497559,1127.169678 1089.054321,1112.179810 
	C1085.340088,1099.648926 1091.405029,1087.926758 1103.881714,1084.193359 
	C1109.009888,1082.658936 1114.674805,1081.470459 1119.898193,1082.015625 
	C1129.574585,1083.025757 1135.965698,1090.298096 1137.715820,1100.543945 
	C1135.752197,1101.483032 1133.696289,1102.466187 1131.085938,1103.714478 
	C1130.307251,1101.776123 1129.667847,1100.143433 1128.997803,1098.523438 
	C1126.050903,1091.397339 1119.551025,1088.019043 1112.076050,1089.828613 
	C1109.658447,1090.413818 1107.229370,1091.082397 1104.937012,1092.030518 
	C1098.184692,1094.822876 1094.555176,1101.667603 1096.610107,1108.711914 
	C1101.174683,1124.358643 1105.921509,1139.956787 1110.908081,1155.473755 
	C1113.301636,1162.921997 1119.736084,1166.316895 1127.438110,1164.997314 
	C1136.949707,1163.367676 1142.851196,1158.930420 1143.683472,1151.889771 
	C1144.097046,1148.391846 1143.148315,1144.732666 1142.810913,1141.093262 
	C1149.485474,1138.545288 1151.166870,1139.536499 1151.945923,1146.644165 
	C1152.973999,1156.024292 1148.463745,1165.264648 1139.940308,1168.805908 
	C1134.529663,1171.053955 1128.457764,1171.710693 1122.240845,1173.055176 
z"/>
<path fill="#08094E" opacity="1.000000" stroke="none" 
	d="
M1278.447266,964.409058 
	C1286.799683,957.402161 1295.743408,956.091370 1304.154663,960.425293 
	C1311.147949,964.028687 1311.359253,964.968567 1306.636719,971.477783 
	C1306.331787,971.440063 1305.928589,971.505676 1305.738281,971.334595 
	C1295.968018,962.554260 1286.317383,964.508850 1278.440796,976.744446 
	C1274.534912,982.811829 1274.983643,990.240417 1280.519165,994.897461 
	C1293.380493,1005.717957 1306.451904,1016.303162 1319.733154,1026.603394 
	C1325.391479,1030.991821 1332.922607,1029.855469 1337.900146,1024.701050 
	C1342.494141,1019.943970 1347.104126,1014.732422 1344.821045,1007.595581 
	C1343.480469,1003.404907 1340.230835,999.825012 1337.495483,995.415161 
	C1338.616577,994.396240 1340.417969,992.759216 1342.156006,991.179626 
	C1353.733643,998.280884 1356.824951,1012.195618 1349.266724,1022.866394 
	C1347.064453,1025.975464 1344.633667,1029.019165 1341.852905,1031.603516 
	C1334.183960,1038.731445 1322.449097,1039.207764 1313.880493,1032.486938 
	C1301.045410,1022.419495 1288.362671,1012.148987 1275.838257,1001.697449 
	C1266.734497,994.100464 1265.378784,981.676697 1272.225342,972.030579 
	C1274.051514,969.457703 1276.197388,967.111694 1278.447266,964.409058 
z"/>
<path fill="#08074C" opacity="1.000000" stroke="none" 
	d="
M1272.488159,402.486328 
	C1273.695068,401.140015 1274.676514,400.066833 1275.902466,398.726166 
	C1279.726562,401.819427 1283.312012,404.719635 1287.412354,408.036377 
	C1267.271606,432.907928 1247.331543,457.531769 1227.082031,482.537689 
	C1223.094604,479.333160 1219.505859,476.448883 1215.335327,473.097137 
	C1234.439087,449.493073 1253.350830,426.126282 1272.488159,402.486328 
z"/>
<path fill="#08094E" opacity="1.000000" stroke="none" 
	d="
M1034.064941,1131.753296 
	C1035.409424,1150.630493 1036.732910,1169.040039 1038.094360,1187.978638 
	C1035.414429,1188.317749 1033.067139,1188.614868 1030.029297,1188.999268 
	C1028.071167,1161.529053 1026.150146,1134.580688 1024.208984,1107.349365 
	C1016.927490,1107.775757 1010.343567,1108.161255 1003.235962,1108.577515 
	C1002.981079,1106.158936 1002.747620,1103.943970 1002.443542,1101.058350 
	C1019.352234,1099.859253 1035.864380,1098.688477 1052.848389,1097.484131 
	C1053.135620,1099.968384 1053.376099,1102.048828 1053.716919,1104.996582 
	C1048.414917,1105.390503 1043.363403,1105.990234 1038.303223,1106.074463 
	C1033.854492,1106.148315 1032.119751,1107.624512 1032.738037,1112.362671 
	C1033.554810,1118.620605 1033.642700,1124.973633 1034.064941,1131.753296 
z"/>
<path fill="#08094E" opacity="1.000000" stroke="none" 
	d="
M622.422974,948.455811 
	C643.280823,937.345764 663.819519,926.423767 684.848450,915.241089 
	C681.440918,908.745483 678.299805,902.757690 674.992188,896.452454 
	C677.241821,895.216370 679.243103,894.116699 681.695496,892.769165 
	C689.622314,907.661621 697.419617,922.310730 705.486023,937.465454 
	C703.228333,938.715271 701.271912,939.798279 698.809998,941.161194 
	C695.446045,934.954468 692.230713,929.022095 688.668701,922.450073 
	C664.672241,935.187256 640.944275,947.781982 616.686768,960.657715 
	C615.313232,958.310425 614.113342,956.259949 612.631897,953.728210 
	C616.033630,951.902222 619.068726,950.273071 622.422974,948.455811 
z"/>
<path fill="#8AD7BC" opacity="1.000000" stroke="none" 
	d="
M1388.082275,801.641846 
	C1385.878296,790.360107 1391.683960,781.514465 1402.278564,779.492126 
	C1411.384155,777.753967 1420.350098,784.148071 1422.361084,793.814087 
	C1424.010376,801.741760 1419.158203,810.284485 1411.267212,813.345642 
	C1403.426880,816.387390 1394.440430,813.339233 1390.051147,806.080688 
	C1389.285034,804.813721 1388.790283,803.382812 1388.082275,801.641846 
z"/>
<path fill="#8AD7BC" opacity="1.000000" stroke="none" 
	d="
M586.108826,783.023315 
	C593.868835,778.150757 600.859314,778.002197 606.867615,782.374512 
	C613.094482,786.905884 615.810364,794.026672 614.022461,801.133545 
	C612.217102,808.309326 606.559387,813.288818 598.922302,814.423645 
	C592.081177,815.440186 584.561218,811.343872 581.276428,804.811462 
	C577.441467,797.184814 578.986572,789.829834 586.108826,783.023315 
z"/>
<path fill="#08094E" opacity="1.000000" stroke="none" 
	d="
M848.466614,1119.403809 
	C854.781555,1103.820557 860.927734,1088.580811 867.045227,1073.412231 
	C874.966187,1075.074707 875.043213,1075.199219 872.325623,1081.932739 
	C862.681519,1105.828491 853.033264,1129.722778 843.382874,1153.616089 
	C842.717590,1155.263062 842.020508,1156.897339 841.212769,1158.838989 
	C838.618103,1157.806030 836.503540,1156.964233 833.783752,1155.881470 
	C838.687683,1143.672729 843.492737,1131.710083 848.466614,1119.403809 
z"/>
<path fill="#08094E" opacity="1.000000" stroke="none" 
	d="
M1292.801880,1054.198730 
	C1276.532349,1037.340454 1260.508911,1020.735901 1244.090698,1003.722229 
	C1246.060791,1001.690491 1247.633789,1000.068359 1249.701782,997.935669 
	C1270.741089,1019.708130 1291.264160,1040.946289 1312.246826,1062.660034 
	C1310.238037,1064.474365 1308.428345,1066.109009 1306.772827,1067.604248 
	C1302.130249,1063.155518 1297.589111,1058.803955 1292.801880,1054.198730 
z"/>
<path fill="#89D5BA" opacity="1.000000" stroke="none" 
	d="
M972.999939,717.808838 
	C980.607300,717.808777 987.714783,717.808777 996.251038,717.808777 
	C990.982300,711.370544 986.436768,705.991150 982.098999,700.449158 
	C979.539734,697.179565 975.023438,694.377075 977.250488,689.302917 
	C979.561768,684.036743 984.702271,686.219116 988.786133,685.837158 
	C990.584778,685.668884 992.412170,685.808838 994.987427,685.808838 
	C994.987427,681.122437 995.188477,676.691956 994.818176,672.309753 
	C994.743896,671.430359 992.588989,670.314880 991.237122,670.016418 
	C967.870789,664.859253 952.101929,644.677734 952.858887,620.742920 
	C953.624817,596.523254 972.389648,576.965027 997.077515,574.654602 
	C1020.674866,572.446350 1042.893677,588.717224 1048.037842,611.973022 
	C1054.016113,638.999573 1036.857300,664.947388 1009.605713,670.099365 
	C1008.963013,670.220764 1008.334045,670.414795 1007.353882,670.661804 
	C1007.353882,675.549133 1007.353882,680.419373 1007.353882,685.817383 
	C1011.119080,685.817383 1014.797119,685.445801 1018.349548,685.953552 
	C1020.560120,686.269531 1023.725769,687.450256 1024.390625,689.085388 
	C1025.185181,691.039673 1024.513062,694.442688 1023.174500,696.258850 
	C1018.337952,702.821350 1012.949463,708.976685 1007.789490,715.302124 
	C1007.395935,715.784546 1007.159241,716.394897 1006.364746,717.808777 
	C1008.730042,717.808777 1010.462341,717.808777 1012.194641,717.808777 
	C1039.357666,717.808838 1066.520752,717.794495 1093.683838,717.813843 
	C1112.763794,717.827454 1123.956787,729.130127 1123.980591,748.351624 
	C1123.986572,753.184326 1123.710693,758.035095 1124.032227,762.846313 
	C1125.003418,777.376343 1120.792114,789.132019 1106.248413,796.080627 
	C1111.690063,801.889771 1116.632202,807.453247 1121.974487,812.601257 
	C1122.925903,813.518066 1125.627075,813.072388 1127.370483,812.644714 
	C1147.306763,807.754883 1167.995972,821.237305 1170.984253,841.168701 
	C1173.942993,860.901917 1163.032227,876.730103 1141.861206,882.610535 
	C1141.861206,885.026794 1141.995728,887.651001 1141.829468,890.255981 
	C1141.581787,894.136230 1139.491699,896.657349 1135.494995,896.451355 
	C1131.785400,896.260132 1129.948120,893.784485 1129.946777,890.043884 
	C1129.945923,887.720154 1129.946533,885.396484 1129.946533,882.718445 
	C1115.759033,879.239990 1105.575317,871.128235 1101.546997,856.878601 
	C1097.551758,842.746277 1101.921997,830.660278 1112.399048,820.170959 
	C1105.734619,813.043640 1099.202759,805.966919 1092.520386,799.035278 
	C1091.751343,798.237610 1090.144287,797.933289 1088.924805,797.930847 
	C1062.261963,797.877869 1035.598877,797.898499 1008.935852,797.920227 
	C1008.467285,797.920593 1007.998840,798.107605 1007.264771,798.264160 
	C1007.264771,802.714600 1007.264771,807.147827 1007.264771,811.602295 
	C1029.014160,821.321350 1037.953003,832.739685 1036.687744,849.216431 
	C1035.408569,865.871399 1025.048218,877.722961 1006.976807,882.622803 
	C1006.976807,884.881104 1006.987671,887.328186 1006.974243,889.775146 
	C1006.952881,893.685547 1005.106262,896.413330 1001.136902,896.460815 
	C996.892639,896.511597 994.993591,893.702759 995.019165,889.557983 
	C995.032471,887.398438 995.021423,885.238708 995.021423,882.812927 
	C976.497375,877.723938 965.141357,866.046326 965.493164,846.505432 
	C965.828491,827.876770 976.945251,816.702759 994.816711,811.895447 
	C994.816711,807.376343 994.816711,802.941589 994.816711,798.168640 
	C993.237732,798.067505 991.797424,797.895691 990.356995,797.894714 
	C965.193665,797.878357 940.029602,797.798279 914.868164,798.017029 
	C912.424500,798.038330 909.422485,799.347168 907.665955,801.066162 
	C901.494995,807.105347 895.754944,813.584717 889.620850,820.143494 
	C899.893066,830.448120 904.429321,842.487366 900.510803,856.602783 
	C896.595154,870.707703 886.820496,879.006775 872.047363,882.618591 
	C872.047363,885.054077 872.085327,887.665222 872.038330,890.274780 
	C871.970337,894.041565 869.973267,896.368774 866.273743,896.469604 
	C862.530334,896.571655 860.484253,894.178833 860.191711,890.532532 
	C859.993042,888.055969 860.153748,885.550537 860.153748,882.831055 
	C858.472229,882.254639 856.957886,881.711487 855.428345,881.214844 
	C836.830017,875.176331 826.546997,856.127197 831.873108,837.567505 
	C837.276367,818.739075 856.213257,807.909180 875.286316,812.952026 
	C878.081909,813.691223 879.796753,813.373474 881.720093,811.174561 
	C886.091919,806.176514 890.757568,801.435547 895.610291,796.263489 
	C894.029297,795.300232 892.783813,794.574829 891.571716,793.797424 
	C882.952454,788.268921 878.248718,780.434814 878.057129,770.149780 
	C877.901978,761.820496 877.894287,753.483276 878.063416,745.154419 
	C878.374268,729.849487 890.175476,717.990601 905.510376,717.865784 
	C927.838928,717.683960 950.169983,717.812561 972.999939,717.808838 
M1018.500000,781.957275 
	C1043.819092,781.956787 1069.138184,781.991882 1094.457153,781.936523 
	C1103.371216,781.917053 1107.958862,777.254089 1108.027832,768.354187 
	C1108.080933,761.525085 1108.057617,754.695190 1108.033813,747.865784 
	C1107.999023,737.845947 1103.845093,733.706909 1093.683105,733.694031 
	C1069.530029,733.663391 1045.377075,733.682434 1021.223999,733.682678 
	C983.411987,733.683105 945.600037,733.662659 907.788025,733.700806 
	C898.314697,733.710327 894.020996,738.034485 893.969177,747.392639 
	C893.933167,753.888733 893.951416,760.385254 893.962585,766.881592 
	C893.981323,777.802979 898.119141,781.949890 909.061218,781.953125 
	C945.207458,781.963806 981.353760,781.957275 1018.500000,781.957275 
M1003.142090,590.320679 
	C987.491577,589.988159 974.627991,598.727417 970.133240,612.746338 
	C965.766541,626.365601 970.838318,641.210510 982.638489,649.348633 
	C994.424194,657.476868 1010.121643,657.064087 1021.217834,647.926270 
	C1031.698975,639.294983 1035.598022,627.946594 1032.274170,614.857544 
	C1028.610596,600.430969 1018.660034,592.501953 1003.142090,590.320679 
M1020.683350,849.955872 
	C1020.730652,848.629395 1020.946960,847.283630 1020.797546,845.979675 
	C1019.869629,837.884216 1015.874207,831.860352 1008.168884,828.914978 
	C1000.528442,825.994446 993.356750,827.285767 987.395508,832.998352 
	C981.465820,838.680908 979.741455,845.695496 982.206299,853.551392 
	C984.796814,861.807678 992.813538,867.260193 1001.689697,867.031799 
	C1010.924683,866.794189 1017.852295,860.798157 1020.683350,849.955872 
M879.646729,832.842102 
	C872.203613,826.852417 863.965332,825.838623 856.520874,829.996338 
	C849.460144,833.939758 845.347717,841.999817 846.483704,849.668030 
	C847.782837,858.436890 854.001160,865.126282 862.389893,866.779175 
	C870.523193,868.381714 879.023376,864.487366 883.243347,857.225159 
	C887.801453,849.381042 886.714783,840.964233 879.646729,832.842102 
M1151.260864,859.663452 
	C1157.171143,851.044800 1157.150391,842.076111 1151.203003,834.790283 
	C1145.763916,828.127075 1136.624878,825.725525 1128.657471,828.865479 
	C1121.131958,831.831177 1116.131104,839.003967 1116.024048,846.985962 
	C1115.916504,855.003357 1120.647339,862.502502 1128.110107,865.464966 
	C1136.782227,868.907471 1144.393311,866.957886 1151.260864,859.663452 
M1005.200928,699.606995 
	C1004.983643,698.968750 1004.792603,697.787415 1004.545105,697.775391 
	C1001.807190,697.643066 999.060425,697.692200 995.245972,697.692200 
	C997.516052,700.441040 999.099304,702.358276 1000.959656,704.611084 
	C1002.464172,702.864624 1003.614319,701.529541 1005.200928,699.606995 
z"/>
<path fill="#88D3B9" opacity="1.000000" stroke="none" 
	d="
M860.123840,907.527771 
	C860.612183,902.988770 862.718750,900.463501 867.034241,901.050903 
	C871.125916,901.607910 872.191895,904.673767 872.084045,908.409302 
	C871.992676,911.570740 872.106262,914.737549 872.047241,917.900452 
	C871.978638,921.582214 870.240723,924.014282 866.412048,924.170715 
	C862.283752,924.339417 860.370728,921.789001 860.162415,917.956543 
	C859.981934,914.635681 860.118713,911.297607 860.123840,907.527771 
z"/>
<path fill="#88D3B9" opacity="1.000000" stroke="none" 
	d="
M1138.097900,923.872314 
	C1131.960327,924.209961 1130.054810,922.590149 1129.952271,917.170837 
	C1129.883301,913.530762 1129.519531,909.804810 1130.168335,906.279358 
	C1130.516724,904.386108 1132.441650,901.920471 1134.171997,901.385742 
	C1135.911377,900.848267 1138.888916,901.777588 1140.274536,903.135132 
	C1143.743652,906.533875 1142.233398,920.307739 1138.097900,923.872314 
z"/>
<path fill="#88D3B9" opacity="1.000000" stroke="none" 
	d="
M1004.714966,902.231873 
	C1008.570801,908.384277 1007.215454,914.723511 1006.079285,920.794006 
	C1005.810181,922.231384 1002.116028,924.110291 1000.252686,923.862915 
	C998.382385,923.614685 995.669922,921.155396 995.370911,919.330261 
	C994.653564,914.951721 994.771667,910.338806 995.236267,905.891846 
	C995.693054,901.519165 999.317383,900.186401 1004.714966,902.231873 
z"/>
<path fill="#3185CD" opacity="1.000000" stroke="none" 
	d="
M1326.993408,494.960358 
	C1327.145386,494.325562 1327.559204,493.942322 1328.371338,493.647247 
	C1328.769775,493.735413 1329.077026,494.066986 1329.077026,494.067017 
	C1328.797363,494.503265 1328.517700,494.939514 1328.025635,495.525879 
	C1327.627075,495.521271 1327.441040,495.366577 1326.993408,494.960358 
z"/>
<path fill="#3185CD" opacity="1.000000" stroke="none" 
	d="
M1330.055298,493.069336 
	C1330.126831,492.979126 1330.198364,492.888916 1330.145264,492.909607 
	C1330.020386,493.020477 1330.055298,493.069336 1330.055298,493.069336 
z"/>
<path fill="#3185CD" opacity="1.000000" stroke="none" 
	d="
M1330.002930,492.996094 
	C1329.833496,493.263550 1329.681396,493.555328 1329.303223,493.957062 
	C1329.077026,494.066986 1328.769775,493.735413 1328.638428,493.545868 
	C1328.846191,493.174377 1329.185547,492.992432 1329.790039,492.939880 
	C1330.055298,493.069336 1330.020386,493.020477 1330.002930,492.996094 
z"/>
<path fill="#3185CD" opacity="1.000000" stroke="none" 
	d="
M1321.964355,522.970337 
	C1321.876831,522.962280 1321.789307,522.954163 1321.856812,522.978516 
	C1322.011841,523.010986 1321.964355,522.970337 1321.964355,522.970337 
z"/>
<path fill="#3185CD" opacity="1.000000" stroke="none" 
	d="
M1323.172363,522.166382 
	C1322.942871,522.415161 1322.713379,522.663940 1322.224121,522.941528 
	C1321.964355,522.970337 1322.011841,523.010986 1322.036377,523.031128 
	C1322.067139,522.668274 1322.073120,522.285217 1322.440918,521.850342 
	C1322.925781,521.921082 1323.049072,522.043762 1323.172363,522.166382 
z"/>
<path fill="#3185CD" opacity="1.000000" stroke="none" 
	d="
M1322.625244,521.607300 
	C1322.586670,521.167603 1322.755371,520.941345 1323.108887,520.593811 
	C1323.452271,520.598572 1323.640747,520.746887 1324.099365,521.133789 
	C1324.205688,521.675598 1323.966187,521.896912 1323.411743,522.101379 
	C1323.049072,522.043762 1322.925781,521.921082 1322.625244,521.607300 
z"/>
<path fill="#3083CC" opacity="1.000000" stroke="none" 
	d="
M622.028198,547.634766 
	C623.512817,543.215820 624.573425,537.714966 630.059021,538.021362 
	C637.388062,538.430664 643.658325,542.284363 648.257812,548.036926 
	C650.524963,550.872498 649.015869,554.931519 644.447998,560.642883 
	C637.114990,556.460022 629.668213,552.212219 622.028198,547.634766 
z"/>
<path fill="#3083CC" opacity="1.000000" stroke="none" 
	d="
M1285.139893,454.139709 
	C1288.925049,450.373169 1292.350952,446.737244 1296.024658,443.371826 
	C1300.191284,439.555115 1304.067993,439.540283 1307.445557,442.976196 
	C1310.738647,446.326202 1310.974609,450.050446 1307.124023,453.988007 
	C1294.226807,467.176544 1281.177246,480.220764 1267.972412,493.101135 
	C1264.155518,496.824188 1260.241577,496.452087 1256.969360,493.056183 
	C1253.854858,489.823914 1253.798096,485.777985 1257.477661,481.980164 
	C1266.497925,472.669769 1275.738159,463.572662 1285.139893,454.139709 
z"/>
<path fill="#3083CC" opacity="1.000000" stroke="none" 
	d="
M1079.535400,379.516205 
	C1078.827148,383.035309 1078.429688,386.196564 1077.574219,389.228638 
	C1076.375610,393.477478 1073.487793,395.665375 1068.937866,394.882721 
	C1064.403687,394.102783 1062.121704,391.147614 1062.777100,386.705750 
	C1064.453125,375.347778 1066.420898,364.032013 1068.344482,352.711700 
	C1069.487793,345.983459 1070.685791,339.262207 1072.011230,332.567902 
	C1073.252441,326.299072 1076.242676,323.993286 1081.512573,324.937500 
	C1086.266724,325.789276 1088.217407,329.025726 1087.183228,335.299713 
	C1084.774048,349.917267 1082.168091,364.502441 1079.535400,379.516205 
z"/>
<path fill="#3083CC" opacity="1.000000" stroke="none" 
	d="
M765.646179,436.351624 
	C770.465881,442.536743 775.350098,448.250366 779.502563,454.453827 
	C781.053528,456.770844 782.010559,460.544678 781.288025,463.103546 
	C779.791748,468.402252 773.197388,469.623627 769.137024,465.642426 
	C766.306519,462.867035 763.971069,459.573730 761.510010,456.436829 
	C752.681580,445.183868 743.858521,433.926361 735.115112,422.607483 
	C732.855103,419.681671 730.731812,416.539825 733.021851,412.604645 
	C736.232788,407.087006 742.082581,406.731232 746.579895,412.175354 
	C753.038818,419.994049 759.156555,428.094543 765.646179,436.351624 
z"/>
<path fill="#3083CC" opacity="1.000000" stroke="none" 
	d="
M799.013306,1083.987305 
	C804.328613,1074.396973 809.487000,1065.133301 815.146179,1054.970459 
	C822.214233,1059.243286 829.280884,1062.867065 835.561829,1067.545776 
	C839.582092,1070.540527 841.031677,1075.744141 839.149719,1080.664185 
	C837.454712,1085.095581 835.170105,1089.472900 832.316223,1093.246948 
	C828.645569,1098.101440 822.007507,1099.443848 816.521362,1096.822632 
	C810.836487,1094.106689 805.348450,1090.958130 799.915588,1087.758911 
	C799.151367,1087.308960 799.189575,1085.495972 799.013306,1083.987305 
z"/>
<path fill="#3184CD" opacity="1.000000" stroke="none" 
	d="
M1260.916138,1062.098389 
	C1263.921631,1066.111328 1266.848511,1069.745117 1269.491211,1073.574951 
	C1275.018188,1081.584351 1273.166382,1089.200317 1264.255249,1095.818237 
	C1256.045288,1101.915283 1247.971558,1101.462646 1242.280518,1094.104858 
	C1232.614258,1081.607666 1223.084839,1068.999023 1213.755249,1056.248901 
	C1207.962524,1048.332275 1209.911621,1040.622559 1218.825073,1034.015259 
	C1227.266724,1027.757690 1235.222900,1028.329224 1241.152954,1035.935425 
	C1247.799072,1044.460205 1254.200806,1053.175415 1260.916138,1062.098389 
z"/>
<path fill="#07054A" opacity="1.000000" stroke="none" 
	d="
M1018.000000,781.957275 
	C981.353760,781.957275 945.207458,781.963806 909.061218,781.953125 
	C898.119141,781.949890 893.981323,777.802979 893.962585,766.881592 
	C893.951416,760.385254 893.933167,753.888733 893.969177,747.392639 
	C894.020996,738.034485 898.314697,733.710327 907.788025,733.700806 
	C945.600037,733.662659 983.411987,733.683105 1021.223999,733.682678 
	C1045.377075,733.682434 1069.530029,733.663391 1093.683105,733.694031 
	C1103.845093,733.706909 1107.999023,737.845947 1108.033813,747.865784 
	C1108.057617,754.695190 1108.080933,761.525085 1108.027832,768.354187 
	C1107.958862,777.254089 1103.371216,781.917053 1094.457153,781.936523 
	C1069.138184,781.991882 1043.819092,781.956787 1018.000000,781.957275 
z"/>
<path fill="#08074B" opacity="1.000000" stroke="none" 
	d="
M1003.567261,590.367798 
	C1018.660034,592.501953 1028.610596,600.430969 1032.274170,614.857544 
	C1035.598022,627.946594 1031.698975,639.294983 1021.217834,647.926270 
	C1010.121643,657.064087 994.424194,657.476868 982.638489,649.348633 
	C970.838318,641.210510 965.766541,626.365601 970.133240,612.746338 
	C974.627991,598.727417 987.491577,589.988159 1003.567261,590.367798 
z"/>
<path fill="#09084C" opacity="1.000000" stroke="none" 
	d="
M1020.588562,850.356323 
	C1017.852295,860.798157 1010.924683,866.794189 1001.689697,867.031799 
	C992.813538,867.260193 984.796814,861.807678 982.206299,853.551392 
	C979.741455,845.695496 981.465820,838.680908 987.395508,832.998352 
	C993.356750,827.285767 1000.528442,825.994446 1008.168884,828.914978 
	C1015.874207,831.860352 1019.869629,837.884216 1020.797546,845.979675 
	C1020.946960,847.283630 1020.730652,848.629395 1020.588562,850.356323 
z"/>
<path fill="#09084C" opacity="1.000000" stroke="none" 
	d="
M879.904053,833.097900 
	C886.714783,840.964233 887.801453,849.381042 883.243347,857.225159 
	C879.023376,864.487366 870.523193,868.381714 862.389893,866.779175 
	C854.001160,865.126282 847.782837,858.436890 846.483704,849.668030 
	C845.347717,841.999817 849.460144,833.939758 856.520874,829.996338 
	C863.965332,825.838623 872.203613,826.852417 879.904053,833.097900 
z"/>
<path fill="#09084C" opacity="1.000000" stroke="none" 
	d="
M1151.040771,859.953979 
	C1144.393311,866.957886 1136.782227,868.907471 1128.110107,865.464966 
	C1120.647339,862.502502 1115.916504,855.003357 1116.024048,846.985962 
	C1116.131104,839.003967 1121.131958,831.831177 1128.657471,828.865479 
	C1136.624878,825.725525 1145.763916,828.127075 1151.203003,834.790283 
	C1157.150391,842.076111 1157.171143,851.044800 1151.040771,859.953979 
z"/>
<path fill="#08094E" opacity="1.000000" stroke="none" 
	d="
M1004.982666,699.900757 
	C1003.614319,701.529541 1002.464172,702.864624 1000.959656,704.611084 
	C999.099304,702.358276 997.516052,700.441040 995.245972,697.692200 
	C999.060425,697.692200 1001.807190,697.643066 1004.545105,697.775391 
	C1004.792603,697.787415 1004.983643,698.968750 1004.982666,699.900757 
z"/>
</svg>