<?xml version="1.0" encoding="UTF-8"?>
<svg version="1.1" xmlns="http://www.w3.org/2000/svg" width="32" height="32">
<path d="M0 0 C10.56 0 21.12 0 32 0 C32 10.56 32 21.12 32 32 C21.44 32 10.88 32 0 32 C0 21.44 0 10.88 0 0 Z " fill="#8AD7BC" transform="translate(0,0)"/>
<path d="M0 0 C2.69990662 1.79993774 4.5418865 3.083773 6 6 C6.43023798 9.87214182 6.31669086 11.52496371 4.125 14.8125 C1.61855093 17.39266816 0.74538327 17.91717964 -2.8125 18.3125 C-6.7307645 17.92835642 -8.21293267 16.70743683 -11 14 C-12.42662219 11.14675563 -12.31033868 9.16545451 -12 6 C-8.54235344 0.81353016 -6.24330406 -0.61208863 0 0 Z " fill="#2562AB" transform="translate(19,7)"/>
<path d="M0 0 C3 0.25 3 0.25 5 2.25 C5.25 5.25 5.25 5.25 5 8.25 C3 10.25 3 10.25 0 10.5 C-3 10.25 -3 10.25 -5 8.25 C-5.25 5.25 -5.25 5.25 -5 2.25 C-3 0.25 -3 0.25 0 0 Z " fill="#070649" transform="translate(16,10.75)"/>
<path d="M0 0 C2 2 2 2 2.375 4.8125 C1.9175983 8.70041449 0.69507803 10.22565497 -2 13 C-4.70879335 14.35439668 -7.00933268 14.06501451 -10 14 C-9.67 13.01 -9.34 12.02 -9 11 C-8.195625 10.7525 -7.39125 10.505 -6.5625 10.25 C-3.58427071 9.16509381 -3.58427071 9.16509381 -2.6875 5.375 C-2.460625 4.26125 -2.23375 3.1475 -2 2 C-1.34 2 -0.68 2 0 2 C0 1.34 0 0.68 0 0 Z " fill="#2666AE" transform="translate(23,11)"/>
<path d="M0 0 C2.375 1.3125 2.375 1.3125 4 3 C4 3.99 4 4.98 4 6 C3.32453125 5.91621094 2.6490625 5.83242187 1.953125 5.74609375 C1.06109375 5.64425781 0.1690625 5.54242187 -0.75 5.4375 C-1.63171875 5.33308594 -2.5134375 5.22867187 -3.421875 5.12109375 C-5.88432451 5.00543324 -7.66538064 5.26361305 -10 6 C-7.90021558 0.15060054 -6.23502468 -0.49880197 0 0 Z " fill="#2866AB" transform="translate(19,7)"/>
<path d="M0 0 C1.125 1.5625 1.125 1.5625 2 4 C1.125 7.75 1.125 7.75 0 11 C-2 9 -2 9 -2.25 6.0625 C-2 3 -2 3 0 0 Z " fill="#3587C9" transform="translate(9,10)"/>
<path d="M0 0 C0.66 0 1.32 0 2 0 C2 0.66 2 1.32 2 2 C2.66 2 3.32 2 4 2 C3.67 3.32 3.34 4.64 3 6 C1.35 6 -0.3 6 -2 6 C-2 4.68 -2 3.36 -2 2 C-1.34 2 -0.68 2 0 2 C0 1.34 0 0.68 0 0 Z " fill="#2F466D" transform="translate(15,13)"/>
<path d="M0 0 C2.31 0.66 4.62 1.32 7 2 C7 2.99 7 3.98 7 5 C4.07120629 4.37240135 1.63904371 3.41377341 -1 2 C-0.67 1.34 -0.34 0.68 0 0 Z " fill="#1E5199" transform="translate(16,8)"/>
<path d="M0 0 C2 2 2 2 2.125 5.125 C2.08375 6.07375 2.0425 7.0225 2 8 C1.01 8 0.02 8 -1 8 C-1.33 6.02 -1.66 4.04 -2 2 C-1.34 2 -0.68 2 0 2 C0 1.34 0 0.68 0 0 Z " fill="#378ACB" transform="translate(23,11)"/>
<path d="M0 0 C0.33 0.66 0.66 1.32 1 2 C1.66 2.33 2.32 2.66 3 3 C0.29120665 4.35439668 -2.00933268 4.06501451 -5 4 C-4.67 3.01 -4.34 2.02 -4 1 C-1.9375 0.3125 -1.9375 0.3125 0 0 Z " fill="#3380C1" transform="translate(18,21)"/>
</svg>
