<?xml version="1.0" encoding="UTF-8"?>
<svg version="1.1" xmlns="http://www.w3.org/2000/svg" width="128" height="128">
<path d="M0 0 C42.24 0 84.48 0 128 0 C128 42.24 128 84.48 128 128 C85.76 128 43.52 128 0 128 C0 85.76 0 43.52 0 0 Z " fill="#8AD7BC" transform="translate(0,0)"/>
<path d="M0 0 C8.84614279 6.24291821 15.81582474 14.23033582 18 25 C19.12034626 34.74154736 17.7166032 44.73361631 11.9765625 52.8671875 C9.7653755 55.41042989 7.4859619 57.72651348 5 60 C4.42121094 60.53496094 3.84242187 61.06992188 3.24609375 61.62109375 C-3.78927655 67.33415349 -13.20856546 68.63204431 -22.0234375 68.3359375 C-33.68354024 67.0199679 -41.71244363 60.57544297 -48.9375 51.625 C-54.48694795 43.06468136 -55.42772181 31.94824616 -53.4140625 22.1484375 C-50.42503016 12.41351565 -43.00344695 3.8253768 -34 -1 C-23.09827167 -6.20742751 -10.76989855 -5.04754644 0 0 Z " fill="#3084CC" transform="translate(82,32)"/>
<path d="M0 0 C5.48754632 3.26314896 10.09324715 8.11657747 12.48046875 14.08984375 C13.34464973 21.47631696 13.59877696 28.36162156 8.9765625 34.4765625 C4.78848315 38.99268984 0.58838782 42.72623253 -5.69140625 43.4609375 C-13.32184034 43.60255036 -18.77961123 43.41282043 -24.51953125 38.08984375 C-29.69450817 32.88826027 -31.82059569 28.69131284 -31.95703125 21.33984375 C-31.84088279 13.88311284 -30.21413025 9.76554455 -24.9921875 4.5703125 C-17.95448689 -1.64363689 -8.99931987 -3.2509171 0 0 Z " fill="#0A0C4E" transform="translate(73.51953125,42.91015625)"/>
<path d="M0 0 C5.4534476 3.93411563 10.01483114 8.58703821 14 14 C14 14.66 14 15.32 14 16 C13.34 16 12.68 16 12 16 C12 16.66 12 17.32 12 18 C11.01 18 10.02 18 9 18 C8.34 18.99 7.68 19.98 7 21 C2.97847153 19.65949051 2.29726746 17.48070827 0 14 C-0.7425 13.443125 -1.485 12.88625 -2.25 12.3125 C-2.8275 11.879375 -3.405 11.44625 -4 11 C-4 10.01 -4 9.02 -4 8 C-4.55171875 8.18433594 -5.1034375 8.36867188 -5.671875 8.55859375 C-8.48460705 9.0918802 -10.46535347 8.68538146 -13.25 8.0625 C-14.14203125 7.86785156 -15.0340625 7.67320313 -15.953125 7.47265625 C-16.62859375 7.31667969 -17.3040625 7.16070312 -18 7 C-18.33 6.01 -18.66 5.02 -19 4 C-19.33 4.99 -19.66 5.98 -20 7 C-21.98 7 -23.96 7 -26 7 C-26.33 6.34 -26.66 5.68 -27 5 C-27.33 6.32 -27.66 7.64 -28 9 C-29.65 9.33 -31.3 9.66 -33 10 C-33 10.66 -33 11.32 -33 12 C-33.99 12 -34.98 12 -36 12 C-36 12.99 -36 13.98 -36 15 C-36.66 15 -37.32 15 -38 15 C-38.28875 15.61875 -38.5775 16.2375 -38.875 16.875 C-40 19 -40 19 -42 21 C-43.65 20.01 -45.3 19.02 -47 18 C-46.34 16.68 -45.68 15.36 -45 14 C-45.99 13.67 -46.98 13.34 -48 13 C-44.23297573 4.72341303 -37.20608198 0.32641849 -29 -3 C-19.51862403 -5.96529089 -8.81354671 -4.14755139 0 0 Z " fill="#2F80C8" transform="translate(82,32)"/>
<path d="M0 0 C0.99 0.99 1.98 1.98 3 3 C2.01 3.495 2.01 3.495 1 4 C1 4.66 1 5.32 1 6 C2.32 6.66 3.64 7.32 5 8 C5.5775 7.195625 6.155 6.39125 6.75 5.5625 C8.98126893 3.02133261 9.74456771 2.34879632 13 2 C12.52601514 4.96240537 11.66859289 6.49965996 9.96875 9.0625 C7.40607652 13.47465009 7.54099864 17.44960227 7.75 22.4375 C7.77707031 23.67790039 7.77707031 23.67790039 7.8046875 24.94335938 C7.8513786 26.96274933 7.92310607 28.98153445 8 31 C6.02 31.99 6.02 31.99 4 33 C4.66 33 5.32 33 6 33 C5.34 34.32 4.68 35.64 4 37 C3.34 37 2.68 37 2 37 C2 37.66 2 38.32 2 39 C3.98 38.505 3.98 38.505 6 38 C6 38.99 6 39.98 6 41 C6.66 41.99 7.32 42.98 8 44 C8 43.34 8 42.68 8 42 C8.66 42 9.32 42 10 42 C10.33 41.01 10.66 40.02 11 39 C12.5 40.0625 12.5 40.0625 14 42 C14.1875 45.6875 14.1875 45.6875 14 49 C14.66 49 15.32 49 16 49 C16.33 48.34 16.66 47.68 17 47 C17.66 47.33 18.32 47.66 19 48 C19.33 48.99 19.66 49.98 20 51 C21.485 51.495 21.485 51.495 23 52 C23.33 51.34 23.66 50.68 24 50 C24 50.66 24 51.32 24 52 C24.66 52 25.32 52 26 52 C26.495 51.01 26.495 51.01 27 50 C27 50.66 27 51.32 27 52 C27.66 52 28.32 52 29 52 C29 50.35 29 48.7 29 47 C30.32 47 31.64 47 33 47 C33.66 46.34 34.32 45.68 35 45 C38 51.625 38 51.625 38 55 C28.90337327 57.64511841 19.26709861 56.52031415 11 52 C1.1303174 44.69643487 -4.90834377 37.17987515 -7 25 C-7.87929954 16.7967787 -6.93856335 9.3502286 -3 2 C-2.01 1.34 -1.02 0.68 0 0 Z " fill="#3185CC" transform="translate(35,44)"/>
<path d="M0 0 C0.53625 0.721875 1.0725 1.44375 1.625 2.1875 C5.6558913 6.96092391 10.20876202 11.3911042 16.578125 12.4140625 C17.45984375 12.48367187 18.3415625 12.55328125 19.25 12.625 C20.14203125 12.69976562 21.0340625 12.77453125 21.953125 12.8515625 C22.96632813 12.92503906 22.96632813 12.92503906 24 13 C24 13.33 24 13.66 24 14 C22.02 14 20.04 14 18 14 C18 15.65 18 17.3 18 19 C18.66 19 19.32 19 20 19 C20 18.01 20 17.02 20 16 C21.65 16 23.3 16 25 16 C24.67 18.31 24.34 20.62 24 23 C23.67 23 23.34 23 23 23 C23 21.35 23 19.7 23 18 C22.34 18 21.68 18 21 18 C21 19.65 21 21.3 21 23 C12.77142857 23.47472527 12.77142857 23.47472527 9.5625 21.5 C9.046875 21.005 8.53125 20.51 8 20 C7.34 20 6.68 20 6 20 C5.87625 18.88625 5.7525 17.7725 5.625 16.625 C5.3534187 12.96896323 5.3534187 12.96896323 3 11 C2.67 11.66 2.34 12.32 2 13 C1.34 13 0.68 13 0 13 C0.33 13.99 0.66 14.98 1 16 C0.01 15.67 -0.98 15.34 -2 15 C-2 14.01 -2 13.02 -2 12 C-2.66 11.67 -3.32 11.34 -4 11 C-4 10.67 -4 10.34 -4 10 C-4.66 10 -5.32 10 -6 10 C-6 8 -6 8 -4.5 6.375 C-4.005 5.92125 -3.51 5.4675 -3 5 C-4.32 5.33 -5.64 5.66 -7 6 C-5.35 4.35 -3.7 2.7 -2 1 C-1.34 1.33 -0.68 1.66 0 2 C0 1.34 0 0.68 0 0 Z " fill="#2E80CA" transform="translate(43,73)"/>
<path d="M0 0 C7.69559061 2.66813415 13.65269538 9.48617238 18.43359375 15.84375 C18.43359375 16.50375 18.43359375 17.16375 18.43359375 17.84375 C17.77359375 17.84375 17.11359375 17.84375 16.43359375 17.84375 C16.43359375 18.50375 16.43359375 19.16375 16.43359375 19.84375 C15.44359375 19.84375 14.45359375 19.84375 13.43359375 19.84375 C12.77359375 20.83375 12.11359375 21.82375 11.43359375 22.84375 C7.41206528 21.50324051 6.73086121 19.32445827 4.43359375 15.84375 C2.32783732 14.01074091 2.32783732 14.01074091 0.43359375 12.84375 C0.76359375 10.53375 1.09359375 8.22375 1.43359375 5.84375 C0.44359375 5.18375 -0.54640625 4.52375 -1.56640625 3.84375 C-2.22640625 5.49375 -2.88640625 7.14375 -3.56640625 8.84375 C-3.71078125 8.225 -3.85515625 7.60625 -4.00390625 6.96875 C-4.85890781 3.7387441 -6.18665116 2.12003748 -8.56640625 -0.15625 C-5.52608372 -1.67641127 -3.22201893 -0.783595 0 0 Z " fill="#2F80C7" transform="translate(77.56640625,30.15625)"/>
<path d="M0 0 C3.37546443 3.37546443 5 5.00749337 5 10 C5.66 8.68 6.32 7.36 7 6 C7.99 6.33 8.98 6.66 10 7 C9.67 8.65 9.34 10.3 9 12 C5.59598052 13.13732426 3.22543336 12.83989957 -0.25 12.0625 C-1.14203125 11.86785156 -2.0340625 11.67320313 -2.953125 11.47265625 C-3.62859375 11.31667969 -4.3040625 11.16070312 -5 11 C-5.33 10.01 -5.66 9.02 -6 8 C-6.33 8.99 -6.66 9.98 -7 11 C-8.98 11 -10.96 11 -13 11 C-13.66 8.69 -14.32 6.38 -15 4 C-13.68 3.67 -12.36 3.34 -11 3 C-11 2.34 -11 1.68 -11 1 C-7.07703567 -0.30765478 -4.13997567 -0.1971417 0 0 Z " fill="#2C77BF" transform="translate(69,28)"/>
<path d="M0 0 C0.61875 0.185625 1.2375 0.37125 1.875 0.5625 C4.04160178 1.23686176 4.04160178 1.23686176 6 0 C5.67 1.98 5.34 3.96 5 6 C5.969375 5.979375 6.93875 5.95875 7.9375 5.9375 C11 6 11 6 12 7 C12.04063832 8.66617115 12.042721 10.33388095 12 12 C9.69 12.66 7.38 13.32 5 14 C5 15.32 5 16.64 5 18 C3.68 18 2.36 18 1 18 C1 16.68 1 15.36 1 14 C-1.31 13.34 -3.62 12.68 -6 12 C-6.042721 10.33388095 -6.04063832 8.66617115 -6 7 C-5 6 -5 6 -1.9375 5.9375 C-0.4834375 5.9684375 -0.4834375 5.9684375 1 6 C0.67 4.02 0.34 2.04 0 0 Z " fill="#5C8F95" transform="translate(61,55)"/>
<path d="M0 0 C2.38564077 0.57584432 4.66682784 1.22227595 7 2 C7.99 1.34 8.98 0.68 10 0 C12.04296875 -0.1953125 12.04296875 -0.1953125 14.1875 -0.125 C16.0746875 -0.063125 16.0746875 -0.063125 18 0 C18 0.33 18 0.66 18 1 C16.02 1 14.04 1 12 1 C12 2.65 12 4.3 12 6 C12.66 6 13.32 6 14 6 C14 5.01 14 4.02 14 3 C15.65 3 17.3 3 19 3 C18.67 5.31 18.34 7.62 18 10 C17.67 10 17.34 10 17 10 C17 8.35 17 6.7 17 5 C16.34 5 15.68 5 15 5 C15 6.65 15 8.3 15 10 C6.77142857 10.47472527 6.77142857 10.47472527 3.5625 8.5 C3.046875 8.005 2.53125 7.51 2 7 C1.34 7 0.68 7 0 7 C-1.125 2.25 -1.125 2.25 0 0 Z " fill="#2461A9" transform="translate(49,86)"/>
<path d="M0 0 C2 2 2 2 3 5 C3.66 5.33 4.32 5.66 5 6 C4.34 6 3.68 6 3 6 C3.33 7.32 3.66 8.64 4 10 C2.35 10 0.7 10 -1 10 C-0.67 10.66 -0.34 11.32 0 12 C-0.99 12.495 -0.99 12.495 -2 13 C-2 13.66 -2 14.32 -2 15 C-2.99 15.33 -3.98 15.66 -5 16 C-5.66 15.34 -6.32 14.68 -7 14 C-7.99 14.33 -8.98 14.66 -10 15 C-9.67 16.32 -9.34 17.64 -9 19 C-10.65 17.68 -12.3 16.36 -14 15 C-14.66 16.32 -15.32 17.64 -16 19 C-16.33 17.35 -16.66 15.7 -17 14 C-14.625 12.9375 -14.625 12.9375 -12 12 C-11.34 12.33 -10.68 12.66 -10 13 C-9.34 11.68 -8.68 10.36 -8 9 C-7.01 9 -6.02 9 -5 9 C-4.34 7.35 -3.68 5.7 -3 4 C-2.34 4 -1.68 4 -1 4 C-0.67 2.68 -0.34 1.36 0 0 Z " fill="#235BA3" transform="translate(87,75)"/>
<path d="M0 0 C0.66 0.33 1.32 0.66 2 1 C2.625 4.0625 2.625 4.0625 3 7 C0 9 0 9 -3 9 C-3 9.66 -3 10.32 -3 11 C-3.99 11 -4.98 11 -6 11 C-6 11.99 -6 12.98 -6 14 C-6.66 14 -7.32 14 -8 14 C-8.433125 14.928125 -8.433125 14.928125 -8.875 15.875 C-10 18 -10 18 -12 20 C-13.65 19.01 -15.3 18.02 -17 17 C-15.25 12.125 -15.25 12.125 -13 11 C-13 11.66 -13 12.32 -13 13 C-12.34 13 -11.68 13 -11 13 C-11 13.66 -11 14.32 -11 15 C-10.34 15 -9.68 15 -9 15 C-9 14.01 -9 13.02 -9 12 C-9.66 11.34 -10.32 10.68 -11 10 C-10.01 9.67 -9.02 9.34 -8 9 C-8.33 7.68 -8.66 6.36 -9 5 C-8.01 4.67 -7.02 4.34 -6 4 C-5.34 3.67 -4.68 3.34 -4 3 C-3.01 4.32 -2.02 5.64 -1 7 C-1.33 5.02 -1.66 3.04 -2 1 C-1.34 0.67 -0.68 0.34 0 0 Z " fill="#153176" transform="translate(52,33)"/>
<path d="M0 0 C1.32 0.66 2.64 1.32 4 2 C4 2.66 4 3.32 4 4 C4.99 4.33 5.98 4.66 7 5 C7 5.99 7 6.98 7 8 C7.66 7.67 8.32 7.34 9 7 C9.33 7.99 9.66 8.98 10 10 C9.67 10.66 9.34 11.32 9 12 C9.99 11.67 10.98 11.34 12 11 C11.0022242 13.99332739 10.2477975 14.94766315 8 17 C3.97847153 15.65949051 3.29726746 13.48070827 1 10 C-1.10575643 8.16699091 -1.10575643 8.16699091 -3 7 C-1.125 2.25 -1.125 2.25 0 0 Z " fill="#153074" transform="translate(81,36)"/>
<path d="M0 0 C0.99 0.99 1.98 1.98 3 3 C3.33 2.01 3.66 1.02 4 0 C5.98 0 7.96 0 10 0 C10 1.98 10 3.96 10 6 C10.66 4.68 11.32 3.36 12 2 C12.99 2.33 13.98 2.66 15 3 C14.67 4.65 14.34 6.3 14 8 C10.59598052 9.13732426 8.22543336 8.83989957 4.75 8.0625 C3.85796875 7.86785156 2.9659375 7.67320313 2.046875 7.47265625 C1.37140625 7.31667969 0.6959375 7.16070312 0 7 C0 4.66666667 0 2.33333333 0 0 Z " fill="#17377C" transform="translate(64,32)"/>
<path d="M0 0 C0 0.66 0 1.32 0 2 C-0.99 2 -1.98 2 -3 2 C-3 3.65 -3 5.3 -3 7 C-3.33 5.68 -3.66 4.36 -4 3 C-4.99 3 -5.98 3 -7 3 C-7.33 3.66 -7.66 4.32 -8 5 C-8.99 5.495 -8.99 5.495 -10 6 C-9.67 7.65 -9.34 9.3 -9 11 C-9.99 11 -10.98 11 -12 11 C-12.33 9.68 -12.66 8.36 -13 7 C-14.32 6.67 -15.64 6.34 -17 6 C-12.98615948 0.93907065 -6.30754927 -2.10729487 0 0 Z " fill="#3083CA" transform="translate(61,29)"/>
<path d="M0 0 C2 2 2 2 2 5 C2.66 5 3.32 5 4 5 C4.33 4.34 4.66 3.68 5 3 C5 3.99 5 4.98 5 6 C7.64 6.33 10.28 6.66 13 7 C13 7.33 13 7.66 13 8 C12.38253906 8.01417969 11.76507813 8.02835938 11.12890625 8.04296875 C4.31567998 8.42666642 -0.31518147 10.27877821 -6 14 C-6 13.34 -6 12.68 -6 12 C-6.66 12 -7.32 12 -8 12 C-8 11.34 -8 10.68 -8 10 C-7.01 10 -6.02 10 -5 10 C-5 9.34 -5 8.68 -5 8 C-3.35 7.34 -1.7 6.68 0 6 C0 4.02 0 2.04 0 0 Z " fill="#2E7EC7" transform="translate(54,34)"/>
<path d="M0 0 C0.66 0.33 1.32 0.66 2 1 C2.67375452 3.088639 3 4.80363095 3 7 C3.66 6.67 4.32 6.34 5 6 C5 6.66 5 7.32 5 8 C5.99 8.33 6.98 8.66 8 9 C7.67 9.66 7.34 10.32 7 11 C6.67 10.67 6.34 10.34 6 10 C5.67 10.66 5.34 11.32 5 12 C4.34 12 3.68 12 3 12 C3.33 12.99 3.66 13.98 4 15 C3.01 14.67 2.02 14.34 1 14 C1 13.01 1 12.02 1 11 C0.34 10.67 -0.32 10.34 -1 10 C-1 9.67 -1 9.34 -1 9 C-1.66 9 -2.32 9 -3 9 C-3 7 -3 7 -1.5 5.375 C-1.005 4.92125 -0.51 4.4675 0 4 C-1.32 4.33 -2.64 4.66 -4 5 C-2.68 3.35 -1.36 1.7 0 0 Z " fill="#1E4C93" transform="translate(40,74)"/>
<path d="M0 0 C3.41021743 0.78697325 6.68885166 1.87119943 10 3 C9.67 3.66 9.34 4.32 9 5 C8.34 4.67 7.68 4.34 7 4 C7.33 5.32 7.66 6.64 8 8 C8.33 7.34 8.66 6.68 9 6 C9 7.32 9 8.64 9 10 C5.8301373 9.29558607 2.86537728 8.54885258 0 7 C-0.875 4.5 -0.875 4.5 -1 2 C-0.67 1.34 -0.34 0.68 0 0 Z " fill="#1F5299" transform="translate(49,86)"/>
<path d="M0 0 C5.28 0 10.56 0 16 0 C16 0.99 16 1.98 16 3 C10.72 3 5.44 3 0 3 C0 2.01 0 1.02 0 0 Z " fill="#06064B" transform="translate(56,63)"/>
<path d="M0 0 C0.99 0.33 1.98 0.66 3 1 C2.34 1 1.68 1 1 1 C1.66 1.99 2.32 2.98 3 4 C3.99 4 4.98 4 6 4 C6 4.66 6 5.32 6 6 C5.01 6.33 4.02 6.66 3 7 C2.34 6.34 1.68 5.68 1 5 C0.01 5.33 -0.98 5.66 -2 6 C-1.67 7.32 -1.34 8.64 -1 10 C-2.65 8.68 -4.3 7.36 -6 6 C-6.66 7.32 -7.32 8.64 -8 10 C-8.33 8.35 -8.66 6.7 -9 5 C-6.625 3.9375 -6.625 3.9375 -4 3 C-3.34 3.33 -2.68 3.66 -2 4 C-1.34 2.68 -0.68 1.36 0 0 Z " fill="#1D4C93" transform="translate(79,84)"/>
<path d="M0 0 C0.928125 0.2784375 0.928125 0.2784375 1.875 0.5625 C4.04160178 1.23686176 4.04160178 1.23686176 6 0 C5.67 1.98 5.34 3.96 5 6 C5.969375 5.979375 6.93875 5.95875 7.9375 5.9375 C11 6 11 6 12 7 C12.04063832 8.66617115 12.042721 10.33388095 12 12 C11.01 12.495 11.01 12.495 10 13 C10.33 11.35 10.66 9.7 11 8 C9.906875 8.061875 8.81375 8.12375 7.6875 8.1875 C4 8 4 8 2.125 6.8125 C0.73770965 4.5774211 0.35012787 2.59094622 0 0 Z " fill="#66A1A1" transform="translate(61,55)"/>
<path d="M0 0 C-0.33 1.98 -0.66 3.96 -1 6 C-0.34 6 0.32 6 1 6 C1 6.66 1 7.32 1 8 C-0.98 8 -2.96 8 -5 8 C-5.66 5.69 -6.32 3.38 -7 1 C-4.50935112 0.31292445 -2.62113708 0 0 0 Z " fill="#16347A" transform="translate(61,31)"/>
<path d="M0 0 C1.67542976 0.28604898 3.34385343 0.61781233 5 1 C5.33 2.32 5.66 3.64 6 5 C2.71303767 5.79953138 1.28976808 6.09658936 -2 5 C-1.125 1.125 -1.125 1.125 0 0 Z " fill="#375677" transform="translate(62,51)"/>
<path d="M0 0 C0.33 0.66 0.66 1.32 1 2 C1.66 2 2.32 2 3 2 C2.67 3.98 2.34 5.96 2 8 C-0.475 7.01 -0.475 7.01 -3 6 C-1.125 1.125 -1.125 1.125 0 0 Z " fill="#13296D" transform="translate(38,44)"/>
<path d="M0 0 C0.33 0.66 0.66 1.32 1 2 C1.99 2.33 2.98 2.66 4 3 C3.67 3.66 3.34 4.32 3 5 C2.67 4.67 2.34 4.34 2 4 C1.67 4.66 1.34 5.32 1 6 C0.34 6 -0.32 6 -1 6 C-0.67 6.99 -0.34 7.98 0 9 C-0.99 8.67 -1.98 8.34 -3 8 C-2.45276317 4.62537285 -1.9451 2.91765 0 0 Z " fill="#21559C" transform="translate(44,80)"/>
<path d="M0 0 C1.54571278 2.31856917 2.79618552 4.50638429 4 7 C3.34 7 2.68 7 2 7 C1.67 7.66 1.34 8.32 1 9 C-0.32 8.34 -1.64 7.68 -3 7 C-3 6.34 -3 5.68 -3 5 C-2.34 5 -1.68 5 -1 5 C-0.67 3.35 -0.34 1.7 0 0 Z " fill="#2665AD" transform="translate(83,80)"/>
<path d="M0 0 C1.32 0.66 2.64 1.32 4 2 C4 2.66 4 3.32 4 4 C4.66 4 5.32 4 6 4 C5.67 4.99 5.34 5.98 5 7 C4.01 6.01 3.02 5.02 2 4 C-0.475 5.485 -0.475 5.485 -3 7 C-1.125 2.25 -1.125 2.25 0 0 Z " fill="#1C478D" transform="translate(81,36)"/>
<path d="M0 0 C0 0.66 0 1.32 0 2 C-0.99 2 -1.98 2 -3 2 C-3 3.65 -3 5.3 -3 7 C-3.103125 6.360625 -3.20625 5.72125 -3.3125 5.0625 C-3.6528125 4.0415625 -3.6528125 4.0415625 -4 3 C-4.99 2.67 -5.98 2.34 -7 2 C-7.33 1.34 -7.66 0.68 -8 0 C-4.94736336 -0.98120464 -3.05263664 -0.98120464 0 0 Z " fill="#378CCE" transform="translate(61,29)"/>
<path d="M0 0 C0.99 0 1.98 0 3 0 C3.33 1.65 3.66 3.3 4 5 C2.68 5.33 1.36 5.66 0 6 C-0.38218767 4.34385343 -0.71395102 2.67542976 -1 1 C-0.67 0.67 -0.34 0.34 0 0 Z " fill="#2A73BB" transform="translate(72,89)"/>
<path d="M0 0 C0.66 0.66 1.32 1.32 2 2 C1.34 2 0.68 2 0 2 C0 2.66 0 3.32 0 4 C0.99 4.33 1.98 4.66 3 5 C2.67 5.99 2.34 6.98 2 8 C1.34 8 0.68 8 0 8 C0 7.34 0 6.68 0 6 C-0.66 6 -1.32 6 -2 6 C-2.33 5.01 -2.66 4.02 -3 3 C-2.34 3 -1.68 3 -1 3 C-0.67 2.01 -0.34 1.02 0 0 Z " fill="#235BA2" transform="translate(41,40)"/>
<path d="M0 0 C0.33 0.99 0.66 1.98 1 3 C3.64 3.33 6.28 3.66 9 4 C9 4.33 9 4.66 9 5 C5.7 5 2.4 5 -1 5 C-0.67 3.35 -0.34 1.7 0 0 Z " fill="#2A74BE" transform="translate(58,37)"/>
</svg>
