<?xml version="1.0" encoding="UTF-8"?>
<svg version="1.1" xmlns="http://www.w3.org/2000/svg" width="512" height="512">
<path d="M0 0 C168.96 0 337.92 0 512 0 C512 168.96 512 337.92 512 512 C343.04 512 174.08 512 0 512 C0 343.04 0 174.08 0 0 Z " fill="#8AD7BB" transform="translate(0,0)"/>
<path d="M0 0 C0.82564453 0.23605957 1.65128906 0.47211914 2.50195312 0.71533203 C39.05653851 11.59333701 70.80968149 36.67649308 89.21630859 70.21630859 C107.01312113 104.211764 112.37640523 143.97559136 101 181 C89.26306893 218.27268651 64.41169436 250.13536512 29.48828125 268.41796875 C18.70437276 273.83291042 7.65749344 277.91532698 -4 281 C-5.24652344 281.3403125 -6.49304688 281.680625 -7.77734375 282.03125 C-29.15189274 286.79585535 -55.03027912 286.00057954 -76 280 C-76.82564453 279.76394043 -77.65128906 279.52788086 -78.50195312 279.28466797 C-115.05653851 268.40666299 -146.80968149 243.32350692 -165.21630859 209.78369141 C-183.59692218 174.67305976 -187.90414599 134.95514314 -176.53125 96.88671875 C-164.92644182 60.62213315 -139.34042643 29.30382008 -105.48828125 11.58203125 C-94.70437276 6.16708958 -83.65749344 2.08467302 -72 -1 C-70.75347656 -1.3403125 -69.50695312 -1.680625 -68.22265625 -2.03125 C-46.84810726 -6.79585535 -20.96972088 -6.00057954 0 0 Z " fill="#3083CB" transform="translate(294,116)"/>
<path d="M0 0 C18.49456907 14.40659268 32.22189876 34.56071039 35.4375 58.12109375 C37.75489475 85.21972993 32.03671012 109.51878263 14.5 130.7421875 C-0.04411292 147.51749956 -19.63189665 157.82972275 -41.5625 161.12109375 C-66.99496785 162.89425142 -89.37670166 158.6848176 -109.625 142.55859375 C-111.29080696 141.10195771 -112.9383508 139.62403778 -114.5625 138.12109375 C-115.28824219 137.46367187 -116.01398438 136.80625 -116.76171875 136.12890625 C-132.00533045 121.66925172 -142.23877971 99.55910367 -142.8359375 78.515625 C-143.39281717 53.24793253 -138.0831206 31.16377598 -120.5625 12.12109375 C-119.49902344 10.95513672 -119.49902344 10.95513672 -118.4140625 9.765625 C-87.41045952 -22.7065697 -36.06903413 -26.44695948 0 0 Z " fill="#07054A" transform="translate(309.5625,183.87890625)"/>
<path d="M0 0 C3.5520858 2.31657769 5.60510254 4.26986875 7.875 7.875 C8.84728651 12.51661127 8.36075881 16.53708435 6.1875 20.75 C3.8984869 23.84326095 2.37283522 25.3503026 -1.125 26.875 C-2.115 26.875 -3.105 26.875 -4.125 26.875 C-4.125 28.525 -4.125 30.175 -4.125 31.875 C-2.475 31.875 -0.825 31.875 0.875 31.875 C0.27176766 35.25310112 -1.02692055 37.19755812 -3.125 39.875 C-2.30298096 39.87910889 -1.48096191 39.88321777 -0.6340332 39.88745117 C3.09887042 39.92039243 6.83014334 39.99104104 10.5625 40.0625 C11.85607422 40.06830078 13.14964844 40.07410156 14.48242188 40.08007812 C15.72958984 40.10908203 16.97675781 40.13808594 18.26171875 40.16796875 C19.40858154 40.1836792 20.55544434 40.19938965 21.73706055 40.21557617 C25.80377602 41.07017809 27.31509395 42.66394651 29.875 45.875 C30.50390625 49.25 30.50390625 49.25 30.4375 52.875 C30.43878906 54.07125 30.44007813 55.2675 30.44140625 56.5 C29.79208855 60.3690379 28.54885008 62.06825479 25.875 64.875 C28.38988743 68.00802475 30.40081413 68.31477851 34.3125 68.75 C37.9979076 69.35448484 39.58326381 69.64432487 42.5625 72 C44.61242763 76.49031766 44.68898976 80.49564532 43.0625 85.25 C41.875 86.875 41.875 86.875 38.875 88.875 C37.885 88.875 36.895 88.875 35.875 88.875 C35.545 90.525 35.215 92.175 34.875 93.875 C33.39 93.38 33.39 93.38 31.875 92.875 C31.545 91.885 31.215 90.895 30.875 89.875 C29.21220673 88.8685725 27.54516516 87.86914593 25.875 86.875 C23.19649014 84.28885255 22.89417155 83.09355566 22.5625 79.3125 C22.875 75.875 22.875 75.875 24.875 72.875 C24.65232196 70.49976759 24.11072531 69.19037987 22.68432617 67.28198242 C20.15286994 65.31345155 18.29600063 65.44406093 15.11328125 65.36328125 C13.99501953 65.32783203 12.87675781 65.29238281 11.72460938 65.25585938 C10.55736328 65.23330078 9.39011719 65.21074219 8.1875 65.1875 C7.00865234 65.15333984 5.82980469 65.11917969 4.61523438 65.08398438 C1.70191775 65.00142075 -1.21109466 64.93229678 -4.125 64.875 C-3.80395037 66.83741265 -3.80395037 66.83741265 -3.125 68.875 C-2.34125 69.32875 -1.5575 69.7825 -0.75 70.25 C2.6483214 72.35372277 3.55402178 74.13222838 4.875 77.875 C4.875 82.03054965 4.16441292 83.52465804 1.5 86.75 C-1.125 88.875 -1.125 88.875 -4.125 88.875 C-4.455 90.525 -4.785 92.175 -5.125 93.875 C-6.115 93.545 -7.105 93.215 -8.125 92.875 C-8.455 91.885 -8.785 90.895 -9.125 89.875 C-10.094375 89.25625 -11.06375 88.6375 -12.0625 88 C-15.37596848 85.70085861 -16.29289273 84.75816726 -17.125 80.875 C-17.03957187 76.77444983 -16.42086818 75.22537021 -13.75 72.0625 C-11.125 69.875 -11.125 69.875 -8.125 68.875 C-8.125 67.555 -8.125 66.235 -8.125 64.875 C-12.2093728 64.92683668 -16.29162471 65.0219071 -20.375 65.125 C-21.53386719 65.13917969 -22.69273437 65.15335937 -23.88671875 65.16796875 C-25.55927734 65.21630859 -25.55927734 65.21630859 -27.265625 65.265625 C-28.80524902 65.2970459 -28.80524902 65.2970459 -30.37597656 65.32910156 C-33.78134508 66.00533638 -35.02227611 67.15956186 -37.125 69.875 C-36.91342197 72.27288436 -36.19707819 73.73084361 -35.125 75.875 C-34.62916411 80.1722444 -34.72883693 82.89521579 -37.375 86.3125 C-40.125 88.875 -40.125 88.875 -44.125 88.875 C-44.125 90.525 -44.125 92.175 -44.125 93.875 C-46.0625 93.5625 -46.0625 93.5625 -48.125 92.875 C-48.455 91.885 -48.785 90.895 -49.125 89.875 C-49.929375 89.400625 -50.73375 88.92625 -51.5625 88.4375 C-54.42869897 86.6898177 -55.18026848 86.05273329 -56.125 82.875 C-56.78798343 75.91367403 -56.78798343 75.91367403 -54.25 71.9375 C-50.74609384 68.53664991 -48.00483019 68.64507174 -43.31640625 68.3515625 C-40.72574516 67.78817453 -39.79520423 66.88354143 -38.125 64.875 C-38.77339844 64.194375 -39.42179687 63.51375 -40.08984375 62.8125 C-42.56848747 59.23487989 -42.69215053 57.19069125 -42.6875 52.875 C-42.70941406 51.67875 -42.73132813 50.4825 -42.75390625 49.25 C-41.94446357 44.90615852 -40.52601218 43.63608337 -37.125 40.875 C-33.98706055 40.21557617 -33.98706055 40.21557617 -30.51171875 40.16796875 C-28.6409668 40.12446289 -28.6409668 40.12446289 -26.73242188 40.08007812 C-25.43884766 40.07427734 -24.14527344 40.06847656 -22.8125 40.0625 C-21.49958984 40.03736328 -20.18667969 40.01222656 -18.83398438 39.98632812 C-15.59735511 39.92748032 -12.36207782 39.89118063 -9.125 39.875 C-9.785 39.111875 -10.445 38.34875 -11.125 37.5625 C-13.125 34.875 -13.125 34.875 -13.125 31.875 C-11.475 31.875 -9.825 31.875 -8.125 31.875 C-8.125 30.225 -8.125 28.575 -8.125 26.875 C-8.846875 26.813125 -9.56875 26.75125 -10.3125 26.6875 C-14.54881862 25.46367462 -17.03304466 22.74747272 -19.234375 18.97265625 C-20.81790537 15.24302551 -20.99021097 11.82656056 -20.125 7.875 C-15.2129431 0.04723018 -9.19706522 -3.31094348 0 0 Z " fill="#80C8B4" transform="translate(262.125,205.125)"/>
<path d="M0 0 C1.19794189 -0.00315216 2.39588379 -0.00630432 3.63012695 -0.009552 C4.93425537 -0.00752777 6.23838379 -0.00550354 7.58203125 -0.00341797 C8.9234214 -0.00409107 10.26481144 -0.00506115 11.60620117 -0.00631714 C14.42074746 -0.00779382 17.23526207 -0.00564051 20.04980469 -0.00097656 C23.66493756 0.00472073 27.2799962 0.00144156 30.89512634 -0.00454903 C33.66598067 -0.00815544 36.43681727 -0.00701569 39.20767212 -0.00442123 C41.19142708 -0.0034258 43.17518272 -0.00647288 45.15893555 -0.009552 C46.35687744 -0.00639984 47.55481934 -0.00324768 48.7890625 0 C49.84971924 0.00079559 50.91037598 0.00159119 52.00317383 0.00241089 C54.39453125 0.12939453 54.39453125 0.12939453 55.39453125 1.12939453 C55.49326941 3.12739025 55.52424924 5.12896611 55.51953125 7.12939453 C55.52339844 8.76908203 55.52339844 8.76908203 55.52734375 10.44189453 C55.39453125 13.12939453 55.39453125 13.12939453 54.39453125 14.12939453 C52.52817337 14.22850014 50.65804931 14.25738714 48.7890625 14.25878906 C47.59112061 14.26194122 46.39317871 14.26509338 45.15893555 14.26834106 C43.85480713 14.26631683 42.55067871 14.2642926 41.20703125 14.26220703 C39.8656411 14.26288013 38.52425106 14.26385021 37.18286133 14.2651062 C34.36831504 14.26658289 31.55380043 14.26442957 28.73925781 14.25976562 C25.12412494 14.25406834 21.5090663 14.2573475 17.89393616 14.26333809 C15.12308183 14.2669445 12.35224523 14.26580475 9.58139038 14.2632103 C7.59763542 14.26221486 5.61387978 14.26526194 3.63012695 14.26834106 C2.43218506 14.2651889 1.23424316 14.26203674 0 14.25878906 C-1.06065674 14.25799347 -2.12131348 14.25719788 -3.21411133 14.25637817 C-5.60546875 14.12939453 -5.60546875 14.12939453 -6.60546875 13.12939453 C-6.70420691 11.13139881 -6.73518674 9.12982295 -6.73046875 7.12939453 C-6.73304688 6.03626953 -6.735625 4.94314453 -6.73828125 3.81689453 C-6.50085349 -0.98752601 -4.27938465 0.00320994 0 0 Z " fill="#07054A" transform="translate(231.60546875,250.87060546875)"/>
<path d="M0 0 C3.5 0.875 3.5 0.875 5.4375 2 C8.32032506 7.08733834 6.01988399 13.8503375 4.625 19.1875 C4.45097656 19.90228516 4.27695312 20.61707031 4.09765625 21.35351562 C2.75829646 26.61670354 2.75829646 26.61670354 0.5 28.875 C-5.7468464 29.44289513 -5.7468464 29.44289513 -8.19921875 27.59375 C-10.59492695 24.42824967 -9.89018348 20.62596384 -9.5 16.875 C-7.48289289 4.23720649 -7.48289289 4.23720649 -5.11328125 0.953125 C-3.5 -0.125 -3.5 -0.125 0 0 Z " fill="#0A0D52" transform="translate(279.5,126.125)"/>
<path d="M0 0 C2.59560091 2.26229921 4.50921798 4.89198644 6.5 7.6875 C7.32371094 8.75000977 7.32371094 8.75000977 8.1640625 9.83398438 C12.01280728 15.07040473 12.01280728 15.07040473 11.953125 19.40234375 C10.80976482 22.51846883 9.9603286 23.5198357 7 25 C4.57421875 25.2890625 4.57421875 25.2890625 2 25 C0.19140625 23.53125 0.19140625 23.53125 -1.4375 21.5 C-2.0253125 20.76910156 -2.613125 20.03820312 -3.21875 19.28515625 C-4.10046875 18.15400391 -4.10046875 18.15400391 -5 17 C-5.5878125 16.31808594 -6.175625 15.63617188 -6.78125 14.93359375 C-9.57315445 11.56882212 -10.9040936 9.58502905 -11.625 5.1875 C-11 2 -11 2 -9.4375 0 C-5.79891082 -1.49275454 -3.78760041 -1.05233019 0 0 Z " fill="#090B50" transform="translate(184,152)"/>
<path d="M0 0 C4.12759037 1.60074456 4.12759037 1.60074456 5.62890625 4.01953125 C6.14453125 6.640625 6.14453125 6.640625 5.62890625 10.01953125 C3.57673226 12.97806303 1.08696029 15.39854644 -1.49609375 17.89453125 C-2.16125 18.58289063 -2.82640625 19.27125 -3.51171875 19.98046875 C-8.44798589 24.85866216 -8.44798589 24.85866216 -12.7109375 25.6015625 C-15.37109375 25.01953125 -15.37109375 25.01953125 -17.80859375 22.83203125 C-19.37109375 20.01953125 -19.37109375 20.01953125 -19.16674805 17.58154297 C-17.77679799 13.10589524 -14.43935464 10.39103405 -11.18359375 7.14453125 C-10.52294922 6.44328125 -9.86230469 5.74203125 -9.18164062 5.01953125 C-4.2208438 0.02445448 -4.2208438 0.02445448 0 0 Z " fill="#090C51" transform="translate(345.37109375,159.98046875)"/>
<path d="M0 0 C3.41242192 0.75073282 4.9075545 2.03527532 7.41796875 4.38671875 C10.04033833 6.38500037 12.93673692 7.07249825 16.06640625 7.99609375 C18.48758211 8.80927805 20.24228475 9.96849912 22.125 11.6875 C21.795 12.6775 21.465 13.6675 21.125 14.6875 C16.73610675 14.02251617 13.1438515 12.49992323 9.125 10.6875 C9.31688156 12.627009 9.31688156 12.627009 10.125 14.6875 C11.96483424 16.02981442 11.96483424 16.02981442 14.1875 16.9375 C14.92097656 17.27265625 15.65445313 17.6078125 16.41015625 17.953125 C17.25900391 18.31664062 17.25900391 18.31664062 18.125 18.6875 C17.795 20.0075 17.465 21.3275 17.125 22.6875 C13.37436435 22.1008247 10.565724 21.03809992 7.26171875 19.18359375 C6.37548828 18.69052734 5.48925781 18.19746094 4.57617188 17.68945312 C3.66416016 17.17318359 2.75214844 16.65691406 1.8125 16.125 C0.41547852 15.34479492 0.41547852 15.34479492 -1.00976562 14.54882812 C-3.30163795 13.26773026 -5.58981613 11.98047895 -7.875 10.6875 C-6.79673355 5.77658351 -5.26834045 1.25982054 0 0 Z " fill="#090A4F" transform="translate(146.875,188.3125)"/>
<path d="M0 0 C3 1 3 1 3.96484375 2.703125 C4.02097052 6.37007366 1.90885667 8.05008273 -0.4375 10.75 C-1.28183594 11.73484375 -2.12617188 12.7196875 -2.99609375 13.734375 C-3.65738281 14.48203125 -4.31867188 15.2296875 -5 16 C-4.48050781 15.59007812 -3.96101563 15.18015625 -3.42578125 14.7578125 C0.2423777 11.92363424 3.51449706 9.40171967 8 8 C8 12 8 12 6.41113281 13.72338867 C5.68249023 14.2826001 4.95384766 14.84181152 4.203125 15.41796875 C3.4090625 16.03220703 2.615 16.64644531 1.796875 17.27929688 C0.95640625 17.90900391 0.1159375 18.53871094 -0.75 19.1875 C-1.575 19.82880859 -2.4 20.47011719 -3.25 21.13085938 C-9.99000913 26.27826957 -9.99000913 26.27826957 -14 27 C-14.63061523 25.20214844 -14.63061523 25.20214844 -15 23 C-13.43264967 20.57426902 -11.89069827 18.45937639 -10.0625 16.25 C-9.58103516 15.64800781 -9.09957031 15.04601562 -8.60351562 14.42578125 C-7.41364626 12.94138977 -6.20826626 11.46945562 -5 10 C-6.82202463 11.21468309 -8.62999802 12.45131138 -10.41015625 13.7265625 C-11.72306641 14.66628906 -11.72306641 14.66628906 -13.0625 15.625 C-13.94035156 16.25664062 -14.81820313 16.88828125 -15.72265625 17.5390625 C-18 19 -18 19 -20 19 C-20.33 18.01 -20.66 17.02 -21 16 C-18.06382588 13.70663047 -15.12583438 11.41560087 -12.1875 9.125 C-11.35412109 8.47402344 -10.52074219 7.82304687 -9.66210938 7.15234375 C-8.85966797 6.52714844 -8.05722656 5.90195313 -7.23046875 5.2578125 C-6.49207764 4.6817627 -5.75368652 4.10571289 -4.99291992 3.51220703 C-3.37191944 2.28220863 -1.69308202 1.12872135 0 0 Z " fill="#090A4F" transform="translate(356,172)"/>
<path d="M0 0 C3.38031589 1.18767855 3.93216817 1.89825225 6 5 C6.57609682 10.10257186 6.57609682 10.10257186 6 13 C3.5625 15.9375 3.5625 15.9375 1 18 C0.67 18.33 0.34 18.66 0 19 C-3.85303968 19.43784542 -5.54122122 19.30585252 -8.8125 17.125 C-11.79857385 14.22424254 -11.95683819 13.43881175 -12.375 9.1875 C-12.31879192 5.75880687 -11.99773575 4.99670655 -9.9375 2 C-6.28060335 -0.48980198 -4.34579086 -0.55310065 0 0 Z " fill="#08084C" transform="translate(259,209)"/>
<path d="M0 0 C4.93285586 1.49625406 7.74334021 2.8812832 11 7 C11.77606042 10.4491574 11.15670505 11.7179309 9.4375 14.8125 C7 17 7 17 3.25 17.3125 C2.1775 17.209375 1.105 17.10625 0 17 C0.165 17.66 0.33 18.32 0.5 19 C1.12183299 22.73099794 1.06408926 26.21873378 1 30 C0.01 29.67 -0.98 29.34 -2 29 C-2 24.38 -2 19.76 -2 15 C-5.91191492 15.54074316 -5.91191492 15.54074316 -7.265625 17.62890625 C-7.59046875 18.26699219 -7.9153125 18.90507812 -8.25 19.5625 C-9.11625 21.2640625 -9.11625 21.2640625 -10 23 C-10.66 23 -11.32 23 -12 23 C-10.46688715 17.48431813 -7.81247556 12.97965148 -4.875 8.125 C-4.40707031 7.34125 -3.93914062 6.5575 -3.45703125 5.75 C-2.30981892 3.83017528 -1.1573993 1.91369439 0 0 Z " fill="#0A0D52" transform="translate(200,343)"/>
<path d="M0 0 C1.32 0.33 2.64 0.66 4 1 C3.30069323 6.19062909 0.88183094 10.38017112 -1.56054688 14.91601562 C-3.33150337 18.30759897 -4 20.07735855 -4 24 C-3.34 24 -2.68 24 -2 24 C-1.44570313 22.89140625 -0.89140625 21.7828125 -0.3203125 20.640625 C2.453125 15.09375 5.2265625 9.546875 8 4 C9.32 4.33 10.64 4.66 12 5 C11.41548517 10.13757769 8.98538647 14.21710383 6.5625 18.6875 C6.15451172 19.45900391 5.74652344 20.23050781 5.32617188 21.02539062 C2.27449483 26.72550517 2.27449483 26.72550517 0 29 C-3.57842586 29.4667512 -5.37243328 29.40228636 -8.4375 27.4375 C-10 25 -10 25 -9.84765625 21.8671875 C-8.85633022 17.34454801 -7.15505557 13.75271846 -5 9.6875 C-4.63132812 8.97271484 -4.26265625 8.25792969 -3.8828125 7.52148438 C-2.93002285 5.67675842 -1.96580568 3.83794487 -1 2 C-0.67 1.34 -0.34 0.68 0 0 Z " fill="#090C51" transform="translate(306,135)"/>
<path d="M0 0 C1.35439345 3.01181443 2.67952906 6.03567725 4 9.0625 C4.3815625 9.91005859 4.763125 10.75761719 5.15625 11.63085938 C7.33338061 16.66547391 8.64418545 20.50295082 8 26 C5.77728061 28.65016543 4.3541854 28.94940209 0.9375 29.4375 C-2 29 -2 29 -3.4921875 27.40234375 C-5.36322288 24.42128997 -6.69845365 21.36940693 -8.0625 18.125 C-8.56910156 16.93132812 -9.07570312 15.73765625 -9.59765625 14.5078125 C-10.85359242 11.36622285 -11.97040848 8.22178398 -13 5 C-11.68 4.34 -10.36 3.68 -9 3 C0 20.33606557 0 20.33606557 0 25 C0.99 24.67 1.98 24.34 3 24 C1.69840385 17.84700003 -0.42968809 12.38558845 -2.9765625 6.63671875 C-4 4 -4 4 -4 1 C-2 0 -2 0 0 0 Z " fill="#090D51" transform="translate(212,133)"/>
<path d="M0 0 C2.875 0.9375 2.875 0.9375 4.875 3.9375 C1.875 5.9375 1.875 5.9375 -2.125 5.9375 C-1.795 6.9275 -1.465 7.9175 -1.125 8.9375 C0.19564453 8.97617188 0.19564453 8.97617188 1.54296875 9.015625 C2.70441406 9.07234375 3.86585938 9.1290625 5.0625 9.1875 C6.78533203 9.25710937 6.78533203 9.25710937 8.54296875 9.328125 C12.41132747 10.03558568 14.11158544 11.18415253 16.875 13.9375 C18 16.875 18 16.875 17.875 19.9375 C15.8125 22.875 15.8125 22.875 12.875 24.9375 C9.6875 24.9375 9.6875 24.9375 6.875 23.9375 C6.215 22.9475 5.555 21.9575 4.875 20.9375 C6.6875 19.875 6.6875 19.875 8.875 18.9375 C9.865 19.2675 10.855 19.5975 11.875 19.9375 C12.205 18.6175 12.535 17.2975 12.875 15.9375 C11.92238281 15.91171875 10.96976563 15.8859375 9.98828125 15.859375 C8.10689453 15.77429688 8.10689453 15.77429688 6.1875 15.6875 C4.94613281 15.64109375 3.70476562 15.5946875 2.42578125 15.546875 C-1.60129099 14.85576029 -3.30053614 13.84565168 -6.125 10.9375 C-7.1875 7.4375 -7.1875 7.4375 -7.125 3.9375 C-5.0004095 0.5381552 -4.03034607 -0.08060692 0 0 Z " fill="#0A0E53" transform="translate(167.125,162.0625)"/>
<path d="M0 0 C2.7912125 1.98322993 3.82597224 3.12986121 4.5 6.5 C3.84865908 9.75670462 2.56818661 10.96055769 0 13 C-0.66 13 -1.32 13 -2 13 C-3.0326802 10.21176345 -3.04509293 9.1322726 -2.0625 6.25 C-1.5365625 5.13625 -1.5365625 5.13625 -1 4 C-4.12631034 5.52201951 -5.71544796 6.37847844 -7.1875 9.59375 C-7.455625 10.5528125 -7.72375 11.511875 -8 12.5 C-9.00037453 16.07826276 -9.43079782 17.58234451 -12.46484375 19.80859375 C-15.38173823 21.17939932 -16.83916674 21.72942306 -20 21 C-24.03784571 16.32459971 -24.03784571 16.32459971 -23.9375 12.8125 C-22.89179832 10.79081008 -21.71175449 9.48848217 -20 8 C-18.68 8.66 -17.36 9.32 -16 10 C-16.33 10.66 -16.66 11.32 -17 12 C-17.66 12 -18.32 12 -19 12 C-19 13.32 -19 14.64 -19 16 C-16.52842209 15.35012084 -16.52842209 15.35012084 -14 14 C-12.68619575 11.75895312 -12.68619575 11.75895312 -11.9375 9.125 C-9.61022472 2.70876697 -7.51669673 -1.25278279 0 0 Z " fill="#0A0D52" transform="translate(369,189)"/>
<path d="M0 0 C0.70125 0.00515625 1.4025 0.0103125 2.125 0.015625 C2.82625 0.01046875 3.5275 0.0053125 4.25 0 C6.125 0.265625 6.125 0.265625 8.125 2.265625 C8.25 5.390625 8.25 5.390625 8.125 8.265625 C6.805 8.265625 5.485 8.265625 4.125 8.265625 C4.125 6.945625 4.125 5.625625 4.125 4.265625 C2.805 4.265625 1.485 4.265625 0.125 4.265625 C1.05166195 8.80626857 2.04343211 11.44005326 5.25 14.828125 C7.46352074 17.25323228 8.08353194 18.0582847 8.75 21.390625 C7.94612164 25.08846548 7.0259361 26.81098676 4.125 29.265625 C0.13061826 29.19675635 -2.0064229 29.1342021 -4.875 26.265625 C-5 23.140625 -5 23.140625 -4.875 20.265625 C-3.555 20.265625 -2.235 20.265625 -0.875 20.265625 C-0.545 21.585625 -0.215 22.905625 0.125 24.265625 C0.785 24.265625 1.445 24.265625 2.125 24.265625 C2.63025948 21.56196967 2.63025948 21.56196967 2.125 18.265625 C0.78957872 16.57006747 0.78957872 16.57006747 -0.875 14.953125 C-3.55746945 12.11881765 -4.32476467 10.37148051 -4.375 6.453125 C-4.23345234 3.02649213 -3.90423353 0.55309975 0 0 Z " fill="#090C51" transform="translate(259.875,124.734375)"/>
<path d="M0 0 C0.91007813 0.00902344 1.82015625 0.01804687 2.7578125 0.02734375 C3.45648438 0.03894531 4.15515625 0.05054687 4.875 0.0625 C4.875 1.3825 4.875 2.7025 4.875 4.0625 C2.565 4.0625 0.255 4.0625 -2.125 4.0625 C-1.795 6.0425 -1.465 8.0225 -1.125 10.0625 C1.845 10.5575 1.845 10.5575 4.875 11.0625 C4.875 12.3825 4.875 13.7025 4.875 15.0625 C2.895 15.0625 0.915 15.0625 -1.125 15.0625 C-0.795 18.0325 -0.465 21.0025 -0.125 24.0625 C3.835 23.5675 3.835 23.5675 7.875 23.0625 C7.875 24.3825 7.875 25.7025 7.875 27.0625 C3.71555256 28.36742469 0.22463091 29.18269705 -4.125 29.0625 C-4.63503854 25.89736722 -5.13115957 22.73019716 -5.625 19.5625 C-5.76808594 18.675625 -5.91117188 17.78875 -6.05859375 16.875 C-6.88365611 11.53173901 -7.27657107 6.46853486 -7.125 1.0625 C-4.60024538 -0.19987731 -2.81299534 -0.03606404 0 0 Z " fill="#0A0E53" transform="translate(240.125,125.9375)"/>
<path d="M0 0 C1.32 0.33 2.64 0.66 4 1 C2.87548273 3.9719385 1.77706209 6.33440687 0 9 C2.33214148 10.20628008 4.49642139 11.1654738 7 12 C7.66 10.68 8.32 9.36 9 8 C9.99 8.33 10.98 8.66 12 9 C10.125 13.75 10.125 13.75 9 16 C11.33214148 17.20628008 13.49642139 18.1654738 16 19 C17.65 17.35 19.3 15.7 21 14 C21.66 15.32 22.32 16.64 23 18 C21.02 20.64 19.04 23.28 17 26 C11.47768194 23.01025619 6.54606284 19.56176444 1.5625 15.75 C0.83095703 15.19570312 0.09941406 14.64140625 -0.65429688 14.0703125 C-2.43902108 12.71718826 -4.22081004 11.36038765 -6 10 C-4.28564986 6.44774296 -2.22257977 3.25978366 0 0 Z " fill="#090C51" transform="translate(154,173)"/>
<path d="M0 0 C0 1.32 0 2.64 0 4 C-1.32 4.33 -2.64 4.66 -4 5 C-3.73445312 5.85722656 -3.46890625 6.71445313 -3.1953125 7.59765625 C-2.12471018 11.06343821 -1.06163221 14.53146118 0 18 C0.23460937 18.7528125 0.46921875 19.505625 0.7109375 20.28125 C1.65625744 23.40491589 2 25.67156139 2 29 C0.35 29 -1.3 29 -3 29 C-3.84145956 25.91882573 -4.67173062 22.83474379 -5.5 19.75 C-5.73847656 18.87730469 -5.97695312 18.00460938 -6.22265625 17.10546875 C-6.44824219 16.26113281 -6.67382812 15.41679687 -6.90625 14.546875 C-7.11572266 13.77182617 -7.32519531 12.99677734 -7.54101562 12.19824219 C-8 10 -8 10 -8 6 C-9.65 6.33 -11.3 6.66 -13 7 C-13.33 5.68 -13.66 4.36 -14 3 C-12.4188708 2.49307308 -10.83498617 1.99473557 -9.25 1.5 C-7.92742187 1.08234375 -7.92742187 1.08234375 -6.578125 0.65625 C-4 0 -4 0 0 0 Z " fill="#0A0F54" transform="translate(229,128)"/>
<path d="M0 0 C1.65 0 3.3 0 5 0 C4.15426228 5.04526298 2.43264014 9.75801415 0.72851562 14.56054688 C-0.43757429 17.94322752 -1 20.37209016 -1 24 C1.475 24.99 1.475 24.99 4 26 C4 27.32 4 28.64 4 30 C2.56206608 29.68950274 1.1246682 29.3765224 -0.3125 29.0625 C-1.51326172 28.80146484 -1.51326172 28.80146484 -2.73828125 28.53515625 C-5 28 -5 28 -8 27 C-6.68764148 20.63569826 -4.98780585 14.57878972 -2.875 8.4375 C-2.59785156 7.61958984 -2.32070313 6.80167969 -2.03515625 5.95898438 C-1.36094863 3.97123432 -0.68107796 1.98540651 0 0 Z " fill="#0A1055" transform="translate(291,130)"/>
<path d="M0 0 C4.30764815 1.56641751 8.06171464 3.68336156 12 6 C11.34 7.32 10.68 8.64 10 10 C8.35 9.34 6.7 8.68 5 8 C4.77570313 8.66386719 4.55140625 9.32773438 4.3203125 10.01171875 C2.59130153 13.92501281 0.28296905 17.28823157 -2.125 20.8125 C-2.59292969 21.50537109 -3.06085938 22.19824219 -3.54296875 22.91210938 C-4.69112437 24.61091105 -5.84499367 26.30584864 -7 28 C-8.32 27.01 -9.64 26.02 -11 25 C-10.67201416 24.50072998 -10.34402832 24.00145996 -10.00610352 23.48706055 C-8.52142389 21.22279909 -7.04191561 18.95520398 -5.5625 16.6875 C-5.04623047 15.90181641 -4.52996094 15.11613281 -3.99804688 14.30664062 C-3.50498047 13.54931641 -3.01191406 12.79199219 -2.50390625 12.01171875 C-1.82050171 10.96697388 -1.82050171 10.96697388 -1.12329102 9.90112305 C0.151725 7.89538509 0.151725 7.89538509 1 5 C0.12516085 2.83284443 0.12516085 2.83284443 -1 1 C-0.67 0.67 -0.34 0.34 0 0 Z " fill="#090B50" transform="translate(322,143)"/>
<path d="M0 0 C2.4375 1.125 2.4375 1.125 4 3 C4.25 6.1875 4.25 6.1875 4 9 C3.34 9 2.68 9 2 9 C1.34 7.02 0.68 5.04 0 3 C-1.98 3 -3.96 3 -6 3 C-6.20496094 3.62648438 -6.40992188 4.25296875 -6.62109375 4.8984375 C-6.89050781 5.71570313 -7.15992188 6.53296875 -7.4375 7.375 C-7.70433594 8.18710937 -7.97117188 8.99921875 -8.24609375 9.8359375 C-9 12 -9 12 -10 14 C-10.22467831 15.53668865 -10.40796805 17.07968054 -10.5625 18.625 C-10.64628906 19.44226563 -10.73007813 20.25953125 -10.81640625 21.1015625 C-10.87699219 21.72804688 -10.93757812 22.35453125 -11 23 C-8.36 23 -5.72 23 -3 23 C-2.67 20.69 -2.34 18.38 -2 16 C-2.66 15.67 -3.32 15.34 -4 15 C-4 14.34 -4 13.68 -4 13 C-1.03 13.495 -1.03 13.495 2 14 C1.91214662 15.41777182 1.80395353 16.83429039 1.6875 18.25 C1.62949219 19.03890625 1.57148438 19.8278125 1.51171875 20.640625 C0.9150147 23.39184062 -0.18663789 24.88035957 -2 27 C-3.62752231 26.74476126 -5.25203196 26.47025506 -6.875 26.1875 C-7.77992188 26.03667969 -8.68484375 25.88585937 -9.6171875 25.73046875 C-12 25 -12 25 -14 22 C-14.28470136 15.49254028 -12.39833402 7.99583504 -10 2 C-6.28986601 -0.47342266 -4.38939738 -0.38503486 0 0 Z " fill="#0C155A" transform="translate(231,355)"/>
<path d="M0 0 C0.66 0 1.32 0 2 0 C2 3.96 2 7.92 2 12 C4.97 12 7.94 12 11 12 C11.33 8.37 11.66 4.74 12 1 C12.66 1 13.32 1 14 1 C13.67 9.58 13.34 18.16 13 27 C12.01 27 11.02 27 10 27 C10.33 23.04 10.66 19.08 11 15 C7.7 14.67 4.4 14.34 1 14 C0.67 17.96 0.34 21.92 0 26 C-0.66 26 -1.32 26 -2 26 C-2.23737365 17.08530089 -1.79362465 8.74392018 0 0 Z " fill="#0E1B60" transform="translate(240,358)"/>
<path d="M0 0 C4.2015764 0.77171811 5.32244305 2.28779779 8.0625 5.5625 C8.98675781 6.614375 8.98675781 6.614375 9.9296875 7.6875 C12.72924643 11.01548974 14.82510713 13.53379755 15.8125 17.8125 C14.76697584 21.6460886 13.24122986 23.21300402 10.0625 25.5625 C7.17578125 26.0234375 7.17578125 26.0234375 4.0625 25.5625 C1.61328125 23.296875 1.61328125 23.296875 -0.625 20.3125 C-1.37136719 19.33796875 -2.11773437 18.3634375 -2.88671875 17.359375 C-3.56347656 16.43640625 -4.24023438 15.5134375 -4.9375 14.5625 C-5.52273438 13.84578125 -6.10796875 13.1290625 -6.7109375 12.390625 C-7.9375 10.5625 -7.9375 10.5625 -7.875 7.5625 C-6.44220656 2.97756098 -4.79655449 0.91848916 0 0 Z M-3.6875 3.75 C-5.42119428 6.26385671 -5.30842611 7.53113838 -4.9375 10.5625 C-3.16885865 13.73913627 -3.16885865 13.73913627 -0.75 16.8125 C0.02730469 17.86953125 0.80460937 18.9265625 1.60546875 20.015625 C4.21776364 22.723441 5.3448023 23.48194988 9.0625 23.5625 C11.36754044 22.23096734 11.36754044 22.23096734 13.0625 20.5625 C12.59461063 15.63886418 11.30868633 13.06614103 8.125 9.3125 C7.41472656 8.46171875 6.70445312 7.6109375 5.97265625 6.734375 C4.71393771 5.303194 3.41021129 3.91021129 2.0625 2.5625 C-1.73832707 2.18816572 -1.73832707 2.18816572 -3.6875 3.75 Z " fill="#0A0E53" transform="translate(322.9375,335.4375)"/>
<path d="M0 0 C0.99 0 1.98 0 3 0 C4.6735337 2.95449913 6.33763985 5.9142018 8 8.875 C8.47695312 9.71675781 8.95390625 10.55851563 9.4453125 11.42578125 C9.89648438 12.23144531 10.34765625 13.03710938 10.8125 13.8671875 C11.44091797 14.98262939 11.44091797 14.98262939 12.08203125 16.12060547 C13 18 13 18 13 20 C13.94875 19.505 14.8975 19.01 15.875 18.5 C19 17 19 17 21 17 C21.33 18.32 21.66 19.64 22 21 C17.05 23.475 17.05 23.475 12 26 C9.65739212 22.23903896 7.33025721 18.46938516 5.02636719 14.68457031 C4.12883233 13.21145173 3.22508821 11.74211994 2.3203125 10.2734375 C1.86398438 9.50257813 1.40765625 8.73171875 0.9375 7.9375 C0.53402344 7.26589844 0.13054687 6.59429687 -0.28515625 5.90234375 C-1.16893407 3.55043228 -0.82523642 2.3303846 0 0 Z " fill="#090C50" transform="translate(187,144)"/>
<path d="M0 0 C-1.50223584 4.20626034 -4.28550034 5.73900021 -8 8 C-7.525625 8.763125 -7.05125 9.52625 -6.5625 10.3125 C-5 13 -5 13 -4 16 C-2.88625 15.38125 -1.7725 14.7625 -0.625 14.125 C0.31472656 13.60292969 0.31472656 13.60292969 1.2734375 13.0703125 C3.1612614 11.99102726 3.1612614 11.99102726 5 10 C5.99 10 6.98 10 8 10 C8 10.66 8 11.32 8 12 C6.50292969 13.38867188 6.50292969 13.38867188 4.421875 14.96875 C3.67292969 15.53980469 2.92398438 16.11085938 2.15234375 16.69921875 C1.35957031 17.29347656 0.56679687 17.88773437 -0.25 18.5 C-1.02730469 19.09425781 -1.80460937 19.68851562 -2.60546875 20.30078125 C-5.97831346 22.85491836 -9.15429655 25.20318393 -13 27 C-13 26.01 -13 25.02 -13 24 C-11.46875 22.61328125 -11.46875 22.61328125 -9.5 21.3125 C-8.8503125 20.87550781 -8.200625 20.43851562 -7.53125 19.98828125 C-6.77328125 19.49908203 -6.77328125 19.49908203 -6 19 C-7.1678266 15.18586998 -7.1678266 15.18586998 -10.125 12.6875 C-10.74375 12.460625 -11.3625 12.23375 -12 12 C-12.48210937 12.3609375 -12.96421875 12.721875 -13.4609375 13.09375 C-14.09257812 13.5578125 -14.72421875 14.021875 -15.375 14.5 C-16.00148437 14.9640625 -16.62796875 15.428125 -17.2734375 15.90625 C-19 17 -19 17 -21 17 C-19.43121427 12.43429255 -15.7632386 10.17394082 -12.0625 7.375 C-11.42892578 6.88515625 -10.79535156 6.3953125 -10.14257812 5.890625 C-2.48959401 0 -2.48959401 0 0 0 Z " fill="#0C1257" transform="translate(171,313)"/>
<path d="M0 0 C4 1 4 1 6.0703125 4.38671875 C6.76965363 5.81332147 7.45402914 7.24733631 8.125 8.6875 C8.47175781 9.39583984 8.81851562 10.10417969 9.17578125 10.83398438 C11.09385094 14.81342782 12.70640343 18.76580505 14 23 C9.57320993 21.52440331 9.08567304 19.09942632 7 15 C7 14.34 7 13.68 7 13 C5.88625 13.66 4.7725 14.32 3.625 15 C0.25 17 0.25 17 -2 17 C-1.6390625 17.69867188 -1.278125 18.39734375 -0.90625 19.1171875 C-0.4421875 20.02726562 0.021875 20.93734375 0.5 21.875 C0.9640625 22.77992188 1.428125 23.68484375 1.90625 24.6171875 C3 27 3 27 3 29 C-0.73876894 27.75374369 -0.94769826 26.78934185 -2.734375 23.37890625 C-3.22550781 22.44369141 -3.71664063 21.50847656 -4.22265625 20.54492188 C-4.72667969 19.56072266 -5.23070312 18.57652344 -5.75 17.5625 C-6.26949219 16.58216797 -6.78898437 15.60183594 -7.32421875 14.59179688 C-10.14326375 9.15934014 -10.14326375 9.15934014 -11 7 C-10.67 6.34 -10.34 5.68 -10 5 C-9.34 5 -8.68 5 -8 5 C-6.68 7.97 -5.36 10.94 -4 14 C-1.03 13.34 1.94 12.68 5 12 C3.35 8.04 1.7 4.08 0 0 Z " fill="#0B1055" transform="translate(308,345)"/>
<path d="M0 0 C1.27310312 0.93441535 2.543388 1.87267111 3.8125 2.8125 C4.52019531 3.33457031 5.22789062 3.85664063 5.95703125 4.39453125 C7.79961207 5.84252498 9.46364869 7.23101505 11 9 C11 9.66 11 10.32 11 11 C6.40693504 9.5140084 3.56430755 7.14985318 0 4 C-1.65 5.98 -3.3 7.96 -5 10 C-3.7934375 11.1446875 -3.7934375 11.1446875 -2.5625 12.3125 C0 15 0 15 1 18 C-2.87132028 17.42647107 -5.08172796 15.51295648 -8 13 C-9.65 14.65 -11.3 16.3 -13 18 C-11.4169423 22.2742558 -8.49431596 24.26531794 -5 27 C-5.66 27.66 -6.32 28.32 -7 29 C-8.29854721 27.92492371 -9.58858361 26.83956264 -10.875 25.75 C-11.59429687 25.14671875 -12.31359375 24.5434375 -13.0546875 23.921875 C-14.98946272 22.01041033 -15.86294281 20.43339088 -17 18 C-14.54220967 15.37449113 -12.08367499 12.74968042 -9.625 10.125 C-8.92632812 9.37863281 -8.22765625 8.63226563 -7.5078125 7.86328125 C-6.8375 7.14785156 -6.1671875 6.43242187 -5.4765625 5.6953125 C-4.85861816 5.03547363 -4.24067383 4.37563477 -3.60400391 3.69580078 C-2.42157912 2.44570602 -1.21673031 1.21673031 0 0 Z " fill="#0C155A" transform="translate(181,327)"/>
<path d="M0 0 C0.66 0.33 1.32 0.66 2 1 C0.68938409 5.23429756 -0.94356259 9.07407404 -3 13 C-0.03 13.99 2.94 14.98 6 16 C6.309375 15.05125 6.61875 14.1025 6.9375 13.125 C8 10 8 10 9 8 C9.99 8 10.98 8 12 8 C10.66666667 11.33333333 9.33333333 14.66666667 8 18 C11.80427492 20.2013866 11.80427492 20.2013866 16 21 C17.65 18.03 19.3 15.06 21 12 C21.66 12 22.32 12 23 12 C21.58707905 16.8274799 19.57025846 20.7162359 17 25 C11.93368821 24.44260617 8.12591069 22.02168625 3.8125 19.5 C2.38161965 18.67689341 0.95063494 17.85396821 -0.48046875 17.03125 C-1.10848389 16.66580078 -1.73649902 16.30035156 -2.38354492 15.92382812 C-3.56903562 15.24630255 -4.77871245 14.61064378 -6 14 C-5.41892368 10.2397015 -4.34800504 7.46964968 -2.4375 4.1875 C-1.98246094 3.39730469 -1.52742188 2.60710937 -1.05859375 1.79296875 C-0.53458984 0.90544922 -0.53458984 0.90544922 0 0 Z " fill="#0C1358" transform="translate(350,299)"/>
<path d="M0 0 C2 2 2 2 2 6 C1.34 6 0.68 6 0 6 C-0.66 5.01 -1.32 4.02 -2 3 C-4.31 3.33 -6.62 3.66 -9 4 C-8.41632611 10.30367803 -6.95928381 15.98660063 -5 22 C-1.71303767 22.79953138 -0.28976808 23.09658936 3 22 C3.33 20.35 3.66 18.7 4 17 C4.66 17 5.32 17 6 17 C6.48192771 22.42168675 6.48192771 22.42168675 4.4375 24.875 C1.02111866 26.45179139 -1.28210428 26.53112796 -5 26 C-9.96962062 21.85864948 -11.51416989 14.89977144 -12.2890625 8.6796875 C-12.41011648 5.69735752 -12.38873616 3.57384862 -10.6875 1.0625 C-6.88720113 -1.33028077 -4.2301033 -0.99002418 0 0 Z " fill="#0F1D62" transform="translate(294,354)"/>
<path d="M0 0 C0.66 0.33 1.32 0.66 2 1 C1.67 1.99 1.34 2.98 1 4 C-0.1446875 3.6596875 -0.1446875 3.6596875 -1.3125 3.3125 C-3.97532224 2.72590357 -3.97532224 2.72590357 -5.875 4.125 C-7.21447654 5.96672712 -7.21447654 5.96672712 -6.8984375 8.3125 C-5.67235666 11.98008095 -3.72761094 13.44673439 -0.75 15.875 C0.20390625 16.67679687 1.1578125 17.47859375 2.140625 18.3046875 C4.848906 20.27374324 4.848906 20.27374324 7.796875 19.8203125 C9.94383269 19.19480943 9.94383269 19.19480943 11 18 C11.1613058 14.93518979 10.98150241 12.94450722 10 10 C11.9375 10.6875 11.9375 10.6875 14 12 C14.9375 14.3125 14.9375 14.3125 15 17 C12.80597015 21.59701493 12.80597015 21.59701493 10 23 C7.04943124 23.43980982 4.92149951 23.55566873 2.31005859 21.98095703 C0.53351636 20.57183487 -1.14397158 19.09785055 -2.8125 17.5625 C-3.39708984 17.04623047 -3.98167969 16.52996094 -4.58398438 15.99804688 C-9.97971292 11.215043 -9.97971292 11.215043 -10.3125 7.6875 C-10 4 -10 4 -8.375 1.5625 C-5.36257342 -0.41935959 -3.54231061 -0.38503376 0 0 Z " fill="#090C50" transform="translate(345,317)"/>
<path d="M0 0 C1.32 0.33 2.64 0.66 4 1 C2.23534636 5.13816438 -0.53937799 8.44255605 -3.3125 11.9375 C-3.78623047 12.54529297 -4.25996094 13.15308594 -4.74804688 13.77929688 C-7.63194321 17.43644038 -10.63987424 20.77452409 -14 24 C-14.66 22.68 -15.32 21.36 -16 20 C-14.2719625 17.79077517 -12.54260488 15.58260494 -10.8125 13.375 C-10.32974609 12.75753906 -9.84699219 12.14007813 -9.34960938 11.50390625 C-6.29758358 7.61206127 -3.18457039 3.78422441 0 0 Z " fill="#090B50" transform="translate(336,153)"/>
<path d="M0 0 C3.0625 0.3125 3.0625 0.3125 5 1.4375 C6.0625 3.3125 6.0625 3.3125 5.9375 6.375 C5.0625 9.3125 5.0625 9.3125 2.0625 11.3125 C-0.4375 11.6875 -0.4375 11.6875 -2.9375 11.3125 C-4.8125 9.625 -4.8125 9.625 -5.9375 7.3125 C-5.61764525 2.8345335 -4.76027546 0.50641228 0 0 Z " fill="#0A0B4F" transform="translate(255.9375,278.6875)"/>
<path d="M0 0 C2 2 2 2 2.3125 4.9375 C2 8 2 8 0.8125 9.875 C-1.65507108 11.40659584 -3.14519831 11.42822025 -6 11 C-7.8125 9.875 -7.8125 9.875 -9 8 C-9.375 4.9375 -9.375 4.9375 -9 2 C-5.54754176 -0.30163882 -4.05261287 -0.34490322 0 0 Z " fill="#08094D" transform="translate(299,279)"/>
<path d="M0 0 C3.0625 0.25 3.0625 0.25 6.0625 2.25 C6.46214378 5.3805429 6.58399743 7.38083761 4.9375 10.125 C2.19333761 11.77149743 0.1930429 11.64964378 -2.9375 11.25 C-5.23913882 7.79754176 -5.28240322 6.30261287 -4.9375 2.25 C-2.9375 0.25 -2.9375 0.25 0 0 Z " fill="#09094D" transform="translate(215.9375,278.75)"/>
<path d="M0 0 C0 0.66 0 1.32 0 2 C-1.65 2 -3.3 2 -5 2 C-4.67 10.25 -4.34 18.5 -4 27 C-4.99 27 -5.98 27 -7 27 C-7.71413279 18.97875848 -8.14525497 11.05358138 -8 3 C-9.98 3 -11.96 3 -14 3 C-14 2.34 -14 1.68 -14 1 C-9.23692563 0.04738513 -4.8333472 -0.08333357 0 0 Z " fill="#0E1A5F" transform="translate(271,358)"/>
<path d="M0 0 C5.875 1.875 5.875 1.875 7 3 C7.26293056 7.03160191 7.29404844 8.55892734 5 12 C-1.625 11.375 -1.625 11.375 -5 8 C-3.35 5.36 -1.7 2.72 0 0 Z " fill="#2E7EC7" transform="translate(201,346)"/>
<path d="M0 0 C3.96260237 1.55413992 6.06576897 4.07124717 8.75 7.3125 C9.54921875 8.25738281 10.3484375 9.20226562 11.171875 10.17578125 C13.11143594 13.17215424 13.43125727 14.51823178 13 18 C8.31644137 17.17136561 6.43150276 14.32379718 3.6875 10.6875 C3.22021484 10.10548828 2.75292969 9.52347656 2.27148438 8.92382812 C-1.05059369 4.59089617 -1.05059369 4.59089617 -0.79296875 1.58203125 C-0.40044922 0.79892578 -0.40044922 0.79892578 0 0 Z " fill="#2D7BC4" transform="translate(178,155)"/>
<path d="M0 0 C2.96676187 1.05231297 3.89604626 1.81780739 5.484375 4.6015625 C5.90203125 5.59929687 6.3196875 6.59703125 6.75 7.625 C7.17796875 8.62789063 7.6059375 9.63078125 8.046875 10.6640625 C8.36140625 11.43492187 8.6759375 12.20578125 9 13 C8.01 13 7.02 13 6 13 C5.67 11.68 5.34 10.36 5 9 C3.89140625 9.55429687 2.7828125 10.10859375 1.640625 10.6796875 C-4.6796875 13.83984375 -4.6796875 13.83984375 -11 17 C-11.67836914 17.37012207 -12.35673828 17.74024414 -13.05566406 18.12158203 C-15 19 -15 19 -18 19 C-18 18.34 -18 17.68 -18 17 C-11.73 13.7 -5.46 10.4 1 7 C0.67 4.69 0.34 2.38 0 0 Z " fill="#0C1459" transform="translate(160,298)"/>
<path d="M0 0 C1.32 0 2.64 0 4 0 C3.22095672 13.6332574 3.22095672 13.6332574 1 20 C-0.32 19.67 -1.64 19.34 -3 19 C-2.54240047 12.4491015 -1.7899856 6.3246158 0 0 Z " fill="#2E7DC5" transform="translate(277,131)"/>
<path d="M0 0 C0.54269531 0.27199219 1.08539063 0.54398438 1.64453125 0.82421875 C0.03442598 4.89797906 -2.89369146 7.58928944 -5.98046875 10.57421875 C-6.49609375 11.08082031 -7.01171875 11.58742187 -7.54296875 12.109375 C-8.80930214 13.35225777 -10.08178315 14.58887151 -11.35546875 15.82421875 C-12.34546875 15.49421875 -13.33546875 15.16421875 -14.35546875 14.82421875 C-13.90632138 10.44764319 -11.00855646 7.9619606 -8.04296875 5.01171875 C-7.55634766 4.49673828 -7.06972656 3.98175781 -6.56835938 3.45117188 C-2.91899842 -0.2178357 -2.91899842 -0.2178357 0 0 Z " fill="#2F80C9" transform="translate(345.35546875,165.17578125)"/>
<path d="M0 0 C2.3125 1.25 2.3125 1.25 3.3125 2.25 C3.625 4.625 3.625 4.625 3.3125 7.25 C1.625 9.1875 1.625 9.1875 -0.6875 10.25 C-3.08013407 9.58228817 -4.90847385 9.02902615 -6.6875 7.25 C-7 4.875 -7 4.875 -6.6875 2.25 C-4.33222347 -0.45420638 -3.50969299 -0.97944921 0 0 Z " fill="#89D5BB" transform="translate(376.6875,264.75)"/>
<path d="M0 0 C2.3125 1.25 2.3125 1.25 3.3125 2.25 C3.625 4.625 3.625 4.625 3.3125 7.25 C1.625 9.1875 1.625 9.1875 -0.6875 10.25 C-3.08013407 9.58228817 -4.90847385 9.02902615 -6.6875 7.25 C-7 4.875 -7 4.875 -6.6875 2.25 C-4.33222347 -0.45420638 -3.50969299 -0.97944921 0 0 Z " fill="#89D5BB" transform="translate(138.6875,264.75)"/>
<path d="M0 0 C0.99 0 1.98 0 3 0 C0.80829335 8.8711936 -3.02160259 16.82521081 -7 25 C-7.66 25 -8.32 25 -9 25 C-8.38965243 21.51423718 -7.48391539 18.4128077 -6.15234375 15.13671875 C-5.61577148 13.80737305 -5.61577148 13.80737305 -5.06835938 12.45117188 C-4.50858398 11.0831543 -4.50858398 11.0831543 -3.9375 9.6875 C-3.56044922 8.75615234 -3.18339844 7.82480469 -2.79492188 6.86523438 C-1.86716875 4.57521083 -0.93541999 2.28690004 0 0 Z " fill="#0D175C" transform="translate(216,351)"/>
<path d="M0 0 C4.85247926 2.16327433 8.04696301 5.71696284 11.75 9.4375 C12.44738281 10.11876953 13.14476562 10.80003906 13.86328125 11.50195312 C14.52199219 12.16001953 15.18070312 12.81808594 15.859375 13.49609375 C16.46233398 14.09607178 17.06529297 14.6960498 17.68652344 15.31420898 C19 17 19 17 19 20 C11.23394214 16.6792196 5.16585433 8.49043236 0 2 C0 1.34 0 0.68 0 0 Z " fill="#0E185D" transform="translate(328,329)"/>
<path d="M0 0 C0.66 0 1.32 0 2 0 C1.67 8.58 1.34 17.16 1 26 C0.01 26 -0.98 26 -2 26 C-1.39702691 17.32745081 -0.74558682 8.66149795 0 0 Z " fill="#0B1055" transform="translate(252,359)"/>
<path d="M0 0 C3.70624752 1.23541584 4.1194235 2.76420473 5.8828125 6.0859375 C7.01617904 8.02771933 8.27456915 9.6203392 9.75 11.3125 C12 14 12 14 12 16 C12.66 16 13.32 16 14 16 C14 16.99 14 17.98 14 19 C9.6868053 17.44805611 7.42165466 14.15096284 4.75 10.625 C4.06164062 9.75875 4.06164062 9.75875 3.359375 8.875 C0.815846 5.55932826 0 4.30720736 0 0 Z " fill="#0D165A" transform="translate(315,342)"/>
<path d="M0 0 C0.66 0 1.32 0 2 0 C2.48192771 5.42168675 2.48192771 5.42168675 0.4375 7.875 C-2.90214858 9.41637627 -5.36540718 9.39650104 -9 9 C-11 7.75 -11 7.75 -12 6 C-11.6875 3.8125 -11.6875 3.8125 -11 2 C-10.01 3.32 -9.02 4.64 -8 6 C-4.535 5.505 -4.535 5.505 -1 5 C-0.67 3.35 -0.34 1.7 0 0 Z " fill="#08094E" transform="translate(298,371)"/>
<path d="M0 0 C1.9375 0.6875 1.9375 0.6875 4 2 C4.9375 4.3125 4.9375 4.3125 5 7 C3.75 9.75 3.75 9.75 2 12 C1.01 12.33 0.02 12.66 -1 13 C-0.125 9.125 -0.125 9.125 1 8 C1.1613058 4.93518979 0.98150241 2.94450722 0 0 Z " fill="#0C1459" transform="translate(355,327)"/>
<path d="M0 0 C2.16874252 0.50603992 3.99967627 0.99983813 6 2 C6 3.65 6 5.3 6 7 C1.25 5.125 1.25 5.125 -1 4 C-0.67 2.68 -0.34 1.36 0 0 Z " fill="#2C76BF" transform="translate(146,193)"/>
<path d="M0 0 C3.21666704 -0.21931821 5.43362303 -0.26828383 8.375 1.125 C10 3 10 3 10.25 6.1875 C10.1675 7.115625 10.085 8.04375 10 9 C9.34 9 8.68 9 8 9 C7.34 7.02 6.68 5.04 6 3 C3.69 2.67 1.38 2.34 -1 2 C-0.67 1.34 -0.34 0.68 0 0 Z " fill="#090B50" transform="translate(225,355)"/>
<path d="M0 0 C3 0.1875 3 0.1875 5 1.1875 C4.67 2.1775 4.34 3.1675 4 4.1875 C3.2575 3.960625 2.515 3.73375 1.75 3.5 C-1.04797157 2.88491574 -1.04797157 2.88491574 -3.1875 4.625 C-3.785625 5.140625 -4.38375 5.65625 -5 6.1875 C-5.66 6.1875 -6.32 6.1875 -7 6.1875 C-4.2360515 0.26475322 -4.2360515 0.26475322 0 0 Z " fill="#0D185C" transform="translate(342,316.8125)"/>
<path d="M0 0 C0.99 0 1.98 0 3 0 C2.01 3.3 1.02 6.6 0 10 C-0.99 9.67 -1.98 9.34 -3 9 C-2.01 6.03 -1.02 3.06 0 0 Z " fill="#112267" transform="translate(216,351)"/>
<path d="M0 0 C1.32 0.33 2.64 0.66 4 1 C7 6.03571429 7 6.03571429 7 9 C6.01 9 5.02 9 4 9 C2.68 6.03 1.36 3.06 0 0 Z " fill="#0E195E" transform="translate(308,345)"/>
<path d="M0 0 C1.32 0.33 2.64 0.66 4 1 C4 2.65 4 4.3 4 6 C2.68 6.33 1.36 6.66 0 7 C0 4.69 0 2.38 0 0 Z " fill="#74B4A9" transform="translate(294,300)"/>
<path d="M0 0 C0.99 0 1.98 0 3 0 C3 2.31 3 4.62 3 7 C1.68 6.67 0.36 6.34 -1 6 C-1.042721 4.33388095 -1.04063832 2.66617115 -1 1 C-0.67 0.67 -0.34 0.34 0 0 Z " fill="#74B4A9" transform="translate(215,300)"/>
<path d="M0 0 C0.99 0.33 1.98 0.66 3 1 C3 2.98 3 4.96 3 7 C3.66 7 4.32 7 5 7 C4.67 7.99 4.34 8.98 4 10 C2 8.375 2 8.375 0 6 C-0.25 2.75 -0.25 2.75 0 0 Z " fill="#102065" transform="translate(217,371)"/>
<path d="M0 0 C0.625 1.875 0.625 1.875 1 4 C0.34 4.66 -0.32 5.32 -1 6 C-4.625 5.625 -4.625 5.625 -8 5 C-8 4.34 -8 3.68 -8 3 C-6.865625 2.690625 -5.73125 2.38125 -4.5625 2.0625 C-1.21224901 1.37075469 -1.21224901 1.37075469 0 0 Z " fill="#090C51" transform="translate(230,376)"/>
<path d="M0 0 C2 2 2 2 2.1953125 3.9453125 C2.13020833 5.96354167 2.06510417 7.98177083 2 10 C1.01 9.67 0.02 9.34 -1 9 C-1.125 2.25 -1.125 2.25 0 0 Z " fill="#112166" transform="translate(199,363)"/>
<path d="M0 0 C0.99 0.33 1.98 0.66 3 1 C3 2.65 3 4.3 3 6 C1.68 6 0.36 6 -1 6 C-1.042721 4.33388095 -1.04063832 2.66617115 -1 1 C-0.67 0.67 -0.34 0.34 0 0 Z " fill="#79BDAE" transform="translate(255,300)"/>
<path d="M0 0 C0.66 0 1.32 0 2 0 C2.3125 2.8125 2.3125 2.8125 2 6 C-0.5 7.875 -0.5 7.875 -3 9 C-3.33 8.01 -3.66 7.02 -4 6 C-3.01 5.67 -2.02 5.34 -1 5 C-0.67 3.35 -0.34 1.7 0 0 Z " fill="#0B1156" transform="translate(298,371)"/>
<path d="M0 0 C1.9375 0.5625 1.9375 0.5625 4 2 C4.75 5.625 4.75 5.625 5 9 C4.01 8.67 3.02 8.34 2 8 C1.26953125 6.15234375 1.26953125 6.15234375 0.8125 3.9375 C0.65394531 3.20402344 0.49539062 2.47054688 0.33203125 1.71484375 C0.22246094 1.14894531 0.11289063 0.58304687 0 0 Z " fill="#0F1C61" transform="translate(206,346)"/>
<path d="M0 0 C0.33 1.32 0.66 2.64 1 4 C1.66 4.33 2.32 4.66 3 5 C2.34 6.98 1.68 8.96 1 11 C0.34 10.67 -0.32 10.34 -1 10 C-0.67 6.7 -0.34 3.4 0 0 Z " fill="#296DB5" transform="translate(284,140)"/>
<path d="M0 0 C1.9375 0.6875 1.9375 0.6875 4 2 C4.75 4.625 4.75 4.625 5 7 C4.01 7 3.02 7 2 7 C1.34 4.69 0.68 2.38 0 0 Z " fill="#101F64" transform="translate(355,327)"/>
<path d="M0 0 C1.15941038 3.47823115 0.70820884 5.45895578 0 9 C-0.66 8.67 -1.32 8.34 -2 8 C-2.125 5.125 -2.125 5.125 -2 2 C-1.34 1.34 -0.68 0.68 0 0 Z " fill="#08074C" transform="translate(284,355)"/>
</svg>
