<?xml version="1.0" encoding="UTF-8"?>
<svg version="1.1" xmlns="http://www.w3.org/2000/svg" width="256" height="256">
<path d="M0 0 C84.48 0 168.96 0 256 0 C256 84.48 256 168.96 256 256 C171.52 256 87.04 256 0 256 C0 171.52 0 87.04 0 0 Z " fill="#8AD7BC" transform="translate(0,0)"/>
<path d="M0 0 C14.16729297 13.32033524 22.7844111 30.66786637 23.4375 50.015625 C23.86242109 70.73927634 18.08513209 89.74760518 3.59765625 105.15625 C-12.83363525 120.66064814 -30.58596965 126.8071828 -52.69140625 126.4609375 C-71.02795615 125.77981443 -89.02617738 117.73074951 -101.6875 104.3125 C-116.81917718 86.53277932 -121.53342567 69.08570953 -120.6875 46.3125 C-119.1806624 28.25197507 -109.6849876 10.67206391 -95.93359375 -1.03125 C-67.16487173 -23.53611729 -28.47451053 -23.82762861 0 0 Z " fill="#2F81CA" transform="translate(176.6875,73.6875)"/>
<path d="M0 0 C10.08332367 6.88831704 17.72925545 17.64227561 20.125 29.75 C21.54252768 44.0117114 17.95207365 56.45787087 9.125 67.75 C1.22037894 76.61068754 -10.2975299 81.97216731 -22.01953125 83.03515625 C-34.51487667 83.57244233 -44.52287429 79.66843303 -54.36328125 72.0546875 C-60.85866374 66.09469424 -65.35122419 59.16258604 -67.875 50.75 C-68.266875 49.71875 -68.65875 48.6875 -69.0625 47.625 C-71.68702677 35.10802617 -69.50766098 24.73662368 -63.1484375 13.7734375 C-48.52484209 -8.07168651 -22.3213746 -13.30755894 0 0 Z " fill="#06074B" transform="translate(152.875,90.25)"/>
<path d="M0 0 C2.375 1.625 2.375 1.625 4 4 C4.5 7 4.5 7 4 10 C2.125 12.375 2.125 12.375 0 14 C-0.66 14 -1.32 14 -2 14 C-2 14.66 -2 15.32 -2 16 C-1.01 16.33 -0.02 16.66 1 17 C0.34 17.99 -0.32 18.98 -1 20 C-0.01257813 20.04898438 0.97484375 20.09796875 1.9921875 20.1484375 C3.27351563 20.22320312 4.55484375 20.29796875 5.875 20.375 C7.15117187 20.44460937 8.42734375 20.51421875 9.7421875 20.5859375 C13 21 13 21 15 23 C15.1971417 27.13997567 15.30765478 30.07703567 14 34 C15.134375 34.309375 16.26875 34.61875 17.4375 34.9375 C21 36 21 36 22 37 C22.04080783 38.99958364 22.04254356 41.00045254 22 43 C20.68 43.66 19.36 44.32 18 45 C18 45.66 18 46.32 18 47 C17.34 47 16.68 47 16 47 C16 46.34 16 45.68 16 45 C14.68 44.34 13.36 43.68 12 43 C12.03255208 40.94921875 12.06510417 38.8984375 12.09765625 36.84765625 C12.20561184 34.98267859 12.20561184 34.98267859 11 34 C8.81707226 33.76518307 6.62796826 33.58636677 4.4375 33.4375 C3.23996094 33.35371094 2.04242188 33.26992187 0.80859375 33.18359375 C-0.58166016 33.09271484 -0.58166016 33.09271484 -2 33 C-1.34515625 33.59296875 -0.6903125 34.1859375 -0.015625 34.796875 C2 37 2 37 2.25 40.25 C2.1675 41.1575 2.085 42.065 2 43 C0.68 43.66 -0.64 44.32 -2 45 C-2 45.66 -2 46.32 -2 47 C-2.66 47 -3.32 47 -4 47 C-4 46.34 -4 45.68 -4 45 C-5.32 44.34 -6.64 43.68 -8 43 C-8 41.02 -8 39.04 -8 37 C-6.68 36.34 -5.36 35.68 -4 35 C-4 34.34 -4 33.68 -4 33 C-10.435 33.495 -10.435 33.495 -17 34 C-18.06546953 37.1964086 -18.07427838 39.65747276 -18 43 C-19.32 43.66 -20.64 44.32 -22 45 C-22 46.98 -22 48.96 -22 51 C-22.66 51 -23.32 51 -24 51 C-24 49.02 -24 47.04 -24 45 C-25.32 44.34 -26.64 43.68 -28 43 C-28.125 40.125 -28.125 40.125 -28 37 C-25.4345406 34.4345406 -23.52313332 34.45953913 -20 34 C-20.495 32.515 -20.495 32.515 -21 31 C-21.23188622 28.27668512 -21.13093368 25.74960731 -21 23 C-18.14206684 20.14206684 -15.85334416 20.59200059 -11.875 20.375 C-10.59367187 20.30023438 -9.31234375 20.22546875 -7.9921875 20.1484375 C-6.51105469 20.07496094 -6.51105469 20.07496094 -5 20 C-5.33 18.68 -5.66 17.36 -6 16 C-5.34 16 -4.68 16 -4 16 C-4 15.34 -4 14.68 -4 14 C-4.804375 13.71125 -5.60875 13.4225 -6.4375 13.125 C-9 12 -9 12 -10 10 C-10.38932198 6.4182378 -10.43596718 4.63718279 -8.375 1.625 C-5.28813568 -0.48706506 -3.6717087 -0.61195145 0 0 Z " fill="#88D5BA" transform="translate(131,102)"/>
<path d="M0 0 C0.66209473 -0.00095673 1.32418945 -0.00191345 2.00634766 -0.00289917 C3.40852961 -0.00358076 4.8107147 -0.00172792 6.21289062 0.00244141 C8.36595713 0.00779004 10.51881502 0.0024958 12.671875 -0.00390625 C14.03125046 -0.00324546 15.3906258 -0.00196429 16.75 0 C18.61785156 0.00169189 18.61785156 0.00169189 20.5234375 0.00341797 C23.375 0.1328125 23.375 0.1328125 24.375 1.1328125 C24.5 4.1328125 24.5 4.1328125 24.375 7.1328125 C22.49180732 9.01600518 19.25569863 8.26335535 16.75 8.265625 C16.08790527 8.26658173 15.42581055 8.26753845 14.74365234 8.26852417 C13.34147039 8.26920576 11.9392853 8.26735292 10.53710938 8.26318359 C8.38404287 8.25783496 6.23118498 8.2631292 4.078125 8.26953125 C2.71874954 8.26887046 1.3593742 8.26758929 0 8.265625 C-1.24523437 8.26449707 -2.49046875 8.26336914 -3.7734375 8.26220703 C-6.625 8.1328125 -6.625 8.1328125 -7.625 7.1328125 C-7.75 4.1328125 -7.75 4.1328125 -7.625 1.1328125 C-5.74180732 -0.75038018 -2.50569863 0.00226965 0 0 Z " fill="#050448" transform="translate(119.625,124.8671875)"/>
<path d="M0 0 C2.375 1.625 2.375 1.625 4 4 C4.5 7 4.5 7 4 10 C2.125 12.375 2.125 12.375 0 14 C-0.66 14 -1.32 14 -2 14 C-2 14.66 -2 15.32 -2 16 C-1.01 16.33 -0.02 16.66 1 17 C-1 19 -1 19 -3.625 19.125 C-4.40875 19.08375 -5.1925 19.0425 -6 19 C-6 18.01 -6 17.02 -6 16 C-5.34 16 -4.68 16 -4 16 C-4 15.34 -4 14.68 -4 14 C-4.804375 13.71125 -5.60875 13.4225 -6.4375 13.125 C-9 12 -9 12 -10 10 C-10.38932198 6.4182378 -10.43596718 4.63718279 -8.375 1.625 C-5.28813568 -0.48706506 -3.6717087 -0.61195145 0 0 Z " fill="#7ABEAE" transform="translate(131,102)"/>
<path d="M0 0 C2.0625 0.4375 2.0625 0.4375 4 1 C3.34 1.66 2.68 2.32 2 3 C1.34 2.67 0.68 2.34 0 2 C0.33 2.66 0.66 3.32 1 4 C3.33247761 4.33926947 5.66585471 4.67240066 8 5 C8.66 5.66 9.32 6.32 10 7 C9.64700993 10.44165321 8.95418308 12.06872538 7 15 C6.34 15 5.68 15 5 15 C4.67 15.99 4.34 16.98 4 18 C-0.67105792 16.44298069 -4.08705685 13.91552627 -8 11 C-7 9 -6 7 -5 5 C-4.34 5 -3.68 5 -3 5 C-2.690625 4.360625 -2.38125 3.72125 -2.0625 3.0625 C-1 1 -1 1 0 0 Z " fill="#2B77BF" transform="translate(82,81)"/>
<path d="M0 0 C1.32 0.33 2.64 0.66 4 1 C4.33 2.32 4.66 3.64 5 5 C8.16666667 3.16666667 8.16666667 3.16666667 10 0 C14 6.75 14 6.75 14 9 C13.34 9 12.68 9 12 9 C11.67 7.68 11.34 6.36 11 5 C9.02 5.99 9.02 5.99 7 7 C7.33 8.65 7.66 10.3 8 12 C7.01 11.67 6.02 11.34 5 11 C4.608125 11.66 4.21625 12.32 3.8125 13 C2 15 2 15 -0.6875 15.25 C-1.450625 15.1675 -2.21375 15.085 -3 15 C-6.52941176 7.5 -6.52941176 7.5 -6 3 C-5 2 -5 2 -2.4375 1.9375 C-1.2309375 1.9684375 -1.2309375 1.9684375 0 2 C0 1.34 0 0.68 0 0 Z " fill="#2564AC" transform="translate(147,175)"/>
<path d="M0 0 C0 2 0 4 0 6 C0.99 6 1.98 6 3 6 C3.33 5.34 3.66 4.68 4 4 C4.66 4.33 5.32 4.66 6 5 C5.34 6.32 4.68 7.64 4 9 C7.87797662 9.43386092 7.87797662 9.43386092 9.75 7.5 C10.1625 7.005 10.575 6.51 11 6 C10.34 7.98 9.68 9.96 9 12 C7.35 12 5.7 12 4 12 C4.20625 12.94875 4.4125 13.8975 4.625 14.875 C4.74875 15.90625 4.8725 16.9375 5 18 C4.34 18.66 3.68 19.32 3 20 C-1.94781498 19.8625607 -4.5008288 17.1736669 -8 14 C-7.42655063 11.13275314 -7.1385485 10.1385485 -5 8 C-2.875 8.375 -2.875 8.375 -1 9 C-1.66 8.34 -2.32 7.68 -3 7 C-2.67028521 3.70285207 -2.3773161 2.3773161 0 0 Z " fill="#1F4F95" transform="translate(175,150)"/>
<path d="M0 0 C3.81936528 1.55603771 6.26044438 3.95604931 9 7 C9 7.66 9 8.32 9 9 C8.01 9.495 8.01 9.495 7 10 C6.54625 10.825 6.0925 11.65 5.625 12.5 C4 15 4 15 1.8984375 15.65625 C0.95871094 15.82640625 0.95871094 15.82640625 0 16 C-2.19602066 13.79124879 -4.26080867 11.59005725 -6 9 C-5.875 6.0625 -5.875 6.0625 -5 4 C-3.35 3.67 -1.7 3.34 0 3 C0 2.01 0 1.02 0 0 Z " fill="#183B81" transform="translate(164,165)"/>
<path d="M0 0 C1.4540625 0.0309375 1.4540625 0.0309375 2.9375 0.0625 C2.9375 0.7225 2.9375 1.3825 2.9375 2.0625 C1.9475 2.0625 0.9575 2.0625 -0.0625 2.0625 C-0.0625 3.3825 -0.0625 4.7025 -0.0625 6.0625 C0.9275 6.3925 1.9175 6.7225 2.9375 7.0625 C2.2775 7.0625 1.6175 7.0625 0.9375 7.0625 C0.9375 8.7125 0.9375 10.3625 0.9375 12.0625 C2.2575 12.0625 3.5775 12.0625 4.9375 12.0625 C4.9375 12.7225 4.9375 13.3825 4.9375 14.0625 C2.6275 14.0625 0.3175 14.0625 -2.0625 14.0625 C-2.3925 14.7225 -2.7225 15.3825 -3.0625 16.0625 C-4.0525 16.0625 -5.0425 16.0625 -6.0625 16.0625 C-7.35493536 11.9428623 -8.32502625 8.39418317 -8.0625 4.0625 C-9.0525 4.0625 -10.0425 4.0625 -11.0625 4.0625 C-11.0625 3.4025 -11.0625 2.7425 -11.0625 2.0625 C-9.928125 1.918125 -8.79375 1.77375 -7.625 1.625 C-3.97252634 1.04829363 -3.54680005 0.07238367 0 0 Z " fill="#2970B9" transform="translate(119.0625,62.9375)"/>
<path d="M0 0 C5.875 2.75 5.875 2.75 7 5 C7.66 5 8.32 5 9 5 C8.40364189 8.57814867 7.000066 10.54422861 4.625 13.25 C4.01914063 13.95640625 3.41328125 14.6628125 2.7890625 15.390625 C1 17 1 17 -2 17 C-2 16.34 -2 15.68 -2 15 C-2.99 14.67 -3.98 14.34 -5 14 C-3.92535286 11.1893844 -2.76532638 8.54870457 -1.375 5.875 C0.21572775 3.08008076 0.21572775 3.08008076 0 0 Z " fill="#2D7CC5" transform="translate(161,71)"/>
<path d="M0 0 C0.66209473 -0.00095673 1.32418945 -0.00191345 2.00634766 -0.00289917 C3.40852961 -0.00358076 4.8107147 -0.00172792 6.21289062 0.00244141 C8.36595713 0.00779004 10.51881502 0.0024958 12.671875 -0.00390625 C14.03125046 -0.00324546 15.3906258 -0.00196429 16.75 0 C18.61785156 0.00169189 18.61785156 0.00169189 20.5234375 0.00341797 C23.375 0.1328125 23.375 0.1328125 24.375 1.1328125 C24.5 4.1328125 24.5 4.1328125 24.375 7.1328125 C22.49180732 9.01600518 19.25569863 8.26335535 16.75 8.265625 C16.08790527 8.26658173 15.42581055 8.26753845 14.74365234 8.26852417 C13.34147039 8.26920576 11.9392853 8.26735292 10.53710938 8.26318359 C8.38404287 8.25783496 6.23118498 8.2631292 4.078125 8.26953125 C2.71874954 8.26887046 1.3593742 8.26758929 0 8.265625 C-1.24523437 8.26449707 -2.49046875 8.26336914 -3.7734375 8.26220703 C-6.625 8.1328125 -6.625 8.1328125 -7.625 7.1328125 C-7.75 4.1328125 -7.75 4.1328125 -7.625 1.1328125 C-5.74180732 -0.75038018 -2.50569863 0.00226965 0 0 Z M-5.625 2.1328125 C-5.955 3.7828125 -6.285 5.4328125 -6.625 7.1328125 C-2.16668018 7.16172796 2.29161569 7.17958231 6.75 7.1953125 C8.02101563 7.20369141 9.29203125 7.21207031 10.6015625 7.22070312 C11.81328125 7.22392578 13.025 7.22714844 14.2734375 7.23046875 C15.39411621 7.23570557 16.51479492 7.24094238 17.66943359 7.24633789 C20.34367343 7.31902716 20.34367343 7.31902716 22.375 6.1328125 C22.375 4.8128125 22.375 3.4928125 22.375 2.1328125 C13.135 2.1328125 3.895 2.1328125 -5.625 2.1328125 Z " fill="#263964" transform="translate(119.625,124.8671875)"/>
<path d="M0 0 C1.45606519 4.52092968 0.27032841 7.51648796 -1 12 C-0.01 12 0.98 12 2 12 C3.65 9.03 5.3 6.06 7 3 C7.66 3 8.32 3 9 3 C8.67 3.928125 8.34 4.85625 8 5.8125 C6.85032996 8.92029291 6.85032996 8.92029291 7 12 C8.32 9.69 9.64 7.38 11 5 C11.66 5.33 12.32 5.66 13 6 C12.26766027 7.65376718 11.51347286 9.29787304 10.75 10.9375 C10.12351563 12.31228516 10.12351563 12.31228516 9.484375 13.71484375 C8 16 8 16 6.09375 16.9375 C3.45559311 17.01625095 2.05181816 16.32849999 -0.25 15.0625 C-0.95640625 14.68222656 -1.6628125 14.30195312 -2.390625 13.91015625 C-2.92171875 13.60980469 -3.4528125 13.30945313 -4 13 C-3.71517632 11.58194169 -3.42181856 10.16559621 -3.125 8.75 C-2.96257812 7.96109375 -2.80015625 7.1721875 -2.6328125 6.359375 C-2.00849925 4.03168856 -1.15161458 2.10968048 0 0 Z " fill="#0B1558" transform="translate(146,65)"/>
<path d="M0 0 C2 0 2 0 4.125 1.625 C6.47736015 4.60465619 6.33663062 6.29706315 6 10 C4.02 10.99 4.02 10.99 2 12 C2 12.66 2 13.32 2 14 C1.34 14 0.68 14 0 14 C0 13.34 0 12.68 0 12 C-1.32 11.34 -2.64 10.68 -4 10 C-4 8.02 -4 6.04 -4 4 C-2.68 3.34 -1.36 2.68 0 2 C0 1.34 0 0.68 0 0 Z " fill="#82CCB6" transform="translate(127,135)"/>
<path d="M0 0 C2.66428714 0.2860603 3.81097304 0.81437127 5.73828125 2.70703125 C6.25777344 3.40183594 6.77726562 4.09664063 7.3125 4.8125 C8.11107422 5.84310547 8.11107422 5.84310547 8.92578125 6.89453125 C10 9 10 9 9.66796875 11.26171875 C9.44753906 11.83535156 9.22710937 12.40898438 9 13 C3.49411765 12.51058824 3.49411765 12.51058824 1.125 10.0625 C0 8 0 8 0 6 C-0.66 6 -1.32 6 -2 6 C-1.125 1.125 -1.125 1.125 0 0 Z " fill="#091053" transform="translate(88,75)"/>
<path d="M0 0 C1.9453125 0.2421875 1.9453125 0.2421875 4.125 0.875 C4.84945312 1.07867187 5.57390625 1.28234375 6.3203125 1.4921875 C6.87460938 1.65976563 7.42890625 1.82734375 8 2 C8 3.98 8 5.96 8 8 C6.02 8.99 6.02 8.99 4 10 C4 11.98 4 13.96 4 16 C3.34 16 2.68 16 2 16 C2 14.02 2 12.04 2 10 C0.68 9.34 -0.64 8.68 -2 8 C-2.125 5.125 -2.125 5.125 -2 2 C-1.34 1.34 -0.68 0.68 0 0 Z " fill="#7BC0AE" transform="translate(105,137)"/>
<path d="M0 0 C0.66 0.99 1.32 1.98 2 3 C2.66 2.34 3.32 1.68 4 1 C6.625 1.375 6.625 1.375 9 2 C9.33 3.32 9.66 4.64 10 6 C9.34 6 8.68 6 8 6 C8 5.01 8 4.02 8 3 C6.68 3 5.36 3 4 3 C3.34 6.3 2.68 9.6 2 13 C3.32 12.67 4.64 12.34 6 12 C6 10.68 6 9.36 6 8 C6.66 8 7.32 8 8 8 C8 10.31 8 12.62 8 15 C5.25 15.3125 5.25 15.3125 2 15 C-0.375 12.5 -0.375 12.5 -2 10 C-2.33 10.66 -2.66 11.32 -3 12 C-3.66 12 -4.32 12 -5 12 C-3.68938409 7.76570244 -2.05643741 3.92592596 0 0 Z " fill="#13296E" transform="translate(108,176)"/>
<path d="M0 0 C0.57105469 0.24105469 1.14210937 0.48210937 1.73046875 0.73046875 C2.42578125 2.49609375 2.42578125 2.49609375 2.73046875 4.73046875 C0.87282473 7.5688565 -1.54516763 9.72449716 -4.26953125 11.73046875 C-7.20703125 12.16796875 -7.20703125 12.16796875 -9.26953125 11.73046875 C-10 10 -10 10 -10.26953125 7.73046875 C-8.7578125 5.5546875 -8.7578125 5.5546875 -6.58203125 3.41796875 C-5.87691406 2.69996094 -5.17179688 1.98195313 -4.4453125 1.2421875 C-2.26953125 -0.26953125 -2.26953125 -0.26953125 0 0 Z " fill="#0C185B" transform="translate(173.26953125,80.26953125)"/>
<path d="M0 0 C2.125 0.375 2.125 0.375 4 1 C5.07310858 4.27185553 4.89263102 6.42947592 4.0625 9.75 C3.86785156 10.54921875 3.67320312 11.3484375 3.47265625 12.171875 C3.23869141 13.07679687 3.23869141 13.07679687 3 14 C1.33388095 14.042721 -0.33382885 14.04063832 -2 14 C-2.33 13.67 -2.66 13.34 -3 13 C-2.96212481 11.1849043 -2.84507974 9.37113915 -2.6875 7.5625 C-2.60886719 6.57378906 -2.53023437 5.58507812 -2.44921875 4.56640625 C-2 2 -2 2 0 0 Z " fill="#090F52" transform="translate(138,63)"/>
<path d="M0 0 C3.17539693 0.50392169 5.54160964 1.74726379 8.25 3.4375 C8.95640625 3.86933594 9.6628125 4.30117187 10.390625 4.74609375 C10.92171875 5.15988281 11.4528125 5.57367188 12 6 C12 6.66 12 7.32 12 8 C10.02 7.34 8.04 6.68 6 6 C6 6.66 6 7.32 6 8 C7.32 8.33 8.64 8.66 10 9 C10 9.66 10 10.32 10 11 C5.24518354 10.42365861 2.02951788 8.44931479 -2 6 C-1.125 1.125 -1.125 1.125 0 0 Z " fill="#12286B" transform="translate(72,94)"/>
<path d="M0 0 C3.29714793 0.32971479 4.6226839 0.6226839 7 3 C6.67028521 6.29714793 6.3773161 7.6226839 4 10 C0.70285207 9.67028521 -0.6226839 9.3773161 -3 7 C-2.67028521 3.70285207 -2.3773161 2.3773161 0 0 Z " fill="#0F1553" transform="translate(126,104)"/>
<path d="M0 0 C0.99 0.33 1.98 0.66 3 1 C2.34 2.32 1.68 3.64 1 5 C2.36893239 5.05270463 2.36893239 5.05270463 5 4 C3.51697598 8.44907205 -0.08285501 10.74579392 -4 13 C-4.66 13 -5.32 13 -6 13 C-5.7525 12.0409375 -5.7525 12.0409375 -5.5 11.0625 C-4.96073333 9.19173179 -4.96073333 9.19173179 -5 8 C-6.32 8.33 -7.64 8.66 -9 9 C-6.33224795 5.44299727 -3.7174905 2.478327 0 0 Z " fill="#090F52" transform="translate(177,86)"/>
<path d="M0 0 C1.38294718 0.01329757 2.76582404 0.03715018 4.1484375 0.0703125 C4.85484375 0.07933594 5.56125 0.08835937 6.2890625 0.09765625 C8.03399848 0.12123647 9.77876045 0.15710789 11.5234375 0.1953125 C11.5234375 0.5253125 11.5234375 0.8553125 11.5234375 1.1953125 C6.9034375 1.1953125 2.2834375 1.1953125 -2.4765625 1.1953125 C-2.4971875 2.4946875 -2.5178125 3.7940625 -2.5390625 5.1328125 C-2.55066406 5.86371094 -2.56226562 6.59460938 -2.57421875 7.34765625 C-2.68217434 9.21263391 -2.68217434 9.21263391 -1.4765625 10.1953125 C0.70636524 10.43012943 2.89546924 10.60894573 5.0859375 10.7578125 C6.28347656 10.84160156 7.48101562 10.92539063 8.71484375 11.01171875 C9.64167969 11.07230469 10.56851563 11.13289062 11.5234375 11.1953125 C11.5234375 11.5253125 11.5234375 11.8553125 11.5234375 12.1953125 C10.15058594 12.25138672 10.15058594 12.25138672 8.75 12.30859375 C7.56148437 12.37433594 6.37296875 12.44007813 5.1484375 12.5078125 C3.96507813 12.56582031 2.78171875 12.62382812 1.5625 12.68359375 C0.55960938 12.85246094 -0.44328125 13.02132812 -1.4765625 13.1953125 C-2.4665625 14.6803125 -2.4665625 14.6803125 -3.4765625 16.1953125 C-6.6015625 16.3828125 -6.6015625 16.3828125 -9.4765625 16.1953125 C-9.1465625 15.5353125 -8.8165625 14.8753125 -8.4765625 14.1953125 C-6.4140625 13.5703125 -6.4140625 13.5703125 -4.4765625 13.1953125 C-4.8065625 12.2053125 -5.1365625 11.2153125 -5.4765625 10.1953125 C-5.70844872 7.47199762 -5.60749618 4.94491981 -5.4765625 2.1953125 C-3.4765625 0.1953125 -3.4765625 0.1953125 0 0 Z " fill="#7EC5B2" transform="translate(115.4765625,122.8046875)"/>
<path d="M0 0 C2.5 1.1875 2.5 1.1875 5 3 C5.3125 5.6875 5.3125 5.6875 5 8 C3.35 8.33 1.7 8.66 0 9 C0 10.98 0 12.96 0 15 C-0.33 15 -0.66 15 -1 15 C-1 12.69 -1 10.38 -1 8 C-2.65 9.32 -4.3 10.64 -6 12 C-4.43358249 7.69235185 -2.31663844 3.93828536 0 0 Z " fill="#0F1D61" transform="translate(100,171)"/>
<path d="M0 0 C3 1 3 1 4.6875 4.25 C5.83944321 7.54126631 6.31025348 9.5872117 6 13 C4.35 13.33 2.7 13.66 1 14 C0.15930585 12.39967863 -0.67231505 10.79458829 -1.5 9.1875 C-2.19609375 7.84751953 -2.19609375 7.84751953 -2.90625 6.48046875 C-4 4 -4 4 -4 1 C-3.34 1 -2.68 1 -2 1 C-1.32880451 2.4562545 -0.66318193 3.91507867 0 5.375 C0.556875 6.59316406 0.556875 6.59316406 1.125 7.8359375 C2 10 2 10 2 12 C2.66 12 3.32 12 4 12 C3.71125 11.30132812 3.4225 10.60265625 3.125 9.8828125 C2.75375 8.97273438 2.3825 8.06265625 2 7.125 C1.62875 6.22007813 1.2575 5.31515625 0.875 4.3828125 C0 2 0 2 0 0 Z " fill="#0A1255" transform="translate(104,67)"/>
<path d="M0 0 C1.67542976 0.28604898 3.34385343 0.61781233 5 1 C5 1.99 5 2.98 5 4 C4.34 4 3.68 4 3 4 C3 3.34 3 2.68 3 2 C2.34 2 1.68 2 1 2 C1.680625 3.051875 2.36125 4.10375 3.0625 5.1875 C4.6356595 7.90327009 5.02512513 8.70477974 4.75 11.9375 C4.5025 12.618125 4.255 13.29875 4 14 C2.125 14.625 2.125 14.625 0 15 C-0.66 14.34 -1.32 13.68 -2 13 C-2 12.01 -2 11.02 -2 10 C-1.01 9.67 -0.02 9.34 1 9 C0.34 8.01 -0.32 7.02 -1 6 C-1.1875 3.375 -1.1875 3.375 -1 1 C-0.67 0.67 -0.34 0.34 0 0 Z " fill="#0D1A5E" transform="translate(129,62)"/>
<path d="M0 0 C0 1.98 0 3.96 0 6 C-0.639375 6.28875 -1.27875 6.5775 -1.9375 6.875 C-4.15206079 7.82823451 -4.15206079 7.82823451 -5 10 C-8.07692308 5.69230769 -8.07692308 5.69230769 -7.6875 2.1875 C-7.460625 1.465625 -7.23375 0.74375 -7 0 C-3.86650268 -1.04449911 -3.01031744 -0.93423645 0 0 Z " fill="#72B1A7" transform="translate(153,139)"/>
<path d="M0 0 C1.67542976 0.28604898 3.34385343 0.61781233 5 1 C4.67 2.65 4.34 4.3 4 6 C3.34 6 2.68 6 2 6 C2.33 4.68 2.66 3.36 3 2 C0.21249856 3.39375072 0.10733713 5.16244861 -1 8 C-1.66 8.66 -2.32 9.32 -3 10 C-5.625 9.625 -5.625 9.625 -8 9 C-7.67 7.35 -7.34 5.7 -7 4 C-6.34 4 -5.68 4 -5 4 C-5.33 5.32 -5.66 6.64 -6 8 C-2.99301207 6.49650603 -2.41742541 3.9581052 -1 1 C-0.67 0.67 -0.34 0.34 0 0 Z " fill="#0B1457" transform="translate(181,95)"/>
<path d="M0 0 C2.0625 0.4375 2.0625 0.4375 4 1 C3.34 1.66 2.68 2.32 2 3 C1.34 2.67 0.68 2.34 0 2 C0.33 2.66 0.66 3.32 1 4 C3.33247761 4.33926947 5.66585471 4.67240066 8 5 C8.66 5.66 9.32 6.32 10 7 C9.625 9.625 9.625 9.625 9 12 C7.35 11.67 5.7 11.34 4 11 C4.66 10.34 5.32 9.68 6 9 C6.66 9.33 7.32 9.66 8 10 C7.67 9.34 7.34 8.68 7 8 C4.66752239 7.66073053 2.33414529 7.32759934 0 7 C-0.66 6.34 -1.32 5.68 -2 5 C-1.46428571 1.46428571 -1.46428571 1.46428571 0 0 Z " fill="#091052" transform="translate(82,81)"/>
<path d="M0 0 C0.66 0 1.32 0 2 0 C1.67 1.32 1.34 2.64 1 4 C2.65 4 4.3 4 6 4 C6 5.32 6 6.64 6 8 C7.65 7.67 9.3 7.34 11 7 C10.34 8.65 9.68 10.3 9 12 C4.32894208 10.44298069 0.91294315 7.91552627 -3 5 C-1.125 1.125 -1.125 1.125 0 0 Z " fill="#0A1154" transform="translate(77,87)"/>
<path d="M0 0 C4.04648443 1.34882814 4.95502599 3.34826069 7 7 C6.67 7.99 6.34 8.98 6 10 C2.86493389 9.66410006 1.974751 8.97334828 -0.25 6.625 C-2 4 -2 4 -2 1 C-1.34 0.67 -0.68 0.34 0 0 Z " fill="#2F80CA" transform="translate(161,169)"/>
<path d="M0 0 C0.66 0.33 1.32 0.66 2 1 C1.67 1.61875 1.34 2.2375 1 2.875 C-0.14193235 4.91018344 -0.14193235 4.91018344 0 7 C0.78375 6.484375 1.5675 5.96875 2.375 5.4375 C3.24125 4.963125 4.1075 4.48875 5 4 C5.66 4.33 6.32 4.66 7 5 C5.50260417 6.20442708 4.00520833 7.40885417 2.5078125 8.61328125 C0.74707893 10.12270545 0.74707893 10.12270545 -1 13 C-1.99 13 -2.98 13 -4 13 C-4 11 -4 11 -2.5 9.375 C-2.005 8.92125 -1.51 8.4675 -1 8 C-1.33 7.01 -1.66 6.02 -2 5 C-2.61875 5.495 -3.2375 5.99 -3.875 6.5 C-6 8 -6 8 -8 8 C-8 7.34 -8 6.68 -8 6 C-6.25 4.4921875 -6.25 4.4921875 -4 2.875 C-3.2575 2.33617187 -2.515 1.79734375 -1.75 1.2421875 C-1.1725 0.83226562 -0.595 0.42234375 0 0 Z " fill="#132A6F" transform="translate(83,157)"/>
<path d="M0 0 C0.33 0.99 0.66 1.98 1 3 C1.66 3.66 2.32 4.32 3 5 C2.236875 5.20625 1.47375 5.4125 0.6875 5.625 C-2.82229103 7.42070704 -3.52599781 9.43136312 -5 13 C-5.66 13 -6.32 13 -7 13 C-6.67 11.68 -6.34 10.36 -6 9 C-8.33075929 9.95865509 -8.33075929 9.95865509 -10 13 C-10.33 11.68 -10.66 10.36 -11 9 C-10.28972656 8.51789063 -9.57945312 8.03578125 -8.84765625 7.5390625 C-7.92855469 6.90742187 -7.00945312 6.27578125 -6.0625 5.625 C-5.14597656 4.99851562 -4.22945312 4.37203125 -3.28515625 3.7265625 C-0.91612836 2.20228929 -0.91612836 2.20228929 0 0 Z " fill="#286CB4" transform="translate(182,90)"/>
<path d="M0 0 C1.65 0 3.3 0 5 0 C5 0.66 5 1.32 5 2 C4.01 2 3.02 2 2 2 C2 3.32 2 4.64 2 6 C2.99 6.33 3.98 6.66 5 7 C4.34 7 3.68 7 3 7 C3 8.65 3 10.3 3 12 C4.32 12 5.64 12 7 12 C7 12.66 7 13.32 7 14 C5.02 14 3.04 14 1 14 C0.04738513 9.23692563 -0.08333357 4.8333472 0 0 Z " fill="#080D50" transform="translate(117,63)"/>
<path d="M0 0 C1.5 1.375 1.5 1.375 3 3 C3 3.66 3 4.32 3 5 C6.16666667 3.16666667 6.16666667 3.16666667 8 0 C12 6.75 12 6.75 12 9 C11.34 9 10.68 9 10 9 C9.67 7.68 9.34 6.36 9 5 C7.02 5.99 7.02 5.99 5 7 C5.33 8.65 5.66 10.3 6 12 C3.02404533 9.44918171 1.55997434 6.56565563 0 3 C0 2.01 0 1.02 0 0 Z " fill="#12286D" transform="translate(149,175)"/>
<path d="M0 0 C1.98 0.99 3.96 1.98 6 3 C6 3.66 6 4.32 6 5 C4.68 5 3.36 5 2 5 C1.731875 5.7425 1.46375 6.485 1.1875 7.25 C0.04723249 9.89061949 -1.09380306 11.85552844 -3 14 C-3.66 14 -4.32 14 -5 14 C-3.92535286 11.1893844 -2.76532638 8.54870457 -1.375 5.875 C0.21572775 3.08008076 0.21572775 3.08008076 0 0 Z " fill="#0A1053" transform="translate(161,71)"/>
<path d="M0 0 C4.42679007 1.47559669 4.91432696 3.90057368 7 8 C7 8.66 7 9.32 7 10 C8.32 9.67 9.64 9.34 11 9 C10.67 9.99 10.34 10.98 10 12 C7.9375 12.6875 7.9375 12.6875 6 13 C4.99491199 11.21118264 3.99607264 9.41885304 3 7.625 C2.1646875 6.12839844 2.1646875 6.12839844 1.3125 4.6015625 C0 2 0 2 0 0 Z " fill="#0B1457" transform="translate(93,72)"/>
<path d="M0 0 C0.33 0 0.66 0 1 0 C2.0161692 4.62921525 1.83796731 8.34462607 1 13 C0.01 12.01 -0.98 11.02 -2 10 C-2.33 10.66 -2.66 11.32 -3 12 C-3.66 12 -4.32 12 -5 12 C-3.68938409 7.76570244 -2.05643741 3.92592596 0 0 Z " fill="#1E4D93" transform="translate(108,176)"/>
<path d="M0 0 C-0.020625 1.010625 -0.04125 2.02125 -0.0625 3.0625 C-0.00312266 6.80327257 0.39795085 10.31244898 1 14 C0.34 14 -0.32 14 -1 14 C-2.42258812 10.17679443 -3.24042276 7.08718695 -3 3 C-3.99 3 -4.98 3 -6 3 C-6 2.34 -6 1.68 -6 1 C-3 0 -3 0 0 0 Z " fill="#0A1256" transform="translate(114,64)"/>
<path d="M0 0 C0.33 0.99 0.66 1.98 1 3 C2.65 2.67 4.3 2.34 6 2 C6.33 3.32 6.66 4.64 7 6 C8.32 6.33 9.64 6.66 11 7 C11 7.66 11 8.32 11 9 C6.24518354 8.42365861 3.02951788 6.44931479 -1 4 C-0.67 2.68 -0.34 1.36 0 0 Z " fill="#0A1356" transform="translate(71,96)"/>
<path d="M0 0 C0.66 0 1.32 0 2 0 C0.51697598 4.44907205 -3.08285501 6.74579392 -7 9 C-7.66 9 -8.32 9 -9 9 C-8.61402985 6.20171644 -8.19863427 5.1794116 -6.0625 3.25 C-4 2 -4 2 -2 2 C-1.34 1.34 -0.68 0.68 0 0 Z " fill="#080E50" transform="translate(180,90)"/>
<path d="M0 0 C0.66 0 1.32 0 2 0 C1.40716913 3.60571107 -0.02741777 5.54429438 -2.4375 8.25 C-3.05496094 8.95640625 -3.67242187 9.6628125 -4.30859375 10.390625 C-6 12 -6 12 -8 12 C-6.59808647 9.00745382 -4.96632511 6.4045389 -3 3.75 C-2.484375 3.04359375 -1.96875 2.3371875 -1.4375 1.609375 C-0.963125 1.07828125 -0.48875 0.5471875 0 0 Z " fill="#0C175A" transform="translate(168,76)"/>
<path d="M0 0 C3.0625 0.3125 3.0625 0.3125 4.9375 1.8125 C5.30875 2.3075 5.68 2.8025 6.0625 3.3125 C5.7325 4.3025 5.4025 5.2925 5.0625 6.3125 C4.670625 5.796875 4.27875 5.28125 3.875 4.75 C2.11960334 3.02402254 2.11960334 3.02402254 -0.4375 3.5 C-3.14446281 4.25521259 -3.14446281 4.25521259 -5.9375 6.3125 C-5.12541707 2.25208537 -4.43312263 0.47160879 0 0 Z " fill="#85D1B9" transform="translate(127.9375,101.6875)"/>
<path d="M0 0 C0.66 0 1.32 0 2 0 C3.0625 1.8125 3.0625 1.8125 4 4 C3.67 4.99 3.34 5.98 3 7 C2.01 6.67 1.02 6.34 0 6 C-1.81218012 6.74981308 -1.81218012 6.74981308 -3.5625 7.9375 C-6.81355932 10 -6.81355932 10 -9 10 C-9 9.34 -9 8.68 -9 8 C-7.71086513 7.32845067 -6.41859796 6.66291141 -5.125 6 C-4.40570313 5.62875 -3.68640625 5.2575 -2.9453125 4.875 C-1 4 -1 4 1 4 C0.67 2.68 0.34 1.36 0 0 Z " fill="#13286D" transform="translate(80,149)"/>
<path d="M0 0 C2.125 0.9375 2.125 0.9375 4 2 C3.67 3.32 3.34 4.64 3 6 C1.35 5.67 -0.3 5.34 -2 5 C-2 3.68 -2 2.36 -2 1 C-1.34 0.67 -0.68 0.34 0 0 Z " fill="#121C57" transform="translate(127,139)"/>
<path d="M0 0 C2 0 2 0 4.125 2 C4.74375 2.66 5.3625 3.32 6 4 C5.67 4.66 5.34 5.32 5 6 C4.236875 5.814375 3.47375 5.62875 2.6875 5.4375 C-0.08967375 4.77180827 -0.08967375 4.77180827 -3 6 C-2.67 4.68 -2.34 3.36 -2 2 C-1.34 2 -0.68 2 0 2 C0 1.34 0 0.68 0 0 Z " fill="#7CC0AF" transform="translate(127,135)"/>
<path d="M0 0 C1.98 0.495 1.98 0.495 4 1 C4.33 2.32 4.66 3.64 5 5 C3.68 5.33 2.36 5.66 1 6 C0.34 5.01 -0.32 4.02 -1 3 C-0.67 2.01 -0.34 1.02 0 0 Z " fill="#0E1555" transform="translate(106,139)"/>
<path d="M0 0 C1.32 1.32 2.64 2.64 4 4 C3.67 4.66 3.34 5.32 3 6 C0.69 5.67 -1.62 5.34 -4 5 C-4.33 4.01 -4.66 3.02 -5 2 C-4.360625 1.855625 -3.72125 1.71125 -3.0625 1.5625 C-1.02454854 1.18992819 -1.02454854 1.18992819 0 0 Z " fill="#2B76BE" transform="translate(87,81)"/>
<path d="M0 0 C0.33 0.66 0.66 1.32 1 2 C1.99 2.33 2.98 2.66 4 3 C3.01 4.98 2.02 6.96 1 9 C0.01 8.34 -0.98 7.68 -2 7 C-1.34 4.69 -0.68 2.38 0 0 Z " fill="#2C79C1" transform="translate(158,71)"/>
<path d="M0 0 C0.66 0 1.32 0 2 0 C1.125 7.75 1.125 7.75 0 10 C-0.66 10 -1.32 10 -2 10 C-1.85950482 8.52031676 -1.71245174 7.04125484 -1.5625 5.5625 C-1.48128906 4.73878906 -1.40007812 3.91507812 -1.31640625 3.06640625 C-1 1 -1 1 0 0 Z " fill="#296CB3" transform="translate(139,65)"/>
<path d="M0 0 C0.66 0 1.32 0 2 0 C2 0.66 2 1.32 2 2 C2.66 2 3.32 2 4 2 C4.33 1.34 4.66 0.68 5 0 C5.33 2.31 5.66 4.62 6 7 C4.125 6.6875 4.125 6.6875 2 6 C0 3 0 3 0 0 Z " fill="#296FB7" transform="translate(130,64)"/>
<path d="M0 0 C1.32 0.66 2.64 1.32 4 2 C3.67 3.32 3.34 4.64 3 6 C1.68 5.67 0.36 5.34 -1 5 C-0.67 3.35 -0.34 1.7 0 0 Z " fill="#2E7FC8" transform="translate(100,173)"/>
<path d="M0 0 C1.32 0 2.64 0 4 0 C4.33 0.99 4.66 1.98 5 3 C4.34 3.66 3.68 4.32 3 5 C0.875 4.625 0.875 4.625 -1 4 C-0.67 2.68 -0.34 1.36 0 0 Z " fill="#070B4E" transform="translate(146,140)"/>
<path d="M0 0 C3.71368887 1.23789629 4.77354181 2.85224877 7 6 C7 6.66 7 7.32 7 8 C6.01 8 5.02 8 4 8 C0 3.77142857 0 3.77142857 0 0 Z " fill="#2B75BD" transform="translate(89,78)"/>
<path d="M0 0 C1.41377341 2.63904371 2.37240135 5.07120629 3 8 C2.01 8.495 2.01 8.495 1 9 C0.896875 8.360625 0.79375 7.72125 0.6875 7.0625 C0.460625 6.381875 0.23375 5.70125 0 5 C-0.99 4.67 -1.98 4.34 -3 4 C-3 3.34 -3 2.68 -3 2 C-2.34 2 -1.68 2 -1 2 C-0.67 1.34 -0.34 0.68 0 0 Z " fill="#2665AC" transform="translate(157,170)"/>
<path d="M0 0 C0.66 0 1.32 0 2 0 C1.43454163 3.95820859 0.19097652 6.6659053 -2 10 C-2.6875 8.375 -2.6875 8.375 -3 6 C-1.5625 2.75 -1.5625 2.75 0 0 Z " fill="#2D7BC3" transform="translate(154,70)"/>
<path d="M0 0 C0.33 0.66 0.66 1.32 1 2 C1.99 2 2.98 2 4 2 C3.625 4.4375 3.625 4.4375 3 7 C2.01 7.495 2.01 7.495 1 8 C0.26919734 6.02253397 -0.39421747 4.01927511 -1 2 C-0.67 1.34 -0.34 0.68 0 0 Z " fill="#2B75BD" transform="translate(107,65)"/>
<path d="M0 0 C1.98 0.495 1.98 0.495 4 1 C3.67 2.32 3.34 3.64 3 5 C1.68 4.67 0.36 4.34 -1 4 C-0.67 2.68 -0.34 1.36 0 0 Z " fill="#84D2BC" transform="translate(186,132)"/>
<path d="M0 0 C1.98 0.495 1.98 0.495 4 1 C3.67 2.32 3.34 3.64 3 5 C1.68 4.67 0.36 4.34 -1 4 C-0.67 2.68 -0.34 1.36 0 0 Z " fill="#84D2BC" transform="translate(67,132)"/>
<path d="M0 0 C0.66 0 1.32 0 2 0 C0.49776416 4.20626034 -2.28550034 5.73900021 -6 8 C-6.99 7.34 -7.98 6.68 -9 6 C-8.2575 5.7525 -7.515 5.505 -6.75 5.25 C-3.79396573 3.90634806 -2.23312872 2.31013315 0 0 Z " fill="#286DB5" transform="translate(174,86)"/>
<path d="M0 0 C0.66 0 1.32 0 2 0 C1.45912682 3.78611227 -0.11722332 5.55400767 -3 8 C-3.66 8 -4.32 8 -5 8 C-3.63055898 5.05043472 -2.12169591 2.47531189 0 0 Z " fill="#2E7BC2" transform="translate(171,82)"/>
<path d="M0 0 C3.19199167 2.41556126 5.74716687 4.68003538 8 8 C4.89347355 7.6641593 3.39585697 7.40950721 1.1875 5.125 C0 3 0 3 0 0 Z " fill="#070B4E" transform="translate(88,80)"/>
<path d="M0 0 C0.66 0 1.32 0 2 0 C3.65 3.3 5.3 6.6 7 10 C6.34 10 5.68 10 5 10 C3.7109375 8.57421875 3.7109375 8.57421875 2.375 6.6875 C1.92898437 6.07261719 1.48296875 5.45773438 1.0234375 4.82421875 C0 3 0 3 0 0 Z " fill="#296EB6" transform="translate(92,74)"/>
<path d="M0 0 C1.98 0.99 3.96 1.98 6 3 C6 3.66 6 4.32 6 5 C4.02 5 2.04 5 0 5 C-0.5625 3.0625 -0.5625 3.0625 -1 1 C-0.67 0.67 -0.34 0.34 0 0 Z " fill="#0D185C" transform="translate(161,71)"/>
<path d="M0 0 C4 6 4 6 4 10 C3.34 10 2.68 10 2 10 C-0.09350689 6.5980513 -0.17942163 3.94727588 0 0 Z " fill="#2B76BF" transform="translate(104,69)"/>
<path d="M0 0 C0.99 0.33 1.98 0.66 3 1 C-0.465 3.97 -0.465 3.97 -4 7 C-3.04065919 3.16263678 -2.76390737 2.40339772 0 0 Z " fill="#2768B1" transform="translate(168,80)"/>
<path d="M0 0 C0.99 0.33 1.98 0.66 3 1 C3 1.66 3 2.32 3 3 C2.34 3 1.68 3 1 3 C0.67 3.99 0.34 4.98 0 6 C-0.66 6 -1.32 6 -2 6 C-1.125 1.125 -1.125 1.125 0 0 Z " fill="#12296D" transform="translate(88,75)"/>
<path d="M0 0 C0.66 0 1.32 0 2 0 C3.42944945 2.35438733 4.08661261 3.48032433 3.625 6.25 C3.41875 6.8275 3.2125 7.405 3 8 C0.4345406 5.4345406 0.45953913 3.52313332 0 0 Z " fill="#0D195C" transform="translate(100,68)"/>
<path d="M0 0 C1.65 0 3.3 0 5 0 C4.67 0.99 4.34 1.98 4 3 C3.34 2.67 2.68 2.34 2 2 C1.34 3.32 0.68 4.64 0 6 C0 4.02 0 2.04 0 0 Z " fill="#2C76BD" transform="translate(120,186)"/>
<path d="M0 0 C0.66 0.33 1.32 0.66 2 1 C0.515 4.465 0.515 4.465 -1 8 C-1.33 8 -1.66 8 -2 8 C-2.125 5.125 -2.125 5.125 -2 2 C-1.34 1.34 -0.68 0.68 0 0 Z " fill="#71B0A6" transform="translate(105,137)"/>
<path d="M0 0 C1.32 0 2.64 0 4 0 C3.67 0.99 3.34 1.98 3 3 C-0.5625 4.1875 -0.5625 4.1875 -4 5 C-2.25 2.5 -2.25 2.5 0 0 Z " fill="#0E1C5F" transform="translate(172,90)"/>
<path d="M0 0 C0.66 0 1.32 0 2 0 C0.84826645 2.46800047 -0.04783565 4.04783565 -2 6 C-4.125 5.625 -4.125 5.625 -6 5 C-5.01 5 -4.02 5 -3 5 C-2.5359375 4.0409375 -2.5359375 4.0409375 -2.0625 3.0625 C-1 1 -1 1 0 0 Z " fill="#06094C" transform="translate(171,86)"/>
</svg>
